G04*
G04 #@! TF.GenerationSoftware,Altium Limited,Altium Designer,23.2.1 (34)*
G04*
G04 Layer_Physical_Order=4*
G04 Layer_Color=16711680*
%FSLAX25Y25*%
%MOIN*%
G70*
G04*
G04 #@! TF.SameCoordinates,7D5924AB-2F56-4A22-BAC2-9F5A3F461BF2*
G04*
G04*
G04 #@! TF.FilePolarity,Positive*
G04*
G01*
G75*
%ADD60C,0.02000*%
%ADD65O,0.08000X0.07000*%
%ADD66R,0.08000X0.07000*%
%ADD67R,0.07874X0.07874*%
%ADD68C,0.07874*%
%ADD69C,0.06673*%
%ADD70R,0.06673X0.06673*%
%ADD71C,0.55118*%
%ADD72C,0.11811*%
%ADD73O,0.07874X0.11811*%
%ADD74C,0.03150*%
%ADD76C,0.02000*%
%ADD77C,0.03000*%
G36*
X330000Y721410D02*
X154000D01*
Y997000D01*
X330000D01*
Y721410D01*
D02*
G37*
G36*
X434000Y737000D02*
X420580D01*
X420406Y737101D01*
X419150Y737437D01*
X417850D01*
X416594Y737101D01*
X416420Y737000D01*
X352500D01*
Y854500D01*
X434000D01*
Y737000D01*
D02*
G37*
G36*
Y870000D02*
X420580D01*
X420406Y870101D01*
X419150Y870437D01*
X417850D01*
X416594Y870101D01*
X416420Y870000D01*
X352500D01*
Y987500D01*
X434000D01*
Y870000D01*
D02*
G37*
%LPC*%
G36*
X169180Y991158D02*
X167820D01*
X166486Y990892D01*
X165229Y990372D01*
X164098Y989616D01*
X163136Y988654D01*
X162380Y987523D01*
X161860Y986266D01*
X161594Y984932D01*
Y983572D01*
X161860Y982238D01*
X162380Y980981D01*
X163136Y979850D01*
X164098Y978888D01*
X165229Y978132D01*
X166486Y977612D01*
X167820Y977347D01*
X169180D01*
X170514Y977612D01*
X171771Y978132D01*
X172902Y978888D01*
X173864Y979850D01*
X174620Y980981D01*
X175140Y982238D01*
X175406Y983572D01*
Y984932D01*
X175140Y986266D01*
X174620Y987523D01*
X173864Y988654D01*
X172902Y989616D01*
X171771Y990372D01*
X170514Y990892D01*
X169180Y991158D01*
D02*
G37*
G36*
X223240Y972437D02*
X221941D01*
X220685Y972101D01*
X219559Y971451D01*
X218640Y970531D01*
X217990Y969406D01*
X217653Y968150D01*
Y966850D01*
X217990Y965594D01*
X218640Y964469D01*
X219559Y963549D01*
X220685Y962899D01*
X221941Y962563D01*
X223240D01*
X224496Y962899D01*
X225622Y963549D01*
X226541Y964469D01*
X227191Y965594D01*
X227528Y966850D01*
Y968150D01*
X227191Y969406D01*
X226541Y970531D01*
X225622Y971451D01*
X224496Y972101D01*
X223240Y972437D01*
D02*
G37*
G36*
X186346D02*
X176472D01*
Y962563D01*
X186346D01*
Y972437D01*
D02*
G37*
G36*
X289398Y964500D02*
X288602D01*
X287867Y964196D01*
X287304Y963633D01*
X287000Y962898D01*
Y962102D01*
X287304Y961367D01*
X287867Y960804D01*
X288602Y960500D01*
X289398D01*
X290133Y960804D01*
X290696Y961367D01*
X291000Y962102D01*
Y962898D01*
X290696Y963633D01*
X290133Y964196D01*
X289398Y964500D01*
D02*
G37*
G36*
X170650Y942437D02*
X169350D01*
X168094Y942101D01*
X166969Y941451D01*
X166049Y940531D01*
X165399Y939406D01*
X165063Y938150D01*
Y936850D01*
X165399Y935594D01*
X166049Y934469D01*
X166969Y933549D01*
X168094Y932899D01*
X169350Y932563D01*
X170650D01*
X171906Y932899D01*
X173031Y933549D01*
X173951Y934469D01*
X174601Y935594D01*
X174937Y936850D01*
Y938150D01*
X174601Y939406D01*
X173951Y940531D01*
X173031Y941451D01*
X171906Y942101D01*
X170650Y942437D01*
D02*
G37*
G36*
X165854Y882807D02*
X164854D01*
X163680Y882652D01*
X162585Y882199D01*
X161645Y881477D01*
X160924Y880537D01*
X160470Y879443D01*
X160316Y878268D01*
X160470Y877093D01*
X160924Y875998D01*
X161645Y875058D01*
X162585Y874337D01*
X163680Y873884D01*
X164854Y873729D01*
X165854D01*
X167029Y873884D01*
X168124Y874337D01*
X169064Y875058D01*
X169785Y875998D01*
X170238Y877093D01*
X170393Y878268D01*
X170238Y879443D01*
X169785Y880537D01*
X169064Y881477D01*
X168124Y882199D01*
X167029Y882652D01*
X165854Y882807D01*
D02*
G37*
G36*
Y872807D02*
X164854D01*
X163680Y872652D01*
X162585Y872198D01*
X161645Y871477D01*
X160924Y870537D01*
X160470Y869442D01*
X160316Y868268D01*
X160470Y867093D01*
X160924Y865998D01*
X161645Y865058D01*
X162585Y864337D01*
X163680Y863883D01*
X164854Y863729D01*
X165854D01*
X167029Y863883D01*
X168124Y864337D01*
X169064Y865058D01*
X169785Y865998D01*
X170238Y867093D01*
X170393Y868268D01*
X170238Y869442D01*
X169785Y870537D01*
X169064Y871477D01*
X168124Y872198D01*
X167029Y872652D01*
X165854Y872807D01*
D02*
G37*
G36*
X170354Y842768D02*
X160354D01*
Y833768D01*
X170354D01*
Y842768D01*
D02*
G37*
G36*
X289885Y828681D02*
X289090D01*
X288355Y828377D01*
X287792Y827814D01*
X287488Y827079D01*
Y826283D01*
X287792Y825548D01*
X288355Y824986D01*
X289090Y824681D01*
X289885D01*
X290621Y824986D01*
X291183Y825548D01*
X291488Y826283D01*
Y827079D01*
X291183Y827814D01*
X290621Y828377D01*
X289885Y828681D01*
D02*
G37*
G36*
X170650Y804437D02*
X169350D01*
X168094Y804101D01*
X166969Y803451D01*
X166049Y802531D01*
X165399Y801406D01*
X165063Y800150D01*
Y798850D01*
X165399Y797594D01*
X166049Y796469D01*
X166969Y795549D01*
X168094Y794899D01*
X169350Y794563D01*
X170650D01*
X171906Y794899D01*
X173031Y795549D01*
X173951Y796469D01*
X174601Y797594D01*
X174937Y798850D01*
Y800150D01*
X174601Y801406D01*
X173951Y802531D01*
X173031Y803451D01*
X171906Y804101D01*
X170650Y804437D01*
D02*
G37*
G36*
Y779437D02*
X169350D01*
X168094Y779101D01*
X166969Y778451D01*
X166049Y777531D01*
X165399Y776406D01*
X165063Y775150D01*
Y773850D01*
X165399Y772594D01*
X166049Y771469D01*
X166969Y770549D01*
X168094Y769899D01*
X169350Y769563D01*
X170650D01*
X171906Y769899D01*
X173031Y770549D01*
X173951Y771469D01*
X174601Y772594D01*
X174937Y773850D01*
Y775150D01*
X174601Y776406D01*
X173951Y777531D01*
X173031Y778451D01*
X171906Y779101D01*
X170650Y779437D01*
D02*
G37*
G36*
X241000Y866039D02*
X240803Y866000D01*
X240602D01*
X240417Y865923D01*
X240220Y865884D01*
X240053Y865772D01*
X239867Y865695D01*
X239725Y865553D01*
X239558Y865442D01*
X239446Y865275D01*
X239304Y865133D01*
X239228Y864947D01*
X239116Y864780D01*
X239077Y864583D01*
X239000Y864398D01*
Y864197D01*
X238961Y864000D01*
Y809500D01*
X239116Y808720D01*
X239558Y808058D01*
X282558Y765058D01*
X282725Y764947D01*
X282867Y764805D01*
X283053Y764728D01*
X283220Y764616D01*
X283417Y764577D01*
X283602Y764500D01*
X283803D01*
X284000Y764461D01*
X284197Y764500D01*
X284398D01*
X284583Y764577D01*
X284780Y764616D01*
X284947Y764728D01*
X285133Y764805D01*
X285275Y764947D01*
X285442Y765058D01*
X285554Y765225D01*
X285696Y765367D01*
X285772Y765553D01*
X285884Y765720D01*
X285923Y765917D01*
X286000Y766102D01*
Y766303D01*
X286039Y766500D01*
X286000Y766697D01*
Y766898D01*
X285923Y767083D01*
X285884Y767280D01*
X285772Y767447D01*
X285696Y767633D01*
X285554Y767775D01*
X285442Y767942D01*
X243039Y810345D01*
Y864000D01*
X243000Y864197D01*
Y864398D01*
X242923Y864583D01*
X242884Y864780D01*
X242772Y864947D01*
X242695Y865133D01*
X242553Y865275D01*
X242442Y865442D01*
X242275Y865553D01*
X242133Y865695D01*
X241947Y865772D01*
X241780Y865884D01*
X241583Y865923D01*
X241398Y866000D01*
X241197D01*
X241000Y866039D01*
D02*
G37*
G36*
X169180Y741157D02*
X167820D01*
X166486Y740892D01*
X165229Y740372D01*
X164098Y739616D01*
X163136Y738654D01*
X162380Y737523D01*
X161860Y736266D01*
X161594Y734932D01*
Y733572D01*
X161860Y732238D01*
X162380Y730981D01*
X163136Y729850D01*
X164098Y728888D01*
X165229Y728132D01*
X166486Y727612D01*
X167820Y727347D01*
X169180D01*
X170514Y727612D01*
X171771Y728132D01*
X172902Y728888D01*
X173864Y729850D01*
X174620Y730981D01*
X175140Y732238D01*
X175406Y733572D01*
Y734932D01*
X175140Y736266D01*
X174620Y737523D01*
X173864Y738654D01*
X172902Y739616D01*
X171771Y740372D01*
X170514Y740892D01*
X169180Y741157D01*
D02*
G37*
G36*
X399898Y828500D02*
X399102D01*
X398367Y828195D01*
X397804Y827633D01*
X397500Y826898D01*
Y826102D01*
X397804Y825367D01*
X398367Y824804D01*
X399102Y824500D01*
X399898D01*
X400633Y824804D01*
X401195Y825367D01*
X401500Y826102D01*
Y826898D01*
X401195Y827633D01*
X400633Y828195D01*
X399898Y828500D01*
D02*
G37*
G36*
X397150Y786437D02*
X395850D01*
X394594Y786101D01*
X393469Y785451D01*
X392549Y784531D01*
X391899Y783406D01*
X391563Y782150D01*
Y780850D01*
X391899Y779594D01*
X392549Y778469D01*
X393469Y777549D01*
X394594Y776899D01*
X395850Y776563D01*
X397150D01*
X398406Y776899D01*
X399531Y777549D01*
X400451Y778469D01*
X401101Y779594D01*
X401437Y780850D01*
Y782150D01*
X401101Y783406D01*
X400451Y784531D01*
X399531Y785451D01*
X398406Y786101D01*
X397150Y786437D01*
D02*
G37*
G36*
X397898Y965000D02*
X397102D01*
X396367Y964695D01*
X395805Y964133D01*
X395500Y963398D01*
Y962602D01*
X395805Y961867D01*
X396367Y961304D01*
X397102Y961000D01*
X397898D01*
X398633Y961304D01*
X399196Y961867D01*
X399500Y962602D01*
Y963398D01*
X399196Y964133D01*
X398633Y964695D01*
X397898Y965000D01*
D02*
G37*
G36*
X397150Y930437D02*
X395850D01*
X394594Y930101D01*
X393469Y929451D01*
X392549Y928531D01*
X391899Y927406D01*
X391563Y926150D01*
Y924850D01*
X391899Y923594D01*
X392549Y922469D01*
X393469Y921549D01*
X394594Y920899D01*
X395850Y920563D01*
X397150D01*
X398406Y920899D01*
X399531Y921549D01*
X400451Y922469D01*
X401101Y923594D01*
X401437Y924850D01*
Y926150D01*
X401101Y927406D01*
X400451Y928531D01*
X399531Y929451D01*
X398406Y930101D01*
X397150Y930437D01*
D02*
G37*
%LPD*%
D60*
X241000Y809500D02*
Y864000D01*
Y809500D02*
X284000Y766500D01*
D65*
X165354Y878268D02*
D03*
Y868268D02*
D03*
Y858268D02*
D03*
Y848268D02*
D03*
D66*
Y838268D02*
D03*
D67*
X181409Y967500D02*
D03*
D68*
X222590D02*
D03*
X396500Y781500D02*
D03*
X418500Y865500D02*
D03*
X396500Y925500D02*
D03*
X418500Y732500D02*
D03*
X170000Y937500D02*
D03*
Y911000D02*
D03*
Y774500D02*
D03*
Y799500D02*
D03*
D69*
X461000Y984000D02*
D03*
Y732500D02*
D03*
D70*
X481000Y984000D02*
D03*
Y732500D02*
D03*
D71*
X587000Y905512D02*
D03*
Y812992D02*
D03*
D72*
X614173Y984252D02*
D03*
Y734252D02*
D03*
X168500D02*
D03*
Y984252D02*
D03*
D73*
X536000Y985000D02*
D03*
X516000D02*
D03*
D74*
X368500Y756000D02*
D03*
X364500Y737000D02*
D03*
X359000D02*
D03*
X383500Y760500D02*
D03*
X375000Y761500D02*
D03*
X375500Y768500D02*
D03*
X358000Y781500D02*
D03*
X324000Y737000D02*
D03*
X319000D02*
D03*
X293000Y747000D02*
D03*
X290500Y751500D02*
D03*
X304500Y758000D02*
D03*
X300000Y760000D02*
D03*
X310500Y771500D02*
D03*
X314500D02*
D03*
X359000Y917500D02*
D03*
X385000Y897000D02*
D03*
X380000Y900500D02*
D03*
Y906500D02*
D03*
X368000Y892000D02*
D03*
X363000Y872000D02*
D03*
X359000D02*
D03*
X322000Y872500D02*
D03*
X317500D02*
D03*
X291000Y882500D02*
D03*
X287500Y887500D02*
D03*
X314500Y907000D02*
D03*
X310000D02*
D03*
X302500Y892000D02*
D03*
X298500Y895500D02*
D03*
D76*
X399500Y819500D02*
D03*
Y826500D02*
D03*
X397480Y955762D02*
D03*
X397500Y963000D02*
D03*
X289000Y955500D02*
D03*
X289500Y819500D02*
D03*
X289488Y826681D02*
D03*
X289000Y962500D02*
D03*
X232000Y906500D02*
D03*
X248500Y878500D02*
D03*
X266459Y905781D02*
D03*
X264000Y854500D02*
D03*
X250000Y843000D02*
D03*
X241000Y864000D02*
D03*
X284000Y766500D02*
D03*
D77*
X464500Y950500D02*
D03*
Y946000D02*
D03*
Y941500D02*
D03*
Y937000D02*
D03*
X486500D02*
D03*
Y941500D02*
D03*
Y946000D02*
D03*
Y950500D02*
D03*
X479167D02*
D03*
Y946000D02*
D03*
Y941500D02*
D03*
Y937000D02*
D03*
X471833D02*
D03*
Y941500D02*
D03*
Y946000D02*
D03*
Y950500D02*
D03*
X485100Y790812D02*
D03*
X467700Y796000D02*
D03*
X473500Y790812D02*
D03*
Y796000D02*
D03*
Y801188D02*
D03*
X479300D02*
D03*
X485100D02*
D03*
X479300Y796000D02*
D03*
Y790812D02*
D03*
X485100Y796000D02*
D03*
X467700Y790812D02*
D03*
Y801188D02*
D03*
X522000Y955500D02*
D03*
X530000D02*
D03*
X538000D02*
D03*
X546500D02*
D03*
Y951000D02*
D03*
X538000D02*
D03*
X522000D02*
D03*
X546500Y946500D02*
D03*
X538000D02*
D03*
X522000D02*
D03*
X546500Y942000D02*
D03*
X530000Y951000D02*
D03*
Y946500D02*
D03*
Y942000D02*
D03*
X538000D02*
D03*
X522000D02*
D03*
X493500Y821437D02*
D03*
Y831812D02*
D03*
Y826625D02*
D03*
X487700D02*
D03*
X481900D02*
D03*
X487700Y837000D02*
D03*
Y831812D02*
D03*
Y821437D02*
D03*
X493500Y837000D02*
D03*
X481900Y821437D02*
D03*
X477333Y898500D02*
D03*
X488500Y884500D02*
D03*
Y889167D02*
D03*
X477333D02*
D03*
Y884500D02*
D03*
X499667Y898500D02*
D03*
Y893833D02*
D03*
X488500D02*
D03*
X499667Y889167D02*
D03*
Y884500D02*
D03*
X488500Y898500D02*
D03*
X466167Y889167D02*
D03*
X477333Y893833D02*
D03*
X466167D02*
D03*
Y898500D02*
D03*
Y884500D02*
D03*
X476900Y751000D02*
D03*
X461300D02*
D03*
X501500Y759500D02*
D03*
X508500Y766500D02*
D03*
X505000Y763000D02*
D03*
X469100Y751000D02*
D03*
X492500D02*
D03*
X484700D02*
D03*
X470300Y821437D02*
D03*
Y826625D02*
D03*
X464500D02*
D03*
X476100D02*
D03*
Y821437D02*
D03*
X464500D02*
D03*
X476100Y831812D02*
D03*
X464500Y837000D02*
D03*
X476100D02*
D03*
X481900D02*
D03*
Y831812D02*
D03*
X470300Y837000D02*
D03*
Y831812D02*
D03*
X464500D02*
D03*
X455000Y898500D02*
D03*
X453500Y751000D02*
D03*
X455000Y889167D02*
D03*
Y893833D02*
D03*
Y884500D02*
D03*
M02*
