G04*
G04 #@! TF.GenerationSoftware,Altium Limited,Altium Designer,23.2.1 (34)*
G04*
G04 Layer_Color=255*
%FSLAX25Y25*%
%MOIN*%
G70*
G04*
G04 #@! TF.SameCoordinates,7D5924AB-2F56-4A22-BAC2-9F5A3F461BF2*
G04*
G04*
G04 #@! TF.FilePolarity,Positive*
G04*
G01*
G75*
%ADD65O,0.08000X0.07000*%
%ADD66R,0.08000X0.07000*%
%ADD67R,0.07874X0.07874*%
%ADD68C,0.07874*%
%ADD69C,0.06673*%
%ADD70R,0.06673X0.06673*%
%ADD71C,0.55118*%
%ADD72C,0.11811*%
%ADD73O,0.07874X0.11811*%
%ADD74C,0.03150*%
D65*
X165354Y878268D02*
D03*
Y868268D02*
D03*
Y858268D02*
D03*
Y848268D02*
D03*
D66*
Y838268D02*
D03*
D67*
X181409Y967500D02*
D03*
D68*
X222590D02*
D03*
X396500Y781500D02*
D03*
X418500Y865500D02*
D03*
X396500Y925500D02*
D03*
X418500Y732500D02*
D03*
X170000Y937500D02*
D03*
Y911000D02*
D03*
Y774500D02*
D03*
Y799500D02*
D03*
D69*
X461000Y984000D02*
D03*
Y732500D02*
D03*
D70*
X481000Y984000D02*
D03*
Y732500D02*
D03*
D71*
X587000Y905512D02*
D03*
Y812992D02*
D03*
D72*
X614173Y984252D02*
D03*
Y734252D02*
D03*
X168500D02*
D03*
Y984252D02*
D03*
D73*
X536000Y985000D02*
D03*
X516000D02*
D03*
D74*
X368500Y756000D02*
D03*
X364500Y737000D02*
D03*
X359000D02*
D03*
X383500Y760500D02*
D03*
X375000Y761500D02*
D03*
X375500Y768500D02*
D03*
X358000Y781500D02*
D03*
X324000Y737000D02*
D03*
X319000D02*
D03*
X293000Y747000D02*
D03*
X290500Y751500D02*
D03*
X304500Y758000D02*
D03*
X300000Y760000D02*
D03*
X310500Y771500D02*
D03*
X314500D02*
D03*
X359000Y917500D02*
D03*
X385000Y897000D02*
D03*
X380000Y900500D02*
D03*
Y906500D02*
D03*
X368000Y892000D02*
D03*
X363000Y872000D02*
D03*
X359000D02*
D03*
X322000Y872500D02*
D03*
X317500D02*
D03*
X291000Y882500D02*
D03*
X287500Y887500D02*
D03*
X314500Y907000D02*
D03*
X310000D02*
D03*
X302500Y892000D02*
D03*
X298500Y895500D02*
D03*
M02*
