G04*
G04 #@! TF.GenerationSoftware,Altium Limited,Altium Designer,23.2.1 (34)*
G04*
G04 Layer_Color=2752767*
%FSLAX25Y25*%
%MOIN*%
G70*
G04*
G04 #@! TF.SameCoordinates,7025FEF6-FA34-491F-A14F-1FF2019D33B2*
G04*
G04*
G04 #@! TF.FilePolarity,Positive*
G04*
G01*
G75*
%ADD10C,0.01000*%
%ADD11C,0.00500*%
%ADD12C,0.00667*%
%ADD13C,0.00400*%
D10*
X626441Y721410D02*
Y997000D01*
X154000Y721410D02*
X626441D01*
X154000D02*
Y997000D01*
X626441D01*
D11*
X163354Y876268D02*
Y880268D01*
X167354D01*
Y876268D01*
X163354D01*
Y866268D02*
Y870268D01*
X167354D01*
Y866268D01*
X163354D01*
Y856268D02*
Y860268D01*
X167354D01*
Y856268D01*
X163354D01*
Y836268D02*
Y840268D01*
X167354D01*
Y836268D01*
X163354D01*
Y846268D02*
Y850268D01*
X167354D01*
Y846268D01*
X163354D01*
X181409Y965500D02*
X179409Y969500D01*
X183409D01*
X181409Y965500D01*
X222590D02*
X220590Y969500D01*
X224590D01*
X222590Y965500D01*
X461000Y982000D02*
X462000Y983000D01*
X463000D01*
X462000Y984000D01*
X463000Y985000D01*
X462000D01*
X461000Y986000D01*
X460000Y985000D01*
X459000D01*
X460000Y984000D01*
X459000Y983000D01*
X460000D01*
X461000Y982000D01*
X481000D02*
X482000Y983000D01*
X483000D01*
X482000Y984000D01*
X483000Y985000D01*
X482000D01*
X481000Y986000D01*
X480000Y985000D01*
X479000D01*
X480000Y984000D01*
X479000Y983000D01*
X480000D01*
X481000Y982000D01*
Y730500D02*
X482000Y731500D01*
X483000D01*
X482000Y732500D01*
X483000Y733500D01*
X482000D01*
X481000Y734500D01*
X480000Y733500D01*
X479000D01*
X480000Y732500D01*
X479000Y731500D01*
X480000D01*
X481000Y730500D01*
X461000D02*
X462000Y731500D01*
X463000D01*
X462000Y732500D01*
X463000Y733500D01*
X462000D01*
X461000Y734500D01*
X460000Y733500D01*
X459000D01*
X460000Y732500D01*
X459000Y731500D01*
X460000D01*
X461000Y730500D01*
X612173Y984252D02*
X614173Y986252D01*
X616173Y984252D01*
X614173Y982252D01*
X612173Y984252D01*
X534000Y983000D02*
X535000Y985000D01*
X534000Y987000D01*
X536000Y986000D01*
X538000Y987000D01*
X537000Y985000D01*
X538000Y983000D01*
X536000Y984000D01*
X534000Y983000D01*
X514000D02*
X515000Y985000D01*
X514000Y987000D01*
X516000Y986000D01*
X518000Y987000D01*
X517000Y985000D01*
X518000Y983000D01*
X516000Y984000D01*
X514000Y983000D01*
X612173Y734252D02*
X614173Y736252D01*
X616173Y734252D01*
X614173Y732252D01*
X612173Y734252D01*
X166500D02*
X168500Y736252D01*
X170500Y734252D01*
X168500Y732252D01*
X166500Y734252D01*
Y984252D02*
X168500Y986252D01*
X170500Y984252D01*
X168500Y982252D01*
X166500Y984252D01*
X394500Y779500D02*
Y783500D01*
X398500D01*
Y779500D01*
X394500D01*
X416500Y863500D02*
Y867500D01*
X420500D01*
Y863500D01*
X416500D01*
X394500Y923500D02*
Y927500D01*
X398500D01*
Y923500D01*
X394500D01*
X416500Y730500D02*
Y734500D01*
X420500D01*
Y730500D01*
X416500D01*
X367500Y755000D02*
Y754000D01*
X369500D01*
Y755000D01*
X370500D01*
Y757000D01*
X369500D01*
Y758000D01*
X367500D01*
Y757000D01*
X366500D01*
Y755000D01*
X367500D01*
X363500Y736000D02*
Y735000D01*
X365500D01*
Y736000D01*
X366500D01*
Y738000D01*
X365500D01*
Y739000D01*
X363500D01*
Y738000D01*
X362500D01*
Y736000D01*
X363500D01*
X358000D02*
Y735000D01*
X360000D01*
Y736000D01*
X361000D01*
Y738000D01*
X360000D01*
Y739000D01*
X358000D01*
Y738000D01*
X357000D01*
Y736000D01*
X358000D01*
X382500Y759500D02*
Y758500D01*
X384500D01*
Y759500D01*
X385500D01*
Y761500D01*
X384500D01*
Y762500D01*
X382500D01*
Y761500D01*
X381500D01*
Y759500D01*
X382500D01*
X374000Y760500D02*
Y759500D01*
X376000D01*
Y760500D01*
X377000D01*
Y762500D01*
X376000D01*
Y763500D01*
X374000D01*
Y762500D01*
X373000D01*
Y760500D01*
X374000D01*
X374500Y767500D02*
Y766500D01*
X376500D01*
Y767500D01*
X377500D01*
Y769500D01*
X376500D01*
Y770500D01*
X374500D01*
Y769500D01*
X373500D01*
Y767500D01*
X374500D01*
X357000Y780500D02*
Y779500D01*
X359000D01*
Y780500D01*
X360000D01*
Y782500D01*
X359000D01*
Y783500D01*
X357000D01*
Y782500D01*
X356000D01*
Y780500D01*
X357000D01*
X323000Y736000D02*
Y735000D01*
X325000D01*
Y736000D01*
X326000D01*
Y738000D01*
X325000D01*
Y739000D01*
X323000D01*
Y738000D01*
X322000D01*
Y736000D01*
X323000D01*
X318000D02*
Y735000D01*
X320000D01*
Y736000D01*
X321000D01*
Y738000D01*
X320000D01*
Y739000D01*
X318000D01*
Y738000D01*
X317000D01*
Y736000D01*
X318000D01*
X292000Y746000D02*
Y745000D01*
X294000D01*
Y746000D01*
X295000D01*
Y748000D01*
X294000D01*
Y749000D01*
X292000D01*
Y748000D01*
X291000D01*
Y746000D01*
X292000D01*
X289500Y750500D02*
Y749500D01*
X291500D01*
Y750500D01*
X292500D01*
Y752500D01*
X291500D01*
Y753500D01*
X289500D01*
Y752500D01*
X288500D01*
Y750500D01*
X289500D01*
X303500Y757000D02*
Y756000D01*
X305500D01*
Y757000D01*
X306500D01*
Y759000D01*
X305500D01*
Y760000D01*
X303500D01*
Y759000D01*
X302500D01*
Y757000D01*
X303500D01*
X299000Y759000D02*
Y758000D01*
X301000D01*
Y759000D01*
X302000D01*
Y761000D01*
X301000D01*
Y762000D01*
X299000D01*
Y761000D01*
X298000D01*
Y759000D01*
X299000D01*
X309500Y770500D02*
Y769500D01*
X311500D01*
Y770500D01*
X312500D01*
Y772500D01*
X311500D01*
Y773500D01*
X309500D01*
Y772500D01*
X308500D01*
Y770500D01*
X309500D01*
X313500D02*
Y769500D01*
X315500D01*
Y770500D01*
X316500D01*
Y772500D01*
X315500D01*
Y773500D01*
X313500D01*
Y772500D01*
X312500D01*
Y770500D01*
X313500D01*
X358000Y916500D02*
Y915500D01*
X360000D01*
Y916500D01*
X361000D01*
Y918500D01*
X360000D01*
Y919500D01*
X358000D01*
Y918500D01*
X357000D01*
Y916500D01*
X358000D01*
X384000Y896000D02*
Y895000D01*
X386000D01*
Y896000D01*
X387000D01*
Y898000D01*
X386000D01*
Y899000D01*
X384000D01*
Y898000D01*
X383000D01*
Y896000D01*
X384000D01*
X379000Y899500D02*
Y898500D01*
X381000D01*
Y899500D01*
X382000D01*
Y901500D01*
X381000D01*
Y902500D01*
X379000D01*
Y901500D01*
X378000D01*
Y899500D01*
X379000D01*
Y905500D02*
Y904500D01*
X381000D01*
Y905500D01*
X382000D01*
Y907500D01*
X381000D01*
Y908500D01*
X379000D01*
Y907500D01*
X378000D01*
Y905500D01*
X379000D01*
X367000Y891000D02*
Y890000D01*
X369000D01*
Y891000D01*
X370000D01*
Y893000D01*
X369000D01*
Y894000D01*
X367000D01*
Y893000D01*
X366000D01*
Y891000D01*
X367000D01*
X362000Y871000D02*
Y870000D01*
X364000D01*
Y871000D01*
X365000D01*
Y873000D01*
X364000D01*
Y874000D01*
X362000D01*
Y873000D01*
X361000D01*
Y871000D01*
X362000D01*
X358000D02*
Y870000D01*
X360000D01*
Y871000D01*
X361000D01*
Y873000D01*
X360000D01*
Y874000D01*
X358000D01*
Y873000D01*
X357000D01*
Y871000D01*
X358000D01*
X321000Y871500D02*
Y870500D01*
X323000D01*
Y871500D01*
X324000D01*
Y873500D01*
X323000D01*
Y874500D01*
X321000D01*
Y873500D01*
X320000D01*
Y871500D01*
X321000D01*
X316500D02*
Y870500D01*
X318500D01*
Y871500D01*
X319500D01*
Y873500D01*
X318500D01*
Y874500D01*
X316500D01*
Y873500D01*
X315500D01*
Y871500D01*
X316500D01*
X290000Y881500D02*
Y880500D01*
X292000D01*
Y881500D01*
X293000D01*
Y883500D01*
X292000D01*
Y884500D01*
X290000D01*
Y883500D01*
X289000D01*
Y881500D01*
X290000D01*
X286500Y886500D02*
Y885500D01*
X288500D01*
Y886500D01*
X289500D01*
Y888500D01*
X288500D01*
Y889500D01*
X286500D01*
Y888500D01*
X285500D01*
Y886500D01*
X286500D01*
X313500Y906000D02*
Y905000D01*
X315500D01*
Y906000D01*
X316500D01*
Y908000D01*
X315500D01*
Y909000D01*
X313500D01*
Y908000D01*
X312500D01*
Y906000D01*
X313500D01*
X309000D02*
Y905000D01*
X311000D01*
Y906000D01*
X312000D01*
Y908000D01*
X311000D01*
Y909000D01*
X309000D01*
Y908000D01*
X308000D01*
Y906000D01*
X309000D01*
X301500Y891000D02*
Y890000D01*
X303500D01*
Y891000D01*
X304500D01*
Y893000D01*
X303500D01*
Y894000D01*
X301500D01*
Y893000D01*
X300500D01*
Y891000D01*
X301500D01*
X297500Y894500D02*
Y893500D01*
X299500D01*
Y894500D01*
X300500D01*
Y896500D01*
X299500D01*
Y897500D01*
X297500D01*
Y896500D01*
X296500D01*
Y894500D01*
X297500D01*
X168000Y935500D02*
Y939500D01*
X172000D01*
Y935500D01*
X168000D01*
Y909000D02*
Y913000D01*
X172000D01*
Y909000D01*
X168000D01*
Y772500D02*
Y776500D01*
X172000D01*
Y772500D01*
X168000D01*
Y797500D02*
Y801500D01*
X172000D01*
Y797500D01*
X168000D01*
X397500Y817500D02*
X398500D01*
X399500Y818500D01*
X400500Y817500D01*
X401500D01*
Y818500D01*
X400500Y819500D01*
X401500Y820500D01*
Y821500D01*
X400500D01*
X399500Y820500D01*
X398500Y821500D01*
X397500D01*
Y820500D01*
X398500Y819500D01*
X397500Y818500D01*
Y817500D01*
Y824500D02*
X398500D01*
X399500Y825500D01*
X400500Y824500D01*
X401500D01*
Y825500D01*
X400500Y826500D01*
X401500Y827500D01*
Y828500D01*
X400500D01*
X399500Y827500D01*
X398500Y828500D01*
X397500D01*
Y827500D01*
X398500Y826500D01*
X397500Y825500D01*
Y824500D01*
X395480Y953761D02*
X396480D01*
X397480Y954762D01*
X398480Y953761D01*
X399480D01*
Y954762D01*
X398480Y955762D01*
X399480Y956761D01*
Y957761D01*
X398480D01*
X397480Y956761D01*
X396480Y957761D01*
X395480D01*
Y956761D01*
X396480Y955762D01*
X395480Y954762D01*
Y953761D01*
X395500Y961000D02*
X396500D01*
X397500Y962000D01*
X398500Y961000D01*
X399500D01*
Y962000D01*
X398500Y963000D01*
X399500Y964000D01*
Y965000D01*
X398500D01*
X397500Y964000D01*
X396500Y965000D01*
X395500D01*
Y964000D01*
X396500Y963000D01*
X395500Y962000D01*
Y961000D01*
X287000Y953500D02*
X288000D01*
X289000Y954500D01*
X290000Y953500D01*
X291000D01*
Y954500D01*
X290000Y955500D01*
X291000Y956500D01*
Y957500D01*
X290000D01*
X289000Y956500D01*
X288000Y957500D01*
X287000D01*
Y956500D01*
X288000Y955500D01*
X287000Y954500D01*
Y953500D01*
X287500Y817500D02*
X288500D01*
X289500Y818500D01*
X290500Y817500D01*
X291500D01*
Y818500D01*
X290500Y819500D01*
X291500Y820500D01*
Y821500D01*
X290500D01*
X289500Y820500D01*
X288500Y821500D01*
X287500D01*
Y820500D01*
X288500Y819500D01*
X287500Y818500D01*
Y817500D01*
X287488Y824681D02*
X288488D01*
X289488Y825681D01*
X290488Y824681D01*
X291488D01*
Y825681D01*
X290488Y826681D01*
X291488Y827681D01*
Y828681D01*
X290488D01*
X289488Y827681D01*
X288488Y828681D01*
X287488D01*
Y827681D01*
X288488Y826681D01*
X287488Y825681D01*
Y824681D01*
X287000Y960500D02*
X288000D01*
X289000Y961500D01*
X290000Y960500D01*
X291000D01*
Y961500D01*
X290000Y962500D01*
X291000Y963500D01*
Y964500D01*
X290000D01*
X289000Y963500D01*
X288000Y964500D01*
X287000D01*
Y963500D01*
X288000Y962500D01*
X287000Y961500D01*
Y960500D01*
X520000Y953500D02*
Y957500D01*
X524000D01*
Y953500D01*
X520000D01*
X520800Y954300D02*
Y956700D01*
X523200D01*
Y954300D01*
X520800D01*
X528000Y953500D02*
Y957500D01*
X532000D01*
Y953500D01*
X528000D01*
X528800Y954300D02*
Y956700D01*
X531200D01*
Y954300D01*
X528800D01*
X536000Y953500D02*
Y957500D01*
X540000D01*
Y953500D01*
X536000D01*
X536800Y954300D02*
Y956700D01*
X539200D01*
Y954300D01*
X536800D01*
X544500Y953500D02*
Y957500D01*
X548500D01*
Y953500D01*
X544500D01*
X545300Y954300D02*
Y956700D01*
X547700D01*
Y954300D01*
X545300D01*
X544500Y949000D02*
Y953000D01*
X548500D01*
Y949000D01*
X544500D01*
X545300Y949800D02*
Y952200D01*
X547700D01*
Y949800D01*
X545300D01*
X536000Y949000D02*
Y953000D01*
X540000D01*
Y949000D01*
X536000D01*
X536800Y949800D02*
Y952200D01*
X539200D01*
Y949800D01*
X536800D01*
X520000Y949000D02*
Y953000D01*
X524000D01*
Y949000D01*
X520000D01*
X520800Y949800D02*
Y952200D01*
X523200D01*
Y949800D01*
X520800D01*
X544500Y944500D02*
Y948500D01*
X548500D01*
Y944500D01*
X544500D01*
X545300Y945300D02*
Y947700D01*
X547700D01*
Y945300D01*
X545300D01*
X536000Y944500D02*
Y948500D01*
X540000D01*
Y944500D01*
X536000D01*
X536800Y945300D02*
Y947700D01*
X539200D01*
Y945300D01*
X536800D01*
X520000Y944500D02*
Y948500D01*
X524000D01*
Y944500D01*
X520000D01*
X520800Y945300D02*
Y947700D01*
X523200D01*
Y945300D01*
X520800D01*
X544500Y940000D02*
Y944000D01*
X548500D01*
Y940000D01*
X544500D01*
X545300Y940800D02*
Y943200D01*
X547700D01*
Y940800D01*
X545300D01*
X528000Y949000D02*
Y953000D01*
X532000D01*
Y949000D01*
X528000D01*
X528800Y949800D02*
Y952200D01*
X531200D01*
Y949800D01*
X528800D01*
X528000Y944500D02*
Y948500D01*
X532000D01*
Y944500D01*
X528000D01*
X528800Y945300D02*
Y947700D01*
X531200D01*
Y945300D01*
X528800D01*
X528000Y940000D02*
Y944000D01*
X532000D01*
Y940000D01*
X528000D01*
X528800Y940800D02*
Y943200D01*
X531200D01*
Y940800D01*
X528800D01*
X536000Y940000D02*
Y944000D01*
X540000D01*
Y940000D01*
X536000D01*
X536800Y940800D02*
Y943200D01*
X539200D01*
Y940800D01*
X536800D01*
X520000Y940000D02*
Y944000D01*
X524000D01*
Y940000D01*
X520000D01*
X520800Y940800D02*
Y943200D01*
X523200D01*
Y940800D01*
X520800D01*
X491500Y819438D02*
Y823438D01*
X495500D01*
Y819438D01*
X491500D01*
X492300Y820238D02*
Y822637D01*
X494700D01*
Y820238D01*
X492300D01*
X491500Y829813D02*
Y833813D01*
X495500D01*
Y829813D01*
X491500D01*
X492300Y830612D02*
Y833012D01*
X494700D01*
Y830612D01*
X492300D01*
X491500Y824625D02*
Y828625D01*
X495500D01*
Y824625D01*
X491500D01*
X492300Y825425D02*
Y827825D01*
X494700D01*
Y825425D01*
X492300D01*
X485700Y824625D02*
Y828625D01*
X489700D01*
Y824625D01*
X485700D01*
X486500Y825425D02*
Y827825D01*
X488900D01*
Y825425D01*
X486500D01*
X479900Y824625D02*
Y828625D01*
X483900D01*
Y824625D01*
X479900D01*
X480700Y825425D02*
Y827825D01*
X483100D01*
Y825425D01*
X480700D01*
X485700Y835000D02*
Y839000D01*
X489700D01*
Y835000D01*
X485700D01*
X486500Y835800D02*
Y838200D01*
X488900D01*
Y835800D01*
X486500D01*
X485700Y829813D02*
Y833813D01*
X489700D01*
Y829813D01*
X485700D01*
X486500Y830612D02*
Y833012D01*
X488900D01*
Y830612D01*
X486500D01*
X485700Y819438D02*
Y823438D01*
X489700D01*
Y819438D01*
X485700D01*
X486500Y820238D02*
Y822637D01*
X488900D01*
Y820238D01*
X486500D01*
X491500Y835000D02*
Y839000D01*
X495500D01*
Y835000D01*
X491500D01*
X492300Y835800D02*
Y838200D01*
X494700D01*
Y835800D01*
X492300D01*
X479900Y819438D02*
Y823438D01*
X483900D01*
Y819438D01*
X479900D01*
X480700Y820238D02*
Y822637D01*
X483100D01*
Y820238D01*
X480700D01*
X475333Y896500D02*
Y900500D01*
X479333D01*
Y896500D01*
X475333D01*
X476133Y897300D02*
Y899700D01*
X478533D01*
Y897300D01*
X476133D01*
X486500Y882500D02*
Y886500D01*
X490500D01*
Y882500D01*
X486500D01*
X487300Y883300D02*
Y885700D01*
X489700D01*
Y883300D01*
X487300D01*
X486500Y887167D02*
Y891167D01*
X490500D01*
Y887167D01*
X486500D01*
X487300Y887967D02*
Y890367D01*
X489700D01*
Y887967D01*
X487300D01*
X475333Y887167D02*
Y891167D01*
X479333D01*
Y887167D01*
X475333D01*
X476133Y887967D02*
Y890367D01*
X478533D01*
Y887967D01*
X476133D01*
X475333Y882500D02*
Y886500D01*
X479333D01*
Y882500D01*
X475333D01*
X476133Y883300D02*
Y885700D01*
X478533D01*
Y883300D01*
X476133D01*
X497667Y896500D02*
Y900500D01*
X501667D01*
Y896500D01*
X497667D01*
X498467Y897300D02*
Y899700D01*
X500867D01*
Y897300D01*
X498467D01*
X497667Y891833D02*
Y895833D01*
X501667D01*
Y891833D01*
X497667D01*
X498467Y892633D02*
Y895033D01*
X500867D01*
Y892633D01*
X498467D01*
X486500Y891833D02*
Y895833D01*
X490500D01*
Y891833D01*
X486500D01*
X487300Y892633D02*
Y895033D01*
X489700D01*
Y892633D01*
X487300D01*
X497667Y887167D02*
Y891167D01*
X501667D01*
Y887167D01*
X497667D01*
X498467Y887967D02*
Y890367D01*
X500867D01*
Y887967D01*
X498467D01*
X497667Y882500D02*
Y886500D01*
X501667D01*
Y882500D01*
X497667D01*
X498467Y883300D02*
Y885700D01*
X500867D01*
Y883300D01*
X498467D01*
X486500Y896500D02*
Y900500D01*
X490500D01*
Y896500D01*
X486500D01*
X487300Y897300D02*
Y899700D01*
X489700D01*
Y897300D01*
X487300D01*
X464167Y887167D02*
Y891167D01*
X468167D01*
Y887167D01*
X464167D01*
X464967Y887967D02*
Y890367D01*
X467367D01*
Y887967D01*
X464967D01*
X475333Y891833D02*
Y895833D01*
X479333D01*
Y891833D01*
X475333D01*
X476133Y892633D02*
Y895033D01*
X478533D01*
Y892633D01*
X476133D01*
X464167Y891833D02*
Y895833D01*
X468167D01*
Y891833D01*
X464167D01*
X464967Y892633D02*
Y895033D01*
X467367D01*
Y892633D01*
X464967D01*
X464167Y896500D02*
Y900500D01*
X468167D01*
Y896500D01*
X464167D01*
X464967Y897300D02*
Y899700D01*
X467367D01*
Y897300D01*
X464967D01*
X464167Y882500D02*
Y886500D01*
X468167D01*
Y882500D01*
X464167D01*
X464967Y883300D02*
Y885700D01*
X467367D01*
Y883300D01*
X464967D01*
X474900Y749000D02*
Y753000D01*
X478900D01*
Y749000D01*
X474900D01*
X475700Y749800D02*
Y752200D01*
X478100D01*
Y749800D01*
X475700D01*
X459300Y749000D02*
Y753000D01*
X463300D01*
Y749000D01*
X459300D01*
X460100Y749800D02*
Y752200D01*
X462500D01*
Y749800D01*
X460100D01*
X499500Y757500D02*
Y761500D01*
X503500D01*
Y757500D01*
X499500D01*
X500300Y758300D02*
Y760700D01*
X502700D01*
Y758300D01*
X500300D01*
X506500Y764500D02*
Y768500D01*
X510500D01*
Y764500D01*
X506500D01*
X507300Y765300D02*
Y767700D01*
X509700D01*
Y765300D01*
X507300D01*
X503000Y761000D02*
Y765000D01*
X507000D01*
Y761000D01*
X503000D01*
X503800Y761800D02*
Y764200D01*
X506200D01*
Y761800D01*
X503800D01*
X467100Y749000D02*
Y753000D01*
X471100D01*
Y749000D01*
X467100D01*
X467900Y749800D02*
Y752200D01*
X470300D01*
Y749800D01*
X467900D01*
X490500Y749000D02*
Y753000D01*
X494500D01*
Y749000D01*
X490500D01*
X491300Y749800D02*
Y752200D01*
X493700D01*
Y749800D01*
X491300D01*
X482700Y749000D02*
Y753000D01*
X486700D01*
Y749000D01*
X482700D01*
X483500Y749800D02*
Y752200D01*
X485900D01*
Y749800D01*
X483500D01*
X468300Y819438D02*
Y823438D01*
X472300D01*
Y819438D01*
X468300D01*
X469100Y820238D02*
Y822637D01*
X471500D01*
Y820238D01*
X469100D01*
X468300Y824625D02*
Y828625D01*
X472300D01*
Y824625D01*
X468300D01*
X469100Y825425D02*
Y827825D01*
X471500D01*
Y825425D01*
X469100D01*
X462500Y824625D02*
Y828625D01*
X466500D01*
Y824625D01*
X462500D01*
X463300Y825425D02*
Y827825D01*
X465700D01*
Y825425D01*
X463300D01*
X474100Y824625D02*
Y828625D01*
X478100D01*
Y824625D01*
X474100D01*
X474900Y825425D02*
Y827825D01*
X477300D01*
Y825425D01*
X474900D01*
X474100Y819438D02*
Y823438D01*
X478100D01*
Y819438D01*
X474100D01*
X474900Y820238D02*
Y822637D01*
X477300D01*
Y820238D01*
X474900D01*
X462500Y819438D02*
Y823438D01*
X466500D01*
Y819438D01*
X462500D01*
X463300Y820238D02*
Y822637D01*
X465700D01*
Y820238D01*
X463300D01*
X474100Y829813D02*
Y833813D01*
X478100D01*
Y829813D01*
X474100D01*
X474900Y830612D02*
Y833012D01*
X477300D01*
Y830612D01*
X474900D01*
X462500Y835000D02*
Y839000D01*
X466500D01*
Y835000D01*
X462500D01*
X463300Y835800D02*
Y838200D01*
X465700D01*
Y835800D01*
X463300D01*
X474100Y835000D02*
Y839000D01*
X478100D01*
Y835000D01*
X474100D01*
X474900Y835800D02*
Y838200D01*
X477300D01*
Y835800D01*
X474900D01*
X479900Y835000D02*
Y839000D01*
X483900D01*
Y835000D01*
X479900D01*
X480700Y835800D02*
Y838200D01*
X483100D01*
Y835800D01*
X480700D01*
X479900Y829813D02*
Y833813D01*
X483900D01*
Y829813D01*
X479900D01*
X480700Y830612D02*
Y833012D01*
X483100D01*
Y830612D01*
X480700D01*
X468300Y835000D02*
Y839000D01*
X472300D01*
Y835000D01*
X468300D01*
X469100Y835800D02*
Y838200D01*
X471500D01*
Y835800D01*
X469100D01*
X468300Y829813D02*
Y833813D01*
X472300D01*
Y829813D01*
X468300D01*
X469100Y830612D02*
Y833012D01*
X471500D01*
Y830612D01*
X469100D01*
X462500Y829813D02*
Y833813D01*
X466500D01*
Y829813D01*
X462500D01*
X463300Y830612D02*
Y833012D01*
X465700D01*
Y830612D01*
X463300D01*
X453000Y896500D02*
Y900500D01*
X457000D01*
Y896500D01*
X453000D01*
X453800Y897300D02*
Y899700D01*
X456200D01*
Y897300D01*
X453800D01*
X451500Y749000D02*
Y753000D01*
X455500D01*
Y749000D01*
X451500D01*
X452300Y749800D02*
Y752200D01*
X454700D01*
Y749800D01*
X452300D01*
X453000Y887167D02*
Y891167D01*
X457000D01*
Y887167D01*
X453000D01*
X453800Y887967D02*
Y890367D01*
X456200D01*
Y887967D01*
X453800D01*
X453000Y891833D02*
Y895833D01*
X457000D01*
Y891833D01*
X453000D01*
X453800Y892633D02*
Y895033D01*
X456200D01*
Y892633D01*
X453800D01*
X453000Y882500D02*
Y886500D01*
X457000D01*
Y882500D01*
X453000D01*
X453800Y883300D02*
Y885700D01*
X456200D01*
Y883300D01*
X453800D01*
X230000Y904500D02*
X231000D01*
X232000Y905500D01*
X233000Y904500D01*
X234000D01*
Y905500D01*
X233000Y906500D01*
X234000Y907500D01*
Y908500D01*
X233000D01*
X232000Y907500D01*
X231000Y908500D01*
X230000D01*
Y907500D01*
X231000Y906500D01*
X230000Y905500D01*
Y904500D01*
X246500Y876500D02*
X247500D01*
X248500Y877500D01*
X249500Y876500D01*
X250500D01*
Y877500D01*
X249500Y878500D01*
X250500Y879500D01*
Y880500D01*
X249500D01*
X248500Y879500D01*
X247500Y880500D01*
X246500D01*
Y879500D01*
X247500Y878500D01*
X246500Y877500D01*
Y876500D01*
X264459Y903781D02*
X265459D01*
X266459Y904781D01*
X267459Y903781D01*
X268459D01*
Y904781D01*
X267459Y905781D01*
X268459Y906781D01*
Y907781D01*
X267459D01*
X266459Y906781D01*
X265459Y907781D01*
X264459D01*
Y906781D01*
X265459Y905781D01*
X264459Y904781D01*
Y903781D01*
X262000Y852500D02*
X263000D01*
X264000Y853500D01*
X265000Y852500D01*
X266000D01*
Y853500D01*
X265000Y854500D01*
X266000Y855500D01*
Y856500D01*
X265000D01*
X264000Y855500D01*
X263000Y856500D01*
X262000D01*
Y855500D01*
X263000Y854500D01*
X262000Y853500D01*
Y852500D01*
X248000Y841000D02*
X249000D01*
X250000Y842000D01*
X251000Y841000D01*
X252000D01*
Y842000D01*
X251000Y843000D01*
X252000Y844000D01*
Y845000D01*
X251000D01*
X250000Y844000D01*
X249000Y845000D01*
X248000D01*
Y844000D01*
X249000Y843000D01*
X248000Y842000D01*
Y841000D01*
X239000Y862000D02*
X240000D01*
X241000Y863000D01*
X242000Y862000D01*
X243000D01*
Y863000D01*
X242000Y864000D01*
X243000Y865000D01*
Y866000D01*
X242000D01*
X241000Y865000D01*
X240000Y866000D01*
X239000D01*
Y865000D01*
X240000Y864000D01*
X239000Y863000D01*
Y862000D01*
X282000Y764500D02*
X283000D01*
X284000Y765500D01*
X285000Y764500D01*
X286000D01*
Y765500D01*
X285000Y766500D01*
X286000Y767500D01*
Y768500D01*
X285000D01*
X284000Y767500D01*
X283000Y768500D01*
X282000D01*
Y767500D01*
X283000Y766500D01*
X282000Y765500D01*
Y764500D01*
D12*
X589000Y905512D02*
G03*
X589000Y905512I-2000J0D01*
G01*
Y812992D02*
G03*
X589000Y812992I-2000J0D01*
G01*
X466500Y950500D02*
G03*
X466500Y950500I-2000J0D01*
G01*
Y946000D02*
G03*
X466500Y946000I-2000J0D01*
G01*
Y941500D02*
G03*
X466500Y941500I-2000J0D01*
G01*
Y937000D02*
G03*
X466500Y937000I-2000J0D01*
G01*
X488500D02*
G03*
X488500Y937000I-2000J0D01*
G01*
Y941500D02*
G03*
X488500Y941500I-2000J0D01*
G01*
Y946000D02*
G03*
X488500Y946000I-2000J0D01*
G01*
Y950500D02*
G03*
X488500Y950500I-2000J0D01*
G01*
X481167D02*
G03*
X481167Y950500I-2000J0D01*
G01*
Y946000D02*
G03*
X481167Y946000I-2000J0D01*
G01*
Y941500D02*
G03*
X481167Y941500I-2000J0D01*
G01*
Y937000D02*
G03*
X481167Y937000I-2000J0D01*
G01*
X473833D02*
G03*
X473833Y937000I-2000J0D01*
G01*
Y941500D02*
G03*
X473833Y941500I-2000J0D01*
G01*
Y946000D02*
G03*
X473833Y946000I-2000J0D01*
G01*
Y950500D02*
G03*
X473833Y950500I-2000J0D01*
G01*
X487100Y790812D02*
G03*
X487100Y790812I-2000J0D01*
G01*
X469700Y796000D02*
G03*
X469700Y796000I-2000J0D01*
G01*
X475500Y790812D02*
G03*
X475500Y790812I-2000J0D01*
G01*
Y796000D02*
G03*
X475500Y796000I-2000J0D01*
G01*
Y801188D02*
G03*
X475500Y801188I-2000J0D01*
G01*
X481300D02*
G03*
X481300Y801188I-2000J0D01*
G01*
X487100D02*
G03*
X487100Y801188I-2000J0D01*
G01*
X481300Y796000D02*
G03*
X481300Y796000I-2000J0D01*
G01*
Y790812D02*
G03*
X481300Y790812I-2000J0D01*
G01*
X487100Y796000D02*
G03*
X487100Y796000I-2000J0D01*
G01*
X469700Y790812D02*
G03*
X469700Y790812I-2000J0D01*
G01*
Y801188D02*
G03*
X469700Y801188I-2000J0D01*
G01*
D13*
X465700Y950500D02*
G03*
X465700Y950500I-1200J0D01*
G01*
Y946000D02*
G03*
X465700Y946000I-1200J0D01*
G01*
Y941500D02*
G03*
X465700Y941500I-1200J0D01*
G01*
Y937000D02*
G03*
X465700Y937000I-1200J0D01*
G01*
X487700D02*
G03*
X487700Y937000I-1200J0D01*
G01*
Y941500D02*
G03*
X487700Y941500I-1200J0D01*
G01*
Y946000D02*
G03*
X487700Y946000I-1200J0D01*
G01*
Y950500D02*
G03*
X487700Y950500I-1200J0D01*
G01*
X480367D02*
G03*
X480367Y950500I-1200J0D01*
G01*
Y946000D02*
G03*
X480367Y946000I-1200J0D01*
G01*
Y941500D02*
G03*
X480367Y941500I-1200J0D01*
G01*
Y937000D02*
G03*
X480367Y937000I-1200J0D01*
G01*
X473033D02*
G03*
X473033Y937000I-1200J0D01*
G01*
Y941500D02*
G03*
X473033Y941500I-1200J0D01*
G01*
Y946000D02*
G03*
X473033Y946000I-1200J0D01*
G01*
Y950500D02*
G03*
X473033Y950500I-1200J0D01*
G01*
X486300Y790812D02*
G03*
X486300Y790812I-1200J0D01*
G01*
X468900Y796000D02*
G03*
X468900Y796000I-1200J0D01*
G01*
X474700Y790812D02*
G03*
X474700Y790812I-1200J0D01*
G01*
Y796000D02*
G03*
X474700Y796000I-1200J0D01*
G01*
Y801188D02*
G03*
X474700Y801188I-1200J0D01*
G01*
X480500D02*
G03*
X480500Y801188I-1200J0D01*
G01*
X486300D02*
G03*
X486300Y801188I-1200J0D01*
G01*
X480500Y796000D02*
G03*
X480500Y796000I-1200J0D01*
G01*
Y790812D02*
G03*
X480500Y790812I-1200J0D01*
G01*
X486300Y796000D02*
G03*
X486300Y796000I-1200J0D01*
G01*
X468900Y790812D02*
G03*
X468900Y790812I-1200J0D01*
G01*
Y801188D02*
G03*
X468900Y801188I-1200J0D01*
G01*
M02*
