G04*
G04 #@! TF.GenerationSoftware,Altium Limited,Altium Designer,23.2.1 (34)*
G04*
G04 Layer_Color=32768*
%FSLAX25Y25*%
%MOIN*%
G70*
G04*
G04 #@! TF.SameCoordinates,7D5924AB-2F56-4A22-BAC2-9F5A3F461BF2*
G04*
G04*
G04 #@! TF.FilePolarity,Positive*
G04*
G01*
G75*
%ADD10C,0.00394*%
%ADD78C,0.00200*%
G36*
X518063Y778636D02*
Y775880D01*
X525937D01*
Y778636D01*
X518063D01*
D01*
D02*
G37*
G36*
X518299Y793694D02*
Y793596D01*
X525937D01*
Y790840D01*
X518063D01*
Y793360D01*
X517965D01*
X517827Y793498D01*
Y793694D01*
X517965Y793832D01*
X518161D01*
X518299Y793694D01*
D02*
G37*
G36*
X533856Y970035D02*
Y969937D01*
Y969839D01*
X533718Y969701D01*
X533620D01*
Y962063D01*
X530864D01*
Y969937D01*
X533384D01*
Y970035D01*
X533522Y970173D01*
X533718D01*
X533856Y970035D01*
D02*
G37*
G36*
X518660Y962063D02*
X515904D01*
Y969937D01*
X518660D01*
Y962063D01*
D02*
G37*
D10*
X491000Y975929D02*
Y994039D01*
X451000Y975929D02*
X491000D01*
X451000D02*
Y994039D01*
X491000D01*
X451000Y742539D02*
X491000D01*
X451000Y724429D02*
Y742539D01*
Y724429D02*
X491000D01*
Y742539D01*
X312232Y935724D02*
Y982969D01*
X369319D01*
Y935724D02*
Y982969D01*
X312232Y935724D02*
X369319D01*
X312232Y800878D02*
X369319D01*
Y848122D01*
X312232D02*
X369319D01*
X312232Y800878D02*
Y848122D01*
D78*
X518063Y793596D02*
X525937D01*
Y775880D02*
Y793596D01*
X518063Y775880D02*
X525937D01*
X518063D02*
Y793596D01*
X515904Y969937D02*
X533620D01*
X515904Y962063D02*
Y969937D01*
Y962063D02*
X533620D01*
Y969937D01*
M02*
