G04*
G04 #@! TF.GenerationSoftware,Altium Limited,Altium Designer,23.2.1 (34)*
G04*
G04 Layer_Physical_Order=1*
G04 Layer_Color=255*
%FSLAX25Y25*%
%MOIN*%
G70*
G04*
G04 #@! TF.SameCoordinates,7D5924AB-2F56-4A22-BAC2-9F5A3F461BF2*
G04*
G04*
G04 #@! TF.FilePolarity,Positive*
G04*
G01*
G75*
G04:AMPARAMS|DCode=17|XSize=50mil|YSize=24mil|CornerRadius=6mil|HoleSize=0mil|Usage=FLASHONLY|Rotation=180.000|XOffset=0mil|YOffset=0mil|HoleType=Round|Shape=RoundedRectangle|*
%AMROUNDEDRECTD17*
21,1,0.05000,0.01200,0,0,180.0*
21,1,0.03800,0.02400,0,0,180.0*
1,1,0.01200,-0.01900,0.00600*
1,1,0.01200,0.01900,0.00600*
1,1,0.01200,0.01900,-0.00600*
1,1,0.01200,-0.01900,-0.00600*
%
%ADD17ROUNDEDRECTD17*%
G04:AMPARAMS|DCode=18|XSize=55mil|YSize=65mil|CornerRadius=13.75mil|HoleSize=0mil|Usage=FLASHONLY|Rotation=90.000|XOffset=0mil|YOffset=0mil|HoleType=Round|Shape=RoundedRectangle|*
%AMROUNDEDRECTD18*
21,1,0.05500,0.03750,0,0,90.0*
21,1,0.02750,0.06500,0,0,90.0*
1,1,0.02750,0.01875,0.01375*
1,1,0.02750,0.01875,-0.01375*
1,1,0.02750,-0.01875,-0.01375*
1,1,0.02750,-0.01875,0.01375*
%
%ADD18ROUNDEDRECTD18*%
%ADD19R,0.26772X0.05906*%
%ADD20R,0.04724X0.09449*%
%ADD21R,0.02362X0.05906*%
%ADD22R,0.08504X0.07028*%
%ADD23R,0.07028X0.08504*%
%ADD24R,0.03937X0.09055*%
%ADD25R,0.07087X0.02559*%
G04:AMPARAMS|DCode=26|XSize=30mil|YSize=22mil|CornerRadius=5.5mil|HoleSize=0mil|Usage=FLASHONLY|Rotation=90.000|XOffset=0mil|YOffset=0mil|HoleType=Round|Shape=RoundedRectangle|*
%AMROUNDEDRECTD26*
21,1,0.03000,0.01100,0,0,90.0*
21,1,0.01900,0.02200,0,0,90.0*
1,1,0.01100,0.00550,0.00950*
1,1,0.01100,0.00550,-0.00950*
1,1,0.01100,-0.00550,-0.00950*
1,1,0.01100,-0.00550,0.00950*
%
%ADD26ROUNDEDRECTD26*%
G04:AMPARAMS|DCode=27|XSize=50mil|YSize=24mil|CornerRadius=6mil|HoleSize=0mil|Usage=FLASHONLY|Rotation=90.000|XOffset=0mil|YOffset=0mil|HoleType=Round|Shape=RoundedRectangle|*
%AMROUNDEDRECTD27*
21,1,0.05000,0.01200,0,0,90.0*
21,1,0.03800,0.02400,0,0,90.0*
1,1,0.01200,0.00600,0.01900*
1,1,0.01200,0.00600,-0.01900*
1,1,0.01200,-0.00600,-0.01900*
1,1,0.01200,-0.00600,0.01900*
%
%ADD27ROUNDEDRECTD27*%
G04:AMPARAMS|DCode=28|XSize=55mil|YSize=65mil|CornerRadius=13.75mil|HoleSize=0mil|Usage=FLASHONLY|Rotation=180.000|XOffset=0mil|YOffset=0mil|HoleType=Round|Shape=RoundedRectangle|*
%AMROUNDEDRECTD28*
21,1,0.05500,0.03750,0,0,180.0*
21,1,0.02750,0.06500,0,0,180.0*
1,1,0.02750,-0.01375,0.01875*
1,1,0.02750,0.01375,0.01875*
1,1,0.02750,0.01375,-0.01875*
1,1,0.02750,-0.01375,-0.01875*
%
%ADD28ROUNDEDRECTD28*%
%ADD29R,0.04134X0.02362*%
G04:AMPARAMS|DCode=30|XSize=36mil|YSize=80mil|CornerRadius=7.2mil|HoleSize=0mil|Usage=FLASHONLY|Rotation=180.000|XOffset=0mil|YOffset=0mil|HoleType=Round|Shape=RoundedRectangle|*
%AMROUNDEDRECTD30*
21,1,0.03600,0.06560,0,0,180.0*
21,1,0.02160,0.08000,0,0,180.0*
1,1,0.01440,-0.01080,0.03280*
1,1,0.01440,0.01080,0.03280*
1,1,0.01440,0.01080,-0.03280*
1,1,0.01440,-0.01080,-0.03280*
%
%ADD30ROUNDEDRECTD30*%
G04:AMPARAMS|DCode=31|XSize=160mil|YSize=60mil|CornerRadius=9mil|HoleSize=0mil|Usage=FLASHONLY|Rotation=180.000|XOffset=0mil|YOffset=0mil|HoleType=Round|Shape=RoundedRectangle|*
%AMROUNDEDRECTD31*
21,1,0.16000,0.04200,0,0,180.0*
21,1,0.14200,0.06000,0,0,180.0*
1,1,0.01800,-0.07100,0.02100*
1,1,0.01800,0.07100,0.02100*
1,1,0.01800,0.07100,-0.02100*
1,1,0.01800,-0.07100,-0.02100*
%
%ADD31ROUNDEDRECTD31*%
%ADD60C,0.02000*%
%ADD61C,0.03000*%
%ADD62C,0.02500*%
%ADD63C,0.05000*%
%ADD64C,0.04000*%
%ADD65O,0.08000X0.07000*%
%ADD66R,0.08000X0.07000*%
%ADD67R,0.07874X0.07874*%
%ADD68C,0.07874*%
%ADD69C,0.06673*%
%ADD70R,0.06673X0.06673*%
%ADD71C,0.55118*%
%ADD72C,0.11811*%
%ADD73O,0.07874X0.11811*%
%ADD74C,0.03150*%
%ADD75C,0.01575*%
%ADD76C,0.02000*%
%ADD77C,0.03000*%
G36*
X484375Y987168D02*
X484525Y987028D01*
X484775Y986904D01*
X485125Y986797D01*
X485575Y986706D01*
X486125Y986632D01*
X487525Y986533D01*
X489325Y986500D01*
Y981500D01*
X488375Y981492D01*
X485575Y981294D01*
X485125Y981203D01*
X484775Y981096D01*
X484525Y980972D01*
X484375Y980832D01*
X484325Y980675D01*
Y987325D01*
X484375Y987168D01*
D02*
G37*
G36*
X513729Y973104D02*
X514434Y972503D01*
X515137Y971972D01*
X515840Y971513D01*
X516541Y971124D01*
X517241Y970806D01*
X517939Y970558D01*
X518636Y970381D01*
X519332Y970275D01*
X520026Y970240D01*
X513022Y963169D01*
X513304Y963559D01*
X513444Y964020D01*
X513443Y964551D01*
X513301Y965153D01*
X513018Y965825D01*
X512594Y966567D01*
X512029Y967380D01*
X511322Y968263D01*
X509487Y970240D01*
X513022Y973775D01*
X513729Y973104D01*
D02*
G37*
G36*
X455740Y954477D02*
X455556Y954455D01*
X455347Y954392D01*
X455113Y954286D01*
X454854Y954137D01*
X454569Y953946D01*
X454258Y953713D01*
X453562Y953119D01*
X452764Y952355D01*
X451280Y955114D01*
X451807Y955662D01*
X452651Y956676D01*
X452968Y957141D01*
X453215Y957579D01*
X453392Y957990D01*
X453499Y958373D01*
X453537Y958728D01*
X453504Y959056D01*
X453402Y959357D01*
X455740Y954477D01*
D02*
G37*
G36*
X434000Y950899D02*
X433875Y950797D01*
X430125D01*
X429198Y950612D01*
X428936Y950437D01*
X428849Y950398D01*
X428595Y950219D01*
X428359Y950078D01*
X428105Y949952D01*
X427833Y949841D01*
X427541Y949746D01*
X427228Y949666D01*
X426909Y949606D01*
X426348Y949549D01*
X424572D01*
X424460Y949557D01*
X424105Y949603D01*
X423771Y949666D01*
X423459Y949746D01*
X423168Y949841D01*
X422895Y949952D01*
X422641Y950078D01*
X422405Y950219D01*
X422151Y950398D01*
X422064Y950437D01*
X421802Y950612D01*
X420875Y950797D01*
X417125D01*
X416198Y950612D01*
X415413Y950087D01*
X414888Y949302D01*
X414704Y948375D01*
Y945625D01*
X414888Y944698D01*
X415413Y943913D01*
X416198Y943388D01*
X417125Y943204D01*
X420875D01*
X421802Y943388D01*
X422064Y943563D01*
X422151Y943602D01*
X422405Y943781D01*
X422641Y943922D01*
X422895Y944048D01*
X423167Y944158D01*
X423459Y944254D01*
X423771Y944334D01*
X424091Y944394D01*
X424652Y944451D01*
X426428D01*
X426541Y944443D01*
X426895Y944397D01*
X427228Y944334D01*
X427541Y944254D01*
X427833Y944158D01*
X428105Y944048D01*
X428359Y943922D01*
X428595Y943781D01*
X428849Y943602D01*
X428936Y943563D01*
X429198Y943388D01*
X430125Y943204D01*
X432676D01*
X432867Y942741D01*
X431674Y941549D01*
X427500D01*
X426524Y941355D01*
X425698Y940802D01*
X420955Y936060D01*
X420392Y935536D01*
X419916Y935155D01*
X419492Y934859D01*
X419383Y934797D01*
X417125D01*
X416198Y934612D01*
X415413Y934087D01*
X414888Y933302D01*
X414704Y932375D01*
Y929625D01*
X414888Y928698D01*
X415413Y927913D01*
X416198Y927388D01*
X417125Y927203D01*
X419513D01*
X420206Y926548D01*
Y922315D01*
X420195Y922194D01*
X420154Y921941D01*
X420099Y921721D01*
X420035Y921533D01*
X419962Y921376D01*
X419883Y921247D01*
X419800Y921140D01*
X419799Y921139D01*
X406600D01*
X406600Y921139D01*
X405820Y920984D01*
X405158Y920542D01*
X405158Y920542D01*
X400560Y915944D01*
X400376Y915907D01*
X399847Y915553D01*
X399493Y915024D01*
X399369Y914400D01*
Y910600D01*
X399493Y909976D01*
X399847Y909447D01*
X400376Y909093D01*
X401000Y908969D01*
X402200D01*
X402824Y909093D01*
X403354Y909447D01*
X403707Y909976D01*
X403831Y910600D01*
Y912661D01*
X403839Y912700D01*
Y913455D01*
X407445Y917061D01*
X419874D01*
X419976Y916993D01*
X420600Y916869D01*
X422185D01*
X422500Y916806D01*
X422815Y916869D01*
X424400D01*
X425024Y916993D01*
X425554Y917346D01*
X425907Y917876D01*
X426031Y918500D01*
Y919700D01*
X425907Y920324D01*
X425713Y920615D01*
X425706Y920636D01*
X425678Y920667D01*
X425554Y920854D01*
X425457Y920918D01*
X425443Y920934D01*
X425291Y921050D01*
X425200Y921140D01*
X425116Y921247D01*
X425038Y921376D01*
X424965Y921533D01*
X424901Y921721D01*
X424846Y921941D01*
X424805Y922194D01*
X424794Y922315D01*
Y927500D01*
X424619Y928378D01*
X424122Y929122D01*
X423296Y929948D01*
Y930888D01*
X423352Y930984D01*
X423642Y931399D01*
X424410Y932305D01*
X428556Y936451D01*
X432730D01*
X433500Y936604D01*
X434000Y936286D01*
Y934899D01*
X433875Y934797D01*
X430125D01*
X429198Y934612D01*
X428413Y934087D01*
X427888Y933302D01*
X427704Y932375D01*
Y929625D01*
X427888Y928698D01*
X428413Y927913D01*
X429198Y927388D01*
X430125Y927203D01*
X433875D01*
X434000Y927101D01*
Y914449D01*
X421800D01*
X420824Y914255D01*
X420640Y914131D01*
X420600D01*
X419976Y914007D01*
X419447Y913653D01*
X419093Y913124D01*
X419012Y912716D01*
X418198Y911902D01*
X417645Y911075D01*
X417451Y910100D01*
Y907666D01*
X417434Y907486D01*
X417379Y907155D01*
X417306Y906857D01*
X417214Y906591D01*
X417108Y906356D01*
X416987Y906149D01*
X416852Y905966D01*
X416701Y905803D01*
X416579Y905699D01*
X416413Y905587D01*
X415888Y904802D01*
X415703Y903875D01*
Y901125D01*
X415888Y900198D01*
X416413Y899413D01*
X417198Y898888D01*
X418125Y898703D01*
X420048D01*
X420048Y898703D01*
X421346Y897549D01*
X422098Y896798D01*
X422925Y896245D01*
X423900Y896051D01*
X429500D01*
X430476Y896245D01*
X430660Y896369D01*
X431400D01*
X432024Y896493D01*
X432553Y896846D01*
X432907Y897376D01*
X433031Y898000D01*
Y899200D01*
X432907Y899824D01*
X432553Y900354D01*
X432024Y900707D01*
X431400Y900831D01*
X430660D01*
X430476Y900955D01*
X429500Y901149D01*
X424956D01*
X424814Y901291D01*
X424483Y901662D01*
X424322Y901863D01*
X424297Y901898D01*
Y903875D01*
X424112Y904802D01*
X423587Y905587D01*
X423421Y905699D01*
X423299Y905803D01*
X423148Y905966D01*
X423013Y906149D01*
X422892Y906356D01*
X422786Y906591D01*
X422694Y906857D01*
X422621Y907155D01*
X422566Y907486D01*
X422549Y907666D01*
Y909044D01*
X422856Y909351D01*
X434000D01*
Y870000D01*
X421618D01*
X421567Y870114D01*
X421455Y870415D01*
X421371Y870693D01*
X421313Y870948D01*
X421289Y871122D01*
Y882217D01*
X421303Y882376D01*
X421339Y882599D01*
X421366Y882703D01*
X421875D01*
X422802Y882888D01*
X423587Y883413D01*
X424112Y884198D01*
X424297Y885125D01*
Y887258D01*
X424451Y887479D01*
X424941Y888057D01*
X426045Y889161D01*
X429300D01*
X429339Y889169D01*
X431400D01*
X432024Y889293D01*
X432553Y889647D01*
X432907Y890176D01*
X433031Y890800D01*
Y892000D01*
X432907Y892624D01*
X432553Y893153D01*
X432024Y893507D01*
X431400Y893631D01*
X427600D01*
X427260Y893564D01*
X427240Y893565D01*
X427201Y893552D01*
X426976Y893507D01*
X426882Y893444D01*
X426863Y893438D01*
X426796Y893400D01*
X426752Y893381D01*
X426684Y893358D01*
X426384Y893293D01*
X426231Y893272D01*
X425731Y893239D01*
X425200D01*
X425002Y893200D01*
X425000D01*
X424998Y893199D01*
X424420Y893084D01*
X423758Y892642D01*
X422150Y891034D01*
X421789Y890698D01*
X421490Y890459D01*
X421258Y890296D01*
X418125D01*
X417198Y890112D01*
X416413Y889587D01*
X415888Y888802D01*
X415703Y887875D01*
Y885125D01*
X415888Y884198D01*
X416413Y883413D01*
X417100Y882954D01*
X417110Y882923D01*
X417158Y882720D01*
X417196Y882454D01*
X417211Y882266D01*
Y871533D01*
X417179Y871347D01*
X417116Y871137D01*
X417028Y870929D01*
X416909Y870719D01*
X416758Y870507D01*
X416570Y870292D01*
X416343Y870074D01*
X416254Y870000D01*
X397721D01*
X397639Y870100D01*
Y881760D01*
X397672Y882317D01*
X397685Y882428D01*
X397688Y882447D01*
X397707Y882476D01*
X397783Y882856D01*
X397821Y882871D01*
X397977Y882912D01*
X398195Y882948D01*
X398200Y882948D01*
X398205Y882948D01*
X398423Y882912D01*
X398579Y882871D01*
X398617Y882856D01*
X398693Y882476D01*
X399046Y881946D01*
X399576Y881593D01*
X400200Y881469D01*
X401400D01*
X402024Y881593D01*
X402554Y881946D01*
X402907Y882476D01*
X403031Y883100D01*
Y886900D01*
X402907Y887524D01*
X402554Y888054D01*
X402024Y888407D01*
X401400Y888531D01*
X400200D01*
X399576Y888407D01*
X399046Y888054D01*
X398693Y887524D01*
X398617Y887144D01*
X398579Y887129D01*
X398423Y887088D01*
X398205Y887052D01*
X398200Y887052D01*
X398195Y887052D01*
X397977Y887088D01*
X397821Y887129D01*
X397783Y887144D01*
X397707Y887524D01*
X397354Y888054D01*
X396824Y888407D01*
X396200Y888531D01*
X395000D01*
X394376Y888407D01*
X393847Y888054D01*
X393493Y887524D01*
X393369Y886900D01*
Y883100D01*
X393493Y882476D01*
X393494Y882474D01*
X393561Y881320D01*
Y870945D01*
X392616Y870000D01*
X385084D01*
X384142Y870942D01*
X384013Y871089D01*
X383712Y871471D01*
X383614Y871614D01*
X383538Y871741D01*
X383488Y871840D01*
X383463Y871903D01*
X383438Y871995D01*
X383429Y872013D01*
X383407Y872124D01*
X383298Y872288D01*
X383279Y872328D01*
X383268Y872338D01*
X383261Y872352D01*
X383251Y872361D01*
X383250Y872373D01*
X383516Y872861D01*
X383742D01*
X383916Y872847D01*
X384165Y872809D01*
X384350Y872764D01*
X384470Y872720D01*
X384475Y872717D01*
X384518Y872606D01*
X384553Y872468D01*
X384588Y872421D01*
X384608Y872367D01*
X384706Y872263D01*
X384791Y872149D01*
X384841Y872120D01*
X384881Y872077D01*
X385011Y872019D01*
X385133Y871946D01*
X385191Y871938D01*
X385244Y871914D01*
X385386Y871910D01*
X385526Y871889D01*
X385583Y871904D01*
X385642Y871902D01*
X385774Y871952D01*
X385912Y871987D01*
X385959Y872022D01*
X386014Y872043D01*
X386117Y872140D01*
X386231Y872225D01*
X386261Y872276D01*
X386303Y872316D01*
X386361Y872445D01*
X386434Y872567D01*
X386442Y872625D01*
X386466Y872678D01*
X386471Y872820D01*
X386476Y872861D01*
X387400D01*
X388180Y873016D01*
X388842Y873458D01*
X389842Y874458D01*
X389842Y874458D01*
X390284Y875120D01*
X390439Y875900D01*
X390439Y875900D01*
Y877335D01*
X390535Y877361D01*
X390650Y877374D01*
X390725Y877414D01*
X390807Y877437D01*
X390898Y877508D01*
X390999Y877563D01*
X391053Y877630D01*
X391120Y877682D01*
X391177Y877783D01*
X391250Y877873D01*
X391274Y877954D01*
X391316Y878029D01*
X391330Y878143D01*
X391362Y878254D01*
X391354Y878339D01*
X391364Y878424D01*
X391333Y878535D01*
X391321Y878650D01*
X391280Y878725D01*
X391257Y878807D01*
X391186Y878898D01*
X391131Y878999D01*
X391065Y879053D01*
X391012Y879120D01*
X390876Y879237D01*
X390793Y879327D01*
X390718Y879429D01*
X390649Y879548D01*
X390586Y879686D01*
X390531Y879848D01*
X390485Y880034D01*
X390450Y880245D01*
X390439Y880360D01*
Y885000D01*
X390284Y885780D01*
X389842Y886442D01*
X389180Y886884D01*
X388400Y887039D01*
X387620Y886884D01*
X386958Y886442D01*
X386516Y885780D01*
X386361Y885000D01*
Y884212D01*
X386329Y884031D01*
X386281Y883886D01*
X386229Y883790D01*
X386175Y883725D01*
X386110Y883671D01*
X386014Y883619D01*
X385869Y883571D01*
X385688Y883539D01*
X382137D01*
X382023Y883703D01*
X381915Y884039D01*
X382207Y884476D01*
X382331Y885100D01*
Y888900D01*
X382207Y889524D01*
X382206Y889526D01*
X382139Y890680D01*
Y891255D01*
X385309Y894425D01*
X385339D01*
X385994Y894601D01*
X386581Y894940D01*
X387060Y895419D01*
X387399Y896006D01*
X387575Y896661D01*
Y897339D01*
X387399Y897994D01*
X387060Y898581D01*
X386581Y899060D01*
X385994Y899399D01*
X385339Y899575D01*
X384661D01*
X384006Y899399D01*
X383419Y899060D01*
X382940Y898581D01*
X382601Y897994D01*
X382425Y897339D01*
Y897324D01*
X382325Y897209D01*
X378658Y893542D01*
X378216Y892880D01*
X378061Y892100D01*
Y890240D01*
X378028Y889683D01*
X378015Y889572D01*
X378012Y889553D01*
X377993Y889524D01*
X377869Y888900D01*
Y885100D01*
X377993Y884476D01*
X378044Y884398D01*
X377834Y883814D01*
X377780Y883798D01*
X377655Y883829D01*
X375774Y885710D01*
X375593Y885914D01*
X375358Y886210D01*
X375181Y886465D01*
X375063Y886671D01*
X375000Y886819D01*
X374990Y886855D01*
X375026Y886977D01*
X375079Y887092D01*
X375082Y887166D01*
X375103Y887236D01*
X375090Y887362D01*
X375094Y887490D01*
X375069Y887558D01*
X375061Y887632D01*
X375000Y887743D01*
X374956Y887863D01*
X374906Y887916D01*
X374871Y887981D01*
X374772Y888061D01*
X374686Y888155D01*
X374619Y888185D01*
X374562Y888231D01*
X374463Y888261D01*
X374342Y888442D01*
X373680Y888884D01*
X372900Y889039D01*
X372744D01*
X372723Y889140D01*
X372710Y889285D01*
X372685Y889334D01*
X372674Y889388D01*
X372593Y889509D01*
X372526Y889638D01*
X372484Y889673D01*
X372453Y889719D01*
X372332Y889799D01*
X372220Y889893D01*
X372168Y889909D01*
X372122Y889940D01*
X371980Y889968D01*
X371841Y890011D01*
X371786Y890007D01*
X371732Y890017D01*
X371589Y889989D01*
X371445Y889976D01*
X371396Y889950D01*
X371342Y889940D01*
X371221Y889859D01*
X371092Y889791D01*
X371057Y889749D01*
X371011Y889719D01*
X370930Y889598D01*
X370837Y889486D01*
X370821Y889433D01*
X370790Y889388D01*
X370762Y889245D01*
X370732Y889151D01*
X370679Y889129D01*
X370523Y889088D01*
X370305Y889052D01*
X370153Y889039D01*
X368830D01*
X368764Y889539D01*
X368994Y889601D01*
X369581Y889940D01*
X370060Y890419D01*
X370399Y891006D01*
X370575Y891661D01*
Y892339D01*
X370399Y892994D01*
X370060Y893581D01*
X369581Y894060D01*
X368994Y894399D01*
X368339Y894575D01*
X367661D01*
X367006Y894399D01*
X366419Y894060D01*
X366043Y893685D01*
X365612Y893811D01*
X365543Y893859D01*
Y894221D01*
X365543Y894279D01*
Y894720D01*
X365543Y894779D01*
Y899220D01*
X365543Y899279D01*
Y899743D01*
X365968Y899961D01*
X377344D01*
X377528Y899777D01*
X377601Y899506D01*
X377940Y898919D01*
X378419Y898440D01*
X379006Y898101D01*
X379661Y897925D01*
X380339D01*
X380994Y898101D01*
X381581Y898440D01*
X382060Y898919D01*
X382399Y899506D01*
X382575Y900161D01*
Y900839D01*
X382399Y901494D01*
X382060Y902081D01*
X381581Y902560D01*
X380994Y902899D01*
X380339Y903075D01*
X379998D01*
X379638Y903435D01*
X379640Y903468D01*
X379807Y903925D01*
X380339D01*
X380994Y904101D01*
X381581Y904440D01*
X382060Y904919D01*
X382399Y905506D01*
X382575Y906161D01*
Y906839D01*
X382399Y907494D01*
X382060Y908081D01*
X381581Y908560D01*
X380994Y908899D01*
X380339Y909075D01*
X379661D01*
X379006Y908899D01*
X378419Y908560D01*
X377940Y908081D01*
X377601Y907494D01*
X377425Y906839D01*
Y906161D01*
X377601Y905506D01*
X377940Y904919D01*
X378340Y904519D01*
X378227Y904160D01*
X378144Y904039D01*
X366039D01*
X365839Y904112D01*
X365543Y904280D01*
Y904743D01*
X365968Y904961D01*
X371000D01*
X371780Y905116D01*
X372442Y905558D01*
X377345Y910461D01*
X391653D01*
X391805Y910448D01*
X392023Y910412D01*
X392179Y910371D01*
X392217Y910355D01*
X392293Y909976D01*
X392647Y909447D01*
X393176Y909093D01*
X393800Y908969D01*
X395000D01*
X395624Y909093D01*
X396153Y909447D01*
X396507Y909976D01*
X396631Y910600D01*
Y913027D01*
X396731Y913167D01*
X397284Y913800D01*
X397942Y914458D01*
X398384Y915120D01*
X398539Y915900D01*
Y919590D01*
X398569Y919777D01*
X398631Y920012D01*
X398722Y920259D01*
X398844Y920516D01*
X398998Y920786D01*
X399187Y921065D01*
X399411Y921355D01*
X399672Y921654D01*
X399987Y921978D01*
X400037Y922055D01*
X400451Y922469D01*
X401101Y923594D01*
X401437Y924850D01*
Y926150D01*
X401101Y927406D01*
X400451Y928531D01*
X399531Y929451D01*
X398406Y930101D01*
X397150Y930437D01*
X395850D01*
X394594Y930101D01*
X393469Y929451D01*
X392549Y928531D01*
X391899Y927406D01*
X391563Y926150D01*
Y924850D01*
X391899Y923594D01*
X392549Y922469D01*
X392963Y922055D01*
X393013Y921978D01*
X393328Y921654D01*
X393589Y921355D01*
X393813Y921065D01*
X394002Y920786D01*
X394156Y920516D01*
X394278Y920259D01*
X394369Y920012D01*
X394431Y919777D01*
X394461Y919590D01*
Y916745D01*
X394358Y916642D01*
X394211Y916512D01*
X393829Y916212D01*
X393686Y916115D01*
X393559Y916038D01*
X393460Y915988D01*
X393397Y915963D01*
X393305Y915938D01*
X393286Y915929D01*
X393176Y915907D01*
X392985Y915780D01*
X392948Y915761D01*
X392935Y915746D01*
X392647Y915553D01*
X392293Y915024D01*
X392217Y914645D01*
X392179Y914629D01*
X392023Y914588D01*
X391805Y914552D01*
X391653Y914539D01*
X376500D01*
X375720Y914384D01*
X375058Y913942D01*
X375058Y913942D01*
X370155Y909039D01*
X365795D01*
X365543Y909050D01*
Y909280D01*
X364584D01*
X364549Y909287D01*
X364540Y909285D01*
X364531Y909287D01*
X364493Y909280D01*
X356457D01*
Y904780D01*
X356457Y904720D01*
Y904280D01*
X356457Y904220D01*
Y899780D01*
X356457Y899720D01*
Y899279D01*
X356457Y899220D01*
Y894779D01*
X356457Y894720D01*
Y894279D01*
X356457Y894221D01*
Y889721D01*
X363749D01*
X363947Y889221D01*
X363755Y889039D01*
X361000D01*
X360220Y888884D01*
X359558Y888442D01*
X359116Y887780D01*
X358961Y887000D01*
X359116Y886220D01*
X359558Y885558D01*
X360220Y885116D01*
X361000Y884961D01*
X363755D01*
X363947Y884779D01*
X363749Y884280D01*
X356457D01*
Y879780D01*
X356457Y879720D01*
X356457D01*
Y879280D01*
X356457D01*
Y875771D01*
X356449Y875733D01*
X356457Y875694D01*
Y874720D01*
X356917D01*
X356961Y874229D01*
Y873602D01*
X356940Y873581D01*
X356601Y872994D01*
X356425Y872339D01*
Y871661D01*
X356601Y871006D01*
X356893Y870500D01*
X356727Y870000D01*
X352500D01*
Y987500D01*
X434000D01*
Y950899D01*
D02*
G37*
G36*
X429438Y944434D02*
X429151Y944637D01*
X428846Y944818D01*
X428524Y944978D01*
X428184Y945116D01*
X427826Y945234D01*
X427450Y945329D01*
X427056Y945404D01*
X426644Y945457D01*
X426214Y945489D01*
X425767Y945500D01*
Y948500D01*
X426214Y948511D01*
X427056Y948596D01*
X427450Y948670D01*
X427826Y948766D01*
X428184Y948884D01*
X428524Y949022D01*
X428846Y949182D01*
X429151Y949363D01*
X429438Y949566D01*
Y944434D01*
D02*
G37*
G36*
X421849Y949363D02*
X422154Y949182D01*
X422476Y949022D01*
X422816Y948884D01*
X423174Y948766D01*
X423551Y948670D01*
X423944Y948596D01*
X424356Y948543D01*
X424786Y948511D01*
X425233Y948500D01*
Y945500D01*
X424786Y945489D01*
X423944Y945404D01*
X423551Y945329D01*
X423174Y945234D01*
X422816Y945116D01*
X422476Y944978D01*
X422154Y944818D01*
X421849Y944637D01*
X421562Y944434D01*
Y949566D01*
X421849Y949363D01*
D02*
G37*
G36*
X492000Y934000D02*
X461500D01*
Y956217D01*
X461650Y956442D01*
X461844Y957417D01*
Y961000D01*
X492000D01*
Y934000D01*
D02*
G37*
G36*
X424371Y933750D02*
X423773Y933131D01*
X422833Y932022D01*
X422491Y931532D01*
X422233Y931085D01*
X422060Y930680D01*
X421973Y930319D01*
X421970Y930000D01*
X422053Y929724D01*
X422158Y929578D01*
X422237Y929624D01*
X422238Y929605D01*
X422264Y929563D01*
X422316Y929498D01*
X422494Y929297D01*
X423384Y928384D01*
X421616Y926616D01*
X419878Y928262D01*
X422143Y929569D01*
X418007Y933738D01*
X418239Y933568D01*
X418513Y933484D01*
X418830Y933485D01*
X419190Y933571D01*
X419593Y933742D01*
X420039Y933998D01*
X420527Y934338D01*
X421059Y934764D01*
X422250Y935871D01*
X424371Y933750D01*
D02*
G37*
G36*
X550000Y932000D02*
X511500D01*
Y959000D01*
X524500D01*
Y972500D01*
X550000D01*
Y932000D01*
D02*
G37*
G36*
X434849Y933363D02*
X435154Y933182D01*
X435476Y933022D01*
X435816Y932884D01*
X436174Y932766D01*
X436551Y932670D01*
X436944Y932596D01*
X437356Y932543D01*
X437786Y932511D01*
X438233Y932500D01*
Y929500D01*
X437786Y929489D01*
X436944Y929404D01*
X436551Y929329D01*
X436174Y929234D01*
X435816Y929116D01*
X435476Y928978D01*
X435154Y928818D01*
X434849Y928637D01*
X434562Y928434D01*
Y933566D01*
X434849Y933363D01*
D02*
G37*
G36*
X447000Y931000D02*
X444000Y926500D01*
X443970Y927070D01*
X443880Y927580D01*
X443730Y928030D01*
X443520Y928420D01*
X443250Y928750D01*
X442920Y929020D01*
X442530Y929230D01*
X442080Y929380D01*
X441570Y929470D01*
X441000Y929500D01*
Y932500D01*
X441570Y932530D01*
X442080Y932620D01*
X442530Y932770D01*
X442920Y932980D01*
X443250Y933250D01*
X443520Y933580D01*
X443730Y933970D01*
X443880Y934420D01*
X443970Y934930D01*
X444000Y935500D01*
X447000Y931000D01*
D02*
G37*
G36*
X423761Y922420D02*
X423793Y922066D01*
X423847Y921736D01*
X423922Y921432D01*
X424018Y921152D01*
X424137Y920897D01*
X424276Y920666D01*
X424437Y920461D01*
X424620Y920280D01*
X424824Y920124D01*
X420176D01*
X420380Y920280D01*
X420563Y920461D01*
X420724Y920666D01*
X420863Y920897D01*
X420982Y921152D01*
X421078Y921432D01*
X421153Y921736D01*
X421207Y922066D01*
X421239Y922420D01*
X421250Y922799D01*
X423750D01*
X423761Y922420D01*
D02*
G37*
G36*
X398922Y922345D02*
X398624Y922003D01*
X398360Y921663D01*
X398132Y921325D01*
X397939Y920988D01*
X397781Y920653D01*
X397658Y920320D01*
X397570Y919988D01*
X397518Y919658D01*
X397500Y919330D01*
X395500D01*
X395482Y919658D01*
X395430Y919988D01*
X395342Y920320D01*
X395219Y920653D01*
X395061Y920988D01*
X394868Y921325D01*
X394640Y921663D01*
X394376Y922003D01*
X394078Y922345D01*
X393744Y922688D01*
X399256D01*
X398922Y922345D01*
D02*
G37*
G36*
X513398Y925156D02*
X515208Y923631D01*
X515768Y923242D01*
X516305Y922914D01*
X516819Y922646D01*
X517312Y922438D01*
X517782Y922291D01*
X518231Y922203D01*
X512934Y917438D01*
X512758Y917821D01*
X512538Y918227D01*
X512275Y918654D01*
X511618Y919573D01*
X511225Y920065D01*
X509782Y921671D01*
X509215Y922250D01*
X512750Y925785D01*
X513398Y925156D01*
D02*
G37*
G36*
X525500Y872500D02*
X449000D01*
Y924000D01*
X506007D01*
X509078Y920930D01*
X510447Y919405D01*
X510805Y918958D01*
X511425Y918089D01*
X511656Y917716D01*
X511846Y917365D01*
X512008Y917012D01*
X512098Y916888D01*
X512177Y916756D01*
X512214Y916728D01*
X512241Y916690D01*
X512372Y916609D01*
X512495Y916518D01*
X512540Y916506D01*
X512580Y916482D01*
X512732Y916457D01*
X512881Y916419D01*
X512927Y916426D01*
X512973Y916419D01*
X513122Y916454D01*
X513274Y916476D01*
X513314Y916500D01*
X513360Y916511D01*
X513484Y916601D01*
X513509Y916616D01*
X513735Y916443D01*
X514586Y916090D01*
X515500Y915970D01*
X516000D01*
X516914Y916090D01*
X517765Y916443D01*
X518496Y917004D01*
X519057Y917735D01*
X519410Y918586D01*
X519530Y919500D01*
X519410Y920414D01*
X519057Y921265D01*
X518916Y921449D01*
X518990Y921548D01*
X519080Y921639D01*
X519108Y921706D01*
X519151Y921764D01*
X519183Y921888D01*
X519232Y922007D01*
X519231Y922079D01*
X519249Y922149D01*
X519231Y922276D01*
X519230Y922405D01*
X519202Y922472D01*
X519192Y922543D01*
X519126Y922653D01*
X519077Y922772D01*
X519026Y922823D01*
X518989Y922885D01*
X518886Y922962D01*
X518794Y923053D01*
X518728Y923080D01*
X518670Y923123D01*
X518545Y923155D01*
X518426Y923204D01*
X518034Y923280D01*
X517664Y923396D01*
X517419Y923500D01*
X517520Y924000D01*
X525500D01*
Y872500D01*
D02*
G37*
G36*
X397014Y914999D02*
X396679Y914657D01*
X395931Y913800D01*
X395766Y913571D01*
X395645Y913370D01*
X395567Y913197D01*
X395531Y913052D01*
X395538Y912936D01*
X395587Y912847D01*
X393571Y914954D01*
X393719Y914994D01*
X393879Y915057D01*
X394052Y915145D01*
X394236Y915255D01*
X394433Y915390D01*
X394863Y915729D01*
X395096Y915933D01*
X395600Y916414D01*
X397014Y914999D01*
D02*
G37*
G36*
X393232Y910502D02*
X393212Y910692D01*
X393151Y910861D01*
X393049Y911011D01*
X392907Y911141D01*
X392724Y911251D01*
X392501Y911340D01*
X392237Y911410D01*
X391932Y911460D01*
X391586Y911490D01*
X391200Y911500D01*
Y913500D01*
X391586Y913510D01*
X391932Y913540D01*
X392237Y913590D01*
X392501Y913660D01*
X392724Y913749D01*
X392907Y913859D01*
X393049Y913989D01*
X393151Y914139D01*
X393212Y914308D01*
X393232Y914498D01*
Y910502D01*
D02*
G37*
G36*
X364551Y908217D02*
X364611Y908171D01*
X364711Y908131D01*
X364851Y908096D01*
X365031Y908067D01*
X365251Y908043D01*
X366151Y908003D01*
X366531Y908000D01*
Y906000D01*
X366151Y905997D01*
X364851Y905904D01*
X364711Y905869D01*
X364611Y905829D01*
X364551Y905783D01*
X364531Y905733D01*
Y908267D01*
X364551Y908217D01*
D02*
G37*
G36*
X421514Y907789D02*
X421554Y907356D01*
X421621Y906949D01*
X421715Y906568D01*
X421837Y906215D01*
X421985Y905888D01*
X422160Y905587D01*
X422362Y905314D01*
X422591Y905067D01*
X422847Y904847D01*
X417153D01*
X417409Y905067D01*
X417638Y905314D01*
X417840Y905587D01*
X418015Y905888D01*
X418163Y906215D01*
X418285Y906568D01*
X418379Y906949D01*
X418446Y907356D01*
X418486Y907789D01*
X418500Y908250D01*
X421500D01*
X421514Y907789D01*
D02*
G37*
G36*
X364551Y903217D02*
X364611Y903171D01*
X364711Y903131D01*
X364851Y903096D01*
X365031Y903067D01*
X365251Y903043D01*
X366151Y903003D01*
X366531Y903000D01*
Y901000D01*
X366151Y900997D01*
X364851Y900904D01*
X364711Y900869D01*
X364611Y900829D01*
X364551Y900783D01*
X364531Y900733D01*
Y903267D01*
X364551Y903217D01*
D02*
G37*
G36*
X423197Y901860D02*
X423204Y901762D01*
X423258Y901627D01*
X423360Y901455D01*
X423509Y901247D01*
X423704Y901003D01*
X424238Y900405D01*
X424961Y899661D01*
X422839Y897539D01*
X422372Y898001D01*
X420673Y899512D01*
X420461Y899654D01*
X420291Y899743D01*
X420163Y899779D01*
X420078Y899762D01*
X423238Y901922D01*
X423197Y901860D01*
D02*
G37*
G36*
X384984Y895425D02*
X384950Y895419D01*
X384906Y895399D01*
X384852Y895366D01*
X384787Y895320D01*
X384626Y895188D01*
X384423Y895003D01*
X384179Y894765D01*
X382765Y896179D01*
X382890Y896306D01*
X383366Y896852D01*
X383399Y896906D01*
X383419Y896950D01*
X383425Y896984D01*
X384984Y895425D01*
D02*
G37*
G36*
X427371Y890246D02*
X427365Y890237D01*
X427322Y890230D01*
X427240Y890223D01*
X426532Y890205D01*
X425600Y890201D01*
X425200Y892200D01*
X425517Y892204D01*
X426335Y892257D01*
X426563Y892288D01*
X426953Y892373D01*
X427114Y892426D01*
X427253Y892487D01*
X427371Y892554D01*
Y890246D01*
D02*
G37*
G36*
X381101Y890961D02*
X381199Y889291D01*
X381225Y889193D01*
X381254Y889129D01*
X378946D01*
X378975Y889193D01*
X379001Y889291D01*
X379025Y889425D01*
X379045Y889594D01*
X379086Y890309D01*
X379100Y891340D01*
X381100D01*
X381101Y890961D01*
D02*
G37*
G36*
X424664Y889250D02*
X424267Y888839D01*
X423642Y888102D01*
X423415Y887776D01*
X423244Y887479D01*
X423129Y887210D01*
X423072Y886970D01*
X423070Y886759D01*
X423126Y886576D01*
X423238Y886421D01*
X420421Y889238D01*
X420576Y889126D01*
X420759Y889070D01*
X420970Y889072D01*
X421210Y889129D01*
X421479Y889244D01*
X421776Y889415D01*
X422102Y889642D01*
X422456Y889926D01*
X423250Y890664D01*
X424664Y889250D01*
D02*
G37*
G36*
X399632Y883002D02*
X399612Y883192D01*
X399551Y883362D01*
X399449Y883511D01*
X399307Y883641D01*
X399124Y883751D01*
X398901Y883840D01*
X398637Y883910D01*
X398332Y883960D01*
X398200Y883972D01*
X398068Y883960D01*
X397763Y883910D01*
X397499Y883840D01*
X397276Y883751D01*
X397093Y883641D01*
X396951Y883511D01*
X396849Y883362D01*
X396788Y883192D01*
X396768Y883002D01*
Y886998D01*
X396788Y886808D01*
X396849Y886639D01*
X396951Y886489D01*
X397093Y886359D01*
X397276Y886249D01*
X397499Y886160D01*
X397763Y886090D01*
X398068Y886040D01*
X398200Y886028D01*
X398332Y886040D01*
X398637Y886090D01*
X398901Y886160D01*
X399124Y886249D01*
X399307Y886359D01*
X399449Y886489D01*
X399551Y886639D01*
X399612Y886808D01*
X399632Y886998D01*
Y883002D01*
D02*
G37*
G36*
X364551Y888217D02*
X364611Y888171D01*
X364711Y888131D01*
X364851Y888096D01*
X365031Y888067D01*
X365251Y888043D01*
X366151Y888003D01*
X366531Y888000D01*
Y886000D01*
X366151Y885997D01*
X364851Y885904D01*
X364711Y885869D01*
X364611Y885829D01*
X364551Y885783D01*
X364531Y885732D01*
Y888268D01*
X364551Y888217D01*
D02*
G37*
G36*
X371732Y885002D02*
X371712Y885192D01*
X371651Y885361D01*
X371549Y885511D01*
X371407Y885641D01*
X371224Y885751D01*
X371001Y885840D01*
X370737Y885910D01*
X370432Y885960D01*
X370087Y885990D01*
X369701Y886000D01*
Y888000D01*
X370087Y888010D01*
X370432Y888040D01*
X370737Y888090D01*
X371001Y888160D01*
X371224Y888249D01*
X371407Y888359D01*
X371549Y888489D01*
X371651Y888638D01*
X371712Y888808D01*
X371732Y888998D01*
Y885002D01*
D02*
G37*
G36*
X373996Y887154D02*
X373956Y886956D01*
X373968Y886733D01*
X374033Y886486D01*
X374149Y886215D01*
X374318Y885920D01*
X374539Y885602D01*
X374812Y885259D01*
X375137Y884892D01*
X375514Y884501D01*
X374099Y883086D01*
X373842Y883338D01*
X373142Y883953D01*
X372933Y884111D01*
X372551Y884355D01*
X372379Y884443D01*
X372219Y884506D01*
X372071Y884546D01*
X374088Y887329D01*
X373996Y887154D01*
D02*
G37*
G36*
X421250Y883762D02*
X421060Y883757D01*
X420890Y883708D01*
X420740Y883615D01*
X420610Y883479D01*
X420500Y883300D01*
X420410Y883077D01*
X420340Y882811D01*
X420290Y882501D01*
X420260Y882147D01*
X420250Y881750D01*
X418250D01*
X418240Y882180D01*
X418210Y882566D01*
X418161Y882908D01*
X418091Y883208D01*
X418002Y883463D01*
X417893Y883675D01*
X417764Y883844D01*
X417615Y883969D01*
X417446Y884050D01*
X417257Y884088D01*
X421250Y883762D01*
D02*
G37*
G36*
X364551Y883217D02*
X364611Y883171D01*
X364711Y883131D01*
X364851Y883096D01*
X365031Y883067D01*
X365251Y883043D01*
X366151Y883003D01*
X366531Y883000D01*
Y881000D01*
X366151Y880997D01*
X364851Y880904D01*
X364711Y880869D01*
X364611Y880829D01*
X364551Y880783D01*
X364531Y880733D01*
Y883267D01*
X364551Y883217D01*
D02*
G37*
G36*
X396725Y882807D02*
X396698Y882708D01*
X396675Y882575D01*
X396655Y882406D01*
X396614Y881691D01*
X396600Y880660D01*
X394600D01*
X394599Y881039D01*
X394501Y882708D01*
X394475Y882807D01*
X394446Y882871D01*
X396754D01*
X396725Y882807D01*
D02*
G37*
G36*
X377871Y876946D02*
X377807Y876975D01*
X377709Y877001D01*
X377575Y877025D01*
X377406Y877045D01*
X376720Y877084D01*
X375291Y877001D01*
X375193Y876975D01*
X375129Y876946D01*
Y879254D01*
X375193Y879225D01*
X375291Y879198D01*
X375425Y879175D01*
X375594Y879155D01*
X376280Y879116D01*
X377709Y879198D01*
X377807Y879225D01*
X377871Y879254D01*
Y876946D01*
D02*
G37*
G36*
X389400Y881500D02*
X388898Y880747D01*
X389400Y880746D01*
X389409Y880421D01*
X389438Y880115D01*
X389485Y879828D01*
X389551Y879560D01*
X389637Y879310D01*
X389741Y879080D01*
X389864Y878868D01*
X390006Y878676D01*
X390167Y878502D01*
X390347Y878347D01*
X387473Y878610D01*
X387400Y878500D01*
X387394Y878617D01*
X386402Y878708D01*
X386591Y878712D01*
X386761Y878761D01*
X386911Y878854D01*
X387041Y878991D01*
X387150Y879173D01*
X387240Y879399D01*
X387249Y879433D01*
X387220Y879520D01*
X387080Y879780D01*
X386900Y880000D01*
X386680Y880180D01*
X386420Y880320D01*
X386120Y880420D01*
X385780Y880480D01*
X385400Y880500D01*
Y882500D01*
X385780Y882520D01*
X386120Y882580D01*
X386420Y882680D01*
X386680Y882820D01*
X386900Y883000D01*
X387080Y883220D01*
X387220Y883480D01*
X387320Y883780D01*
X387380Y884120D01*
X387400Y884500D01*
X389400Y881500D01*
D02*
G37*
G36*
X370814Y880404D02*
X371955Y879413D01*
X372097Y879326D01*
X372211Y879276D01*
X372296Y879263D01*
X372353Y879288D01*
X370525Y877437D01*
X370549Y877494D01*
X370535Y877579D01*
X370484Y877694D01*
X370396Y877837D01*
X370271Y878009D01*
X369909Y878439D01*
X369398Y878984D01*
X369086Y879300D01*
X370500Y880714D01*
X370814Y880404D01*
D02*
G37*
G36*
X360810Y875712D02*
X360640Y875653D01*
X360490Y875552D01*
X360360Y875412D01*
X360250Y875233D01*
X360160Y875012D01*
X360090Y874753D01*
X360040Y874452D01*
X360010Y874113D01*
X360005Y873924D01*
X360050Y873260D01*
X360066Y873198D01*
X360083Y873153D01*
X360102Y873125D01*
X357898D01*
X357917Y873153D01*
X357934Y873198D01*
X357950Y873260D01*
X357963Y873339D01*
X357984Y873546D01*
X357996Y873820D01*
X357997Y873931D01*
X357995Y874113D01*
X357915Y875012D01*
X357867Y875233D01*
X357809Y875412D01*
X357740Y875552D01*
X357660Y875653D01*
X357570Y875712D01*
X357469Y875733D01*
X361000D01*
X360810Y875712D01*
D02*
G37*
G36*
X385473Y872907D02*
X385441Y873096D01*
X385367Y873265D01*
X385251Y873414D01*
X385092Y873543D01*
X384891Y873652D01*
X384648Y873741D01*
X384362Y873811D01*
X384034Y873860D01*
X383663Y873890D01*
X383250Y873900D01*
Y875900D01*
X383642Y875910D01*
X383991Y875940D01*
X384298Y875990D01*
X384563Y876060D01*
X384786Y876150D01*
X384966Y876260D01*
X385103Y876390D01*
X385199Y876540D01*
X385252Y876710D01*
X385262Y876900D01*
X385473Y872907D01*
D02*
G37*
G36*
X376914Y872577D02*
X376683Y872335D01*
X376278Y871847D01*
X376104Y871599D01*
X375949Y871350D01*
X375812Y871098D01*
X375694Y870844D01*
X375595Y870589D01*
X375515Y870331D01*
X375454Y870071D01*
X372194Y872087D01*
X372385Y872012D01*
X372612Y872001D01*
X372874Y872053D01*
X373172Y872168D01*
X373506Y872348D01*
X373875Y872591D01*
X374280Y872898D01*
X375197Y873703D01*
X375709Y874201D01*
X376914Y872577D01*
D02*
G37*
G36*
X382494Y871581D02*
X382558Y871421D01*
X382645Y871249D01*
X382755Y871064D01*
X382890Y870867D01*
X383229Y870437D01*
X383433Y870204D01*
X383914Y869701D01*
X382500Y868286D01*
X382108Y868663D01*
X381399Y869261D01*
X381080Y869482D01*
X380785Y869650D01*
X380514Y869767D01*
X380267Y869832D01*
X380044Y869844D01*
X379846Y869804D01*
X379671Y869713D01*
X382454Y871729D01*
X382494Y871581D01*
D02*
G37*
G36*
X420250Y871389D02*
X420265Y871084D01*
X420310Y870765D01*
X420384Y870434D01*
X420489Y870088D01*
X420623Y869730D01*
X420787Y869357D01*
X421204Y868573D01*
X421458Y868161D01*
X421741Y867735D01*
X416330Y868785D01*
X416695Y869043D01*
X417021Y869311D01*
X417309Y869588D01*
X417559Y869875D01*
X417770Y870171D01*
X417943Y870476D01*
X418077Y870791D01*
X418173Y871115D01*
X418231Y871448D01*
X418250Y871791D01*
X420250Y871389D01*
D02*
G37*
G36*
X417888Y861611D02*
X417437Y861668D01*
X417008Y861693D01*
X416601Y861687D01*
X416215Y861649D01*
X415852Y861580D01*
X415511Y861479D01*
X415191Y861347D01*
X414893Y861183D01*
X414618Y860987D01*
X414364Y860760D01*
X413165Y862390D01*
X413375Y862621D01*
X413569Y862882D01*
X413749Y863173D01*
X413915Y863493D01*
X414066Y863843D01*
X414202Y864222D01*
X414323Y864631D01*
X414522Y865537D01*
X414599Y866034D01*
X417888Y861611D01*
D02*
G37*
G36*
X434000Y813899D02*
X433875Y813797D01*
X430125D01*
X429198Y813612D01*
X428936Y813437D01*
X428849Y813398D01*
X428595Y813219D01*
X428359Y813078D01*
X428105Y812952D01*
X427833Y812842D01*
X427541Y812746D01*
X427228Y812666D01*
X426909Y812606D01*
X426348Y812549D01*
X424572D01*
X424460Y812557D01*
X424105Y812603D01*
X423771Y812666D01*
X423459Y812746D01*
X423168Y812842D01*
X422895Y812952D01*
X422641Y813078D01*
X422405Y813219D01*
X422151Y813398D01*
X422064Y813437D01*
X421802Y813612D01*
X420875Y813797D01*
X417125D01*
X416198Y813612D01*
X415413Y813087D01*
X414888Y812302D01*
X414704Y811375D01*
Y808625D01*
X414888Y807698D01*
X415413Y806913D01*
X416198Y806388D01*
X417125Y806203D01*
X420875D01*
X421802Y806388D01*
X422064Y806563D01*
X422151Y806602D01*
X422405Y806781D01*
X422641Y806922D01*
X422895Y807048D01*
X423167Y807158D01*
X423459Y807254D01*
X423771Y807334D01*
X424091Y807394D01*
X424652Y807451D01*
X426428D01*
X426541Y807443D01*
X426895Y807397D01*
X427228Y807334D01*
X427541Y807254D01*
X427833Y807158D01*
X428105Y807048D01*
X428359Y806922D01*
X428595Y806781D01*
X428849Y806602D01*
X428936Y806563D01*
X429198Y806388D01*
X430125Y806203D01*
X433875D01*
X434000Y806101D01*
Y805049D01*
X428000D01*
X427025Y804855D01*
X426198Y804302D01*
X420955Y799060D01*
X420392Y798536D01*
X419916Y798155D01*
X419492Y797859D01*
X419383Y797796D01*
X417125D01*
X416198Y797612D01*
X415413Y797087D01*
X414888Y796302D01*
X414704Y795375D01*
Y792625D01*
X414888Y791698D01*
X415413Y790913D01*
X415579Y790801D01*
X415701Y790697D01*
X415852Y790534D01*
X415987Y790351D01*
X416108Y790144D01*
X416215Y789909D01*
X416305Y789643D01*
X416379Y789345D01*
X416434Y789014D01*
X416451Y788834D01*
Y786455D01*
X416449Y786400D01*
X416414Y786037D01*
X416365Y785717D01*
X416307Y785452D01*
X416243Y785243D01*
X416181Y785095D01*
X416130Y785007D01*
X416103Y784974D01*
X416062Y784939D01*
X415700D01*
X414920Y784784D01*
X414258Y784342D01*
X401558Y771642D01*
X401411Y771513D01*
X401029Y771212D01*
X400886Y771114D01*
X400759Y771038D01*
X400661Y770988D01*
X400597Y770963D01*
X400505Y770938D01*
X400487Y770929D01*
X400376Y770907D01*
X400212Y770798D01*
X400172Y770779D01*
X400162Y770768D01*
X400148Y770761D01*
X400135Y770746D01*
X399847Y770553D01*
X399493Y770024D01*
X399369Y769400D01*
Y765600D01*
X399493Y764976D01*
X399847Y764446D01*
X400376Y764093D01*
X401000Y763969D01*
X402200D01*
X402824Y764093D01*
X403354Y764446D01*
X403707Y764976D01*
X403831Y765600D01*
Y767948D01*
X403881Y768035D01*
X404050Y768279D01*
X404516Y768832D01*
X416545Y780861D01*
X417851D01*
X418024Y780745D01*
X419000Y780551D01*
X419976Y780745D01*
X420160Y780869D01*
X420900D01*
X421524Y780993D01*
X422053Y781347D01*
X422407Y781876D01*
X422531Y782500D01*
Y783700D01*
X422407Y784324D01*
X422229Y784591D01*
X422227Y784596D01*
X422215Y784611D01*
X422053Y784854D01*
X421981Y784902D01*
X421978Y784906D01*
X421897Y784974D01*
X421870Y785007D01*
X421819Y785095D01*
X421757Y785243D01*
X421693Y785452D01*
X421635Y785717D01*
X421588Y786026D01*
X421549Y786550D01*
Y788834D01*
X421566Y789014D01*
X421621Y789345D01*
X421694Y789643D01*
X421785Y789909D01*
X421892Y790144D01*
X422013Y790351D01*
X422148Y790534D01*
X422299Y790697D01*
X422421Y790801D01*
X422587Y790913D01*
X423112Y791698D01*
X423296Y792625D01*
Y793889D01*
X423352Y793985D01*
X423642Y794399D01*
X424410Y795305D01*
X429056Y799951D01*
X434000D01*
Y797899D01*
X433875Y797796D01*
X430125D01*
X429198Y797612D01*
X428413Y797087D01*
X427888Y796302D01*
X427704Y795375D01*
Y792625D01*
X427888Y791698D01*
X428413Y790913D01*
X429198Y790388D01*
X430125Y790204D01*
X433875D01*
X434000Y790101D01*
Y778449D01*
X419000D01*
X418024Y778255D01*
X417840Y778131D01*
X417100D01*
X416476Y778007D01*
X415946Y777654D01*
X415593Y777124D01*
X415469Y776500D01*
Y775300D01*
X415593Y774676D01*
X415771Y774409D01*
X415773Y774404D01*
X415785Y774389D01*
X415946Y774147D01*
X416018Y774098D01*
X416022Y774094D01*
X416103Y774026D01*
X416130Y773993D01*
X416181Y773905D01*
X416243Y773757D01*
X416307Y773548D01*
X416365Y773283D01*
X416412Y772974D01*
X416451Y772450D01*
Y769001D01*
X416446Y768888D01*
X416388Y768802D01*
X416203Y767875D01*
Y765125D01*
X416388Y764198D01*
X416913Y763413D01*
X417698Y762888D01*
X418625Y762704D01*
X420768D01*
X420916Y762625D01*
X421209Y762435D01*
X421544Y762183D01*
X422266Y761553D01*
X423661Y760158D01*
X424323Y759716D01*
X425103Y759561D01*
X427260D01*
X427817Y759528D01*
X427928Y759515D01*
X427947Y759512D01*
X427976Y759493D01*
X428600Y759369D01*
X432400D01*
X433024Y759493D01*
X433500Y759811D01*
X433741Y759749D01*
X434000Y759615D01*
Y756385D01*
X433741Y756251D01*
X433500Y756189D01*
X433024Y756507D01*
X432400Y756631D01*
X428600D01*
X427976Y756507D01*
X427447Y756153D01*
X427093Y755624D01*
X426969Y755000D01*
Y754239D01*
X426961Y754200D01*
Y753745D01*
X425755Y752539D01*
X425260D01*
X425087Y752553D01*
X424843Y752591D01*
X424664Y752635D01*
X424644Y752642D01*
X424612Y752802D01*
X424087Y753587D01*
X423302Y754112D01*
X422375Y754296D01*
X418625D01*
X417698Y754112D01*
X416913Y753587D01*
X416388Y752802D01*
X416203Y751875D01*
Y749125D01*
X416388Y748198D01*
X416913Y747413D01*
X417698Y746888D01*
X418359Y746757D01*
X418371Y746726D01*
X418412Y746571D01*
X418448Y746353D01*
X418461Y746202D01*
Y737437D01*
X417850D01*
X416594Y737101D01*
X416420Y737000D01*
X408296D01*
Y739375D01*
X408112Y740302D01*
X408058Y740383D01*
Y740582D01*
X408484Y741220D01*
X408639Y742000D01*
X408639Y742000D01*
Y744260D01*
X408672Y744817D01*
X408685Y744928D01*
X408688Y744947D01*
X408707Y744976D01*
X408831Y745600D01*
Y749400D01*
X408707Y750024D01*
X408354Y750554D01*
X407824Y750907D01*
X407200Y751031D01*
X406000D01*
X405376Y750907D01*
X404846Y750554D01*
X404493Y750024D01*
X404369Y749400D01*
Y745600D01*
X404493Y744976D01*
X404494Y744974D01*
X404561Y743820D01*
Y742837D01*
X404135Y742199D01*
X404054Y741796D01*
X403125D01*
X402198Y741612D01*
X401413Y741087D01*
X400888Y740302D01*
X400703Y739375D01*
Y737000D01*
X397139D01*
Y744260D01*
X397142Y744302D01*
X397646Y744447D01*
X398176Y744093D01*
X398800Y743969D01*
X400000D01*
X400624Y744093D01*
X401154Y744447D01*
X401507Y744976D01*
X401631Y745600D01*
Y749400D01*
X401507Y750024D01*
X401154Y750554D01*
X400624Y750907D01*
X400000Y751031D01*
X398800D01*
X398176Y750907D01*
X397646Y750554D01*
X397551Y750410D01*
X396949D01*
X396853Y750554D01*
X396324Y750907D01*
X395700Y751031D01*
X394500D01*
X393876Y750907D01*
X393347Y750554D01*
X392993Y750024D01*
X392869Y749400D01*
Y745600D01*
X392993Y744976D01*
X392994Y744974D01*
X393061Y743820D01*
Y737000D01*
X390834D01*
X390517Y737387D01*
X390539Y737500D01*
X390384Y738280D01*
X390139Y738647D01*
Y739688D01*
X390191Y739693D01*
X390328Y739733D01*
X390469Y739758D01*
X390517Y739789D01*
X390573Y739806D01*
X390684Y739895D01*
X390804Y739972D01*
X390837Y740020D01*
X390882Y740056D01*
X390950Y740181D01*
X391032Y740298D01*
X391044Y740355D01*
X391072Y740406D01*
X391087Y740548D01*
X391118Y740687D01*
X391108Y740744D01*
X391114Y740801D01*
X391073Y740938D01*
X391048Y741079D01*
X391017Y741127D01*
X391001Y741183D01*
X390911Y741294D01*
X390834Y741414D01*
X390787Y741447D01*
X390751Y741492D01*
X390625Y741560D01*
X390508Y741642D01*
X390452Y741654D01*
X390401Y741682D01*
X390259Y741697D01*
X390237Y741702D01*
X390231Y741716D01*
X390189Y741878D01*
X390153Y742108D01*
X390139Y742272D01*
Y747300D01*
X389984Y748080D01*
X389542Y748742D01*
X389342Y748942D01*
X388680Y749384D01*
X387900Y749539D01*
X387743D01*
X387723Y749640D01*
X387710Y749785D01*
X387685Y749834D01*
X387674Y749888D01*
X387593Y750009D01*
X387526Y750138D01*
X387484Y750173D01*
X387453Y750219D01*
X387332Y750300D01*
X387220Y750393D01*
X387168Y750409D01*
X387122Y750440D01*
X386980Y750468D01*
X386841Y750511D01*
X386786Y750506D01*
X386732Y750517D01*
X386589Y750489D01*
X386444Y750476D01*
X386396Y750450D01*
X386342Y750440D01*
X386221Y750359D01*
X386092Y750291D01*
X386057Y750249D01*
X386011Y750219D01*
X385930Y750098D01*
X385837Y749986D01*
X385821Y749933D01*
X385790Y749888D01*
X385762Y749745D01*
X385732Y749650D01*
X385679Y749629D01*
X385523Y749588D01*
X385305Y749552D01*
X385153Y749539D01*
X383062D01*
X383062Y749539D01*
X382281Y749384D01*
X382059Y749491D01*
X381831Y749685D01*
Y753400D01*
X381707Y754024D01*
X381706Y754026D01*
X381639Y755180D01*
Y755755D01*
X383809Y757925D01*
X383839D01*
X384494Y758101D01*
X385081Y758440D01*
X385560Y758919D01*
X385899Y759506D01*
X386075Y760161D01*
Y760839D01*
X385899Y761494D01*
X385560Y762081D01*
X385081Y762560D01*
X384494Y762899D01*
X383839Y763075D01*
X383161D01*
X382506Y762899D01*
X381919Y762560D01*
X381440Y762081D01*
X381101Y761494D01*
X380925Y760839D01*
Y760824D01*
X380825Y760709D01*
X378158Y758042D01*
X377716Y757380D01*
X377561Y756600D01*
Y754740D01*
X377529Y754183D01*
X377515Y754072D01*
X377512Y754053D01*
X377493Y754024D01*
X377369Y753400D01*
Y749600D01*
X377403Y749426D01*
X377086Y749039D01*
X376445D01*
X375274Y750210D01*
X375093Y750414D01*
X374858Y750710D01*
X374681Y750965D01*
X374563Y751171D01*
X374500Y751319D01*
X374490Y751355D01*
X374526Y751476D01*
X374579Y751592D01*
X374582Y751665D01*
X374603Y751736D01*
X374589Y751862D01*
X374594Y751990D01*
X374569Y752059D01*
X374561Y752132D01*
X374500Y752243D01*
X374456Y752363D01*
X374406Y752417D01*
X374371Y752481D01*
X374272Y752561D01*
X374186Y752655D01*
X374119Y752685D01*
X374062Y752731D01*
X373963Y752761D01*
X373842Y752942D01*
X373180Y753384D01*
X372400Y753539D01*
X372243D01*
X372223Y753640D01*
X372210Y753785D01*
X372185Y753834D01*
X372174Y753888D01*
X372093Y754009D01*
X372026Y754138D01*
X371984Y754173D01*
X371953Y754219D01*
X371832Y754299D01*
X371720Y754393D01*
X371668Y754409D01*
X371622Y754440D01*
X371480Y754468D01*
X371341Y754511D01*
X371286Y754506D01*
X371232Y754517D01*
X371189Y754509D01*
X370996Y754692D01*
X370872Y754959D01*
X370899Y755006D01*
X371075Y755661D01*
Y756339D01*
X370899Y756994D01*
X370560Y757581D01*
X370081Y758060D01*
X369494Y758399D01*
X368839Y758575D01*
X368161D01*
X367506Y758399D01*
X366919Y758060D01*
X366440Y757581D01*
X366101Y756994D01*
X366043Y756780D01*
X365543Y756846D01*
Y758720D01*
X365543Y758779D01*
Y759221D01*
X365543Y759279D01*
Y763721D01*
X365543Y763779D01*
Y764243D01*
X365968Y764461D01*
X373189D01*
X373969Y764616D01*
X374631Y765058D01*
X375497Y765924D01*
X375498Y765925D01*
X375839D01*
X376494Y766101D01*
X377081Y766440D01*
X377560Y766919D01*
X377899Y767506D01*
X378075Y768161D01*
Y768839D01*
X377899Y769494D01*
X377560Y770081D01*
X377081Y770560D01*
X376494Y770899D01*
X376373Y770932D01*
X376243Y771415D01*
X384289Y779461D01*
X390590D01*
X390777Y779431D01*
X391012Y779369D01*
X391259Y779278D01*
X391516Y779156D01*
X391786Y779002D01*
X392065Y778813D01*
X392355Y778589D01*
X392492Y778469D01*
X392361Y777810D01*
Y770740D01*
X392329Y770183D01*
X392315Y770072D01*
X392312Y770053D01*
X392293Y770024D01*
X392169Y769400D01*
Y765600D01*
X392293Y764976D01*
X392647Y764446D01*
X393176Y764093D01*
X393800Y763969D01*
X395000D01*
X395624Y764093D01*
X396153Y764446D01*
X396507Y764976D01*
X396631Y765600D01*
Y769400D01*
X396507Y770024D01*
X396506Y770026D01*
X396439Y771180D01*
Y776563D01*
X397150D01*
X398406Y776899D01*
X399531Y777549D01*
X400451Y778469D01*
X401101Y779594D01*
X401437Y780850D01*
Y782150D01*
X401101Y783406D01*
X400451Y784531D01*
X399531Y785451D01*
X398406Y786101D01*
X397150Y786437D01*
X395850D01*
X394594Y786101D01*
X393469Y785451D01*
X393055Y785037D01*
X392978Y784987D01*
X392654Y784672D01*
X392355Y784411D01*
X392065Y784187D01*
X391786Y783998D01*
X391516Y783844D01*
X391259Y783722D01*
X391012Y783631D01*
X390777Y783569D01*
X390590Y783539D01*
X383444D01*
X383444Y783539D01*
X382664Y783384D01*
X382002Y782942D01*
X382002Y782942D01*
X372600Y773539D01*
X365795D01*
X365543Y773550D01*
Y773779D01*
X364584D01*
X364549Y773787D01*
X364540Y773785D01*
X364531Y773787D01*
X364493Y773779D01*
X356457D01*
Y769220D01*
X356457D01*
Y768780D01*
X356457D01*
Y764280D01*
X356457Y764221D01*
Y763779D01*
X356457Y763721D01*
Y759279D01*
X356457Y759221D01*
Y758779D01*
X356457Y758720D01*
Y754220D01*
X360177D01*
X360227Y753721D01*
X359940Y753663D01*
X359278Y753222D01*
X358837Y752560D01*
X358681Y751780D01*
X358837Y750999D01*
X359278Y750338D01*
X359558Y750058D01*
X359558Y750058D01*
X360220Y749616D01*
X361000Y749461D01*
X361000Y749461D01*
X363755D01*
X363947Y749279D01*
X363749Y748779D01*
X356457D01*
Y744279D01*
X356457Y744220D01*
X356457D01*
Y743780D01*
X356457D01*
Y740271D01*
X356449Y740233D01*
X356457Y740194D01*
Y739221D01*
X356917D01*
X356961Y738729D01*
Y738602D01*
X356940Y738581D01*
X356601Y737994D01*
X356425Y737339D01*
Y737000D01*
X352500D01*
Y854500D01*
X434000D01*
Y813899D01*
D02*
G37*
G36*
X429438Y807434D02*
X429151Y807637D01*
X428846Y807818D01*
X428524Y807978D01*
X428184Y808116D01*
X427826Y808234D01*
X427450Y808329D01*
X427056Y808404D01*
X426644Y808457D01*
X426214Y808489D01*
X425767Y808500D01*
Y811500D01*
X426214Y811511D01*
X427056Y811596D01*
X427450Y811670D01*
X427826Y811766D01*
X428184Y811884D01*
X428524Y812022D01*
X428846Y812182D01*
X429151Y812363D01*
X429438Y812566D01*
Y807434D01*
D02*
G37*
G36*
X421849Y812363D02*
X422154Y812182D01*
X422476Y812022D01*
X422816Y811884D01*
X423174Y811766D01*
X423551Y811670D01*
X423944Y811596D01*
X424356Y811543D01*
X424786Y811511D01*
X425233Y811500D01*
Y808500D01*
X424786Y808489D01*
X423944Y808404D01*
X423551Y808329D01*
X423174Y808234D01*
X422816Y808116D01*
X422476Y807978D01*
X422154Y807818D01*
X421849Y807637D01*
X421562Y807434D01*
Y812566D01*
X421849Y812363D01*
D02*
G37*
G36*
X455740Y805484D02*
X455341Y805463D01*
X454939Y805400D01*
X454535Y805293D01*
X454128Y805145D01*
X453718Y804954D01*
X453306Y804721D01*
X452891Y804445D01*
X452473Y804127D01*
X452053Y803766D01*
X451630Y803363D01*
X451280Y807256D01*
X451684Y807679D01*
X452362Y808517D01*
X452638Y808932D01*
X452871Y809344D01*
X453062Y809754D01*
X453211Y810161D01*
X453317Y810565D01*
X453381Y810967D01*
X453402Y811366D01*
X455740Y805484D01*
D02*
G37*
G36*
X424371Y796750D02*
X423773Y796131D01*
X422833Y795022D01*
X422491Y794532D01*
X422233Y794085D01*
X422060Y793680D01*
X421973Y793319D01*
X421970Y793000D01*
X422053Y792724D01*
X422220Y792491D01*
X418007Y796738D01*
X418239Y796568D01*
X418513Y796484D01*
X418830Y796485D01*
X419190Y796571D01*
X419593Y796742D01*
X420039Y796997D01*
X420527Y797338D01*
X421059Y797764D01*
X422250Y798871D01*
X424371Y796750D01*
D02*
G37*
G36*
X434849Y796363D02*
X435154Y796182D01*
X435476Y796022D01*
X435816Y795884D01*
X436174Y795766D01*
X436551Y795671D01*
X436944Y795596D01*
X437356Y795543D01*
X437786Y795511D01*
X438233Y795500D01*
Y792500D01*
X437786Y792489D01*
X436944Y792404D01*
X436551Y792330D01*
X436174Y792234D01*
X435816Y792116D01*
X435476Y791978D01*
X435154Y791818D01*
X434849Y791637D01*
X434562Y791434D01*
Y796566D01*
X434849Y796363D01*
D02*
G37*
G36*
X421591Y791433D02*
X421362Y791186D01*
X421160Y790912D01*
X420985Y790612D01*
X420837Y790285D01*
X420716Y789932D01*
X420621Y789551D01*
X420554Y789144D01*
X420513Y788711D01*
X420500Y788250D01*
X417500D01*
X417486Y788711D01*
X417446Y789144D01*
X417379Y789551D01*
X417284Y789932D01*
X417163Y790285D01*
X417015Y790612D01*
X416840Y790912D01*
X416638Y791186D01*
X416409Y791433D01*
X416153Y791653D01*
X421847D01*
X421591Y791433D01*
D02*
G37*
G36*
X533000Y787000D02*
X461500D01*
Y787229D01*
Y807225D01*
X461650Y807450D01*
X461844Y808425D01*
Y813740D01*
X461650Y814716D01*
X461500Y814940D01*
Y852500D01*
X533000D01*
Y787000D01*
D02*
G37*
G36*
X420508Y786795D02*
X420574Y785911D01*
X420632Y785531D01*
X420706Y785193D01*
X420797Y784896D01*
X420904Y784641D01*
X421027Y784427D01*
X421167Y784255D01*
X421324Y784124D01*
X416676D01*
X416833Y784255D01*
X416973Y784427D01*
X417096Y784641D01*
X417203Y784896D01*
X417294Y785193D01*
X417368Y785531D01*
X417426Y785911D01*
X417467Y786333D01*
X417500Y787299D01*
X420500D01*
X420508Y786795D01*
D02*
G37*
G36*
X393688Y778744D02*
X393345Y779078D01*
X393003Y779376D01*
X392663Y779640D01*
X392325Y779868D01*
X391988Y780061D01*
X391653Y780219D01*
X391320Y780342D01*
X390988Y780430D01*
X390658Y780482D01*
X390330Y780500D01*
Y782500D01*
X390658Y782518D01*
X390988Y782570D01*
X391320Y782658D01*
X391653Y782781D01*
X391988Y782939D01*
X392325Y783132D01*
X392663Y783360D01*
X393003Y783624D01*
X393345Y783922D01*
X393688Y784256D01*
Y778744D01*
D02*
G37*
G36*
X364551Y772717D02*
X364611Y772671D01*
X364711Y772631D01*
X364851Y772596D01*
X365031Y772567D01*
X365251Y772543D01*
X366151Y772503D01*
X366531Y772500D01*
Y770500D01*
X366151Y770497D01*
X364851Y770404D01*
X364711Y770369D01*
X364611Y770329D01*
X364551Y770283D01*
X364531Y770232D01*
Y772767D01*
X364551Y772717D01*
D02*
G37*
G36*
X395402Y771461D02*
X395498Y769792D01*
X395525Y769693D01*
X395554Y769629D01*
X393246D01*
X393275Y769693D01*
X393302Y769792D01*
X393325Y769925D01*
X393345Y770094D01*
X393386Y770809D01*
X393400Y771840D01*
X395400D01*
X395402Y771461D01*
D02*
G37*
G36*
X421167Y774745D02*
X421027Y774573D01*
X420904Y774359D01*
X420797Y774104D01*
X420706Y773807D01*
X420632Y773469D01*
X420574Y773089D01*
X420533Y772668D01*
X420508Y771930D01*
X420515Y771637D01*
X420560Y771094D01*
X420635Y770620D01*
X420740Y770216D01*
X420875Y769880D01*
X421040Y769613D01*
X421235Y769416D01*
X421460Y769287D01*
X421715Y769228D01*
X422000Y769238D01*
X417434Y768562D01*
X417447Y768609D01*
X417458Y768713D01*
X417476Y769097D01*
X417500Y771648D01*
X417762Y771700D01*
X417500D01*
X417492Y772205D01*
X417426Y773089D01*
X417368Y773469D01*
X417294Y773807D01*
X417203Y774104D01*
X417096Y774359D01*
X416973Y774573D01*
X416833Y774745D01*
X416676Y774876D01*
X421324D01*
X421167Y774745D01*
D02*
G37*
G36*
X525909Y772948D02*
X525614Y772798D01*
X525353Y772548D01*
X525126Y772198D01*
X524935Y771748D01*
X524778Y771198D01*
X524657Y770548D01*
X524570Y769798D01*
X524517Y768948D01*
X524500Y767998D01*
X519500D01*
X519483Y768948D01*
X519343Y770548D01*
X519222Y771198D01*
X519065Y771748D01*
X518874Y772198D01*
X518647Y772548D01*
X518386Y772798D01*
X518091Y772948D01*
X517760Y772998D01*
X526240D01*
X525909Y772948D01*
D02*
G37*
G36*
X404214Y770000D02*
X403837Y769608D01*
X403239Y768898D01*
X403018Y768580D01*
X402849Y768285D01*
X402733Y768014D01*
X402668Y767767D01*
X402656Y767544D01*
X402696Y767346D01*
X402787Y767171D01*
X400771Y769954D01*
X400919Y769994D01*
X401079Y770057D01*
X401252Y770145D01*
X401436Y770255D01*
X401633Y770390D01*
X402063Y770729D01*
X402296Y770933D01*
X402800Y771414D01*
X404214Y770000D01*
D02*
G37*
G36*
X375264Y766943D02*
X375222Y766942D01*
X375170Y766927D01*
X375108Y766898D01*
X375038Y766856D01*
X374957Y766800D01*
X374769Y766646D01*
X374543Y766438D01*
X374416Y766313D01*
X373265Y767990D01*
X373938Y768704D01*
X375264Y766943D01*
D02*
G37*
G36*
X364551Y767717D02*
X364611Y767671D01*
X364711Y767631D01*
X364851Y767596D01*
X365031Y767567D01*
X365251Y767543D01*
X366151Y767503D01*
X366531Y767500D01*
Y765500D01*
X366151Y765497D01*
X364851Y765404D01*
X364711Y765369D01*
X364611Y765329D01*
X364551Y765283D01*
X364531Y765233D01*
Y767767D01*
X364551Y767717D01*
D02*
G37*
G36*
X434000Y763585D02*
X433741Y763451D01*
X433500Y763389D01*
X433024Y763707D01*
X432400Y763831D01*
X428600D01*
X427976Y763707D01*
X427974Y763706D01*
X426820Y763639D01*
X425948D01*
X425239Y764348D01*
X425045Y764565D01*
X424803Y764868D01*
X424758Y764933D01*
X424796Y765125D01*
Y767875D01*
X424612Y768802D01*
X424087Y769587D01*
X423302Y770112D01*
X422375Y770296D01*
X421816D01*
X421788Y770342D01*
X421710Y770535D01*
X421634Y770829D01*
X421573Y771216D01*
X421549Y771506D01*
Y772545D01*
X421551Y772601D01*
X421586Y772963D01*
X421635Y773283D01*
X421650Y773351D01*
X434000D01*
Y763585D01*
D02*
G37*
G36*
X423589Y765664D02*
X423501Y765514D01*
X423475Y765330D01*
X423510Y765112D01*
X423607Y764861D01*
X423765Y764576D01*
X423985Y764258D01*
X424266Y763907D01*
X424609Y763522D01*
X425013Y763104D01*
X423562Y761727D01*
X423070Y762204D01*
X422186Y762976D01*
X421794Y763271D01*
X421433Y763505D01*
X421106Y763678D01*
X420811Y763790D01*
X420550Y763842D01*
X420321Y763832D01*
X420124Y763762D01*
X423738Y765782D01*
X423589Y765664D01*
D02*
G37*
G36*
X428371Y760446D02*
X428307Y760475D01*
X428208Y760501D01*
X428075Y760525D01*
X427906Y760545D01*
X427191Y760586D01*
X426160Y760600D01*
Y762600D01*
X426539Y762602D01*
X428208Y762699D01*
X428307Y762725D01*
X428371Y762754D01*
Y760446D01*
D02*
G37*
G36*
X383484Y758925D02*
X383450Y758919D01*
X383406Y758899D01*
X383352Y758866D01*
X383287Y758820D01*
X383125Y758688D01*
X382923Y758503D01*
X382679Y758264D01*
X381264Y759679D01*
X381390Y759806D01*
X381866Y760352D01*
X381899Y760406D01*
X381919Y760450D01*
X381925Y760484D01*
X383484Y758925D01*
D02*
G37*
G36*
X380602Y755461D02*
X380698Y753792D01*
X380725Y753693D01*
X380754Y753629D01*
X378446D01*
X378475Y753693D01*
X378502Y753792D01*
X378525Y753925D01*
X378545Y754094D01*
X378586Y754809D01*
X378600Y755840D01*
X380600D01*
X380602Y755461D01*
D02*
G37*
G36*
X364551Y752717D02*
X364611Y752671D01*
X364711Y752631D01*
X364851Y752596D01*
X365031Y752567D01*
X365251Y752543D01*
X366151Y752503D01*
X366531Y752500D01*
Y750500D01*
X366151Y750497D01*
X364851Y750404D01*
X364711Y750369D01*
X364611Y750329D01*
X364551Y750283D01*
X364531Y750233D01*
Y752768D01*
X364551Y752717D01*
D02*
G37*
G36*
X371232Y749502D02*
X371212Y749692D01*
X371151Y749861D01*
X371049Y750011D01*
X370907Y750141D01*
X370724Y750251D01*
X370501Y750340D01*
X370237Y750410D01*
X369932Y750460D01*
X369586Y750490D01*
X369200Y750500D01*
Y752500D01*
X369586Y752510D01*
X369932Y752540D01*
X370237Y752590D01*
X370501Y752660D01*
X370724Y752749D01*
X370907Y752859D01*
X371049Y752989D01*
X371151Y753138D01*
X371212Y753308D01*
X371232Y753498D01*
Y749502D01*
D02*
G37*
G36*
X398232Y748502D02*
X398300Y748500D01*
Y746500D01*
X398232Y746498D01*
Y745502D01*
X398212Y745692D01*
X398151Y745861D01*
X398049Y746011D01*
X397907Y746141D01*
X397724Y746251D01*
X397501Y746340D01*
X397250Y746407D01*
X396999Y746340D01*
X396776Y746251D01*
X396593Y746141D01*
X396451Y746011D01*
X396349Y745861D01*
X396288Y745692D01*
X396268Y745502D01*
Y746498D01*
X396200Y746500D01*
Y748500D01*
X396268Y748502D01*
Y749498D01*
X396288Y749308D01*
X396349Y749138D01*
X396451Y748989D01*
X396593Y748859D01*
X396776Y748749D01*
X396999Y748660D01*
X397250Y748593D01*
X397501Y748660D01*
X397724Y748749D01*
X397907Y748859D01*
X398049Y748989D01*
X398151Y749138D01*
X398212Y749308D01*
X398232Y749498D01*
Y748502D01*
D02*
G37*
G36*
X423602Y752306D02*
X423667Y752137D01*
X423776Y751988D01*
X423927Y751858D01*
X424123Y751749D01*
X424361Y751659D01*
X424643Y751590D01*
X424969Y751540D01*
X425338Y751510D01*
X425750Y751500D01*
Y749500D01*
X425338Y749490D01*
X424969Y749460D01*
X424643Y749410D01*
X424361Y749341D01*
X424123Y749251D01*
X423927Y749142D01*
X423776Y749012D01*
X423667Y748863D01*
X423602Y748694D01*
X423580Y748505D01*
Y752495D01*
X423602Y752306D01*
D02*
G37*
G36*
X373496Y751654D02*
X373456Y751456D01*
X373468Y751233D01*
X373533Y750986D01*
X373649Y750715D01*
X373818Y750420D01*
X374039Y750102D01*
X374312Y749759D01*
X374637Y749392D01*
X375014Y749001D01*
X373600Y747586D01*
X373342Y747838D01*
X372642Y748453D01*
X372433Y748610D01*
X372052Y748855D01*
X371879Y748943D01*
X371719Y749006D01*
X371571Y749046D01*
X373587Y751829D01*
X373496Y751654D01*
D02*
G37*
G36*
X514500Y764000D02*
X497000Y746500D01*
X446500D01*
Y767500D01*
X501500D01*
Y782500D01*
X514500D01*
Y764000D01*
D02*
G37*
G36*
X422309Y747758D02*
X422139Y747697D01*
X421989Y747596D01*
X421859Y747454D01*
X421750Y747271D01*
X421660Y747048D01*
X421590Y746785D01*
X421540Y746481D01*
X421510Y746136D01*
X421500Y745750D01*
X419500D01*
X419490Y746136D01*
X419460Y746481D01*
X419410Y746785D01*
X419340Y747048D01*
X419250Y747271D01*
X419141Y747454D01*
X419011Y747596D01*
X418861Y747697D01*
X418691Y747758D01*
X418502Y747779D01*
X422498D01*
X422309Y747758D01*
D02*
G37*
G36*
X386732Y745502D02*
X386712Y745692D01*
X386651Y745861D01*
X386549Y746011D01*
X386407Y746141D01*
X386224Y746251D01*
X386001Y746340D01*
X385737Y746410D01*
X385432Y746460D01*
X385086Y746490D01*
X384700Y746500D01*
Y748500D01*
X385086Y748510D01*
X385432Y748540D01*
X385737Y748590D01*
X386001Y748660D01*
X386224Y748749D01*
X386407Y748859D01*
X386549Y748989D01*
X386651Y749138D01*
X386712Y749308D01*
X386732Y749498D01*
Y745502D01*
D02*
G37*
G36*
X364551Y747717D02*
X364611Y747671D01*
X364711Y747631D01*
X364851Y747596D01*
X365031Y747567D01*
X365251Y747543D01*
X366151Y747503D01*
X366531Y747500D01*
Y745500D01*
X366151Y745497D01*
X364851Y745404D01*
X364711Y745369D01*
X364611Y745329D01*
X364551Y745283D01*
X364531Y745232D01*
Y747767D01*
X364551Y747717D01*
D02*
G37*
G36*
X378871Y741446D02*
X378807Y741475D01*
X378709Y741502D01*
X378575Y741525D01*
X378406Y741545D01*
X377691Y741586D01*
X377332Y741591D01*
X375792Y741502D01*
X375693Y741475D01*
X375629Y741446D01*
Y743754D01*
X375693Y743725D01*
X375792Y743699D01*
X375925Y743675D01*
X376094Y743655D01*
X376809Y743614D01*
X377168Y743609D01*
X378709Y743699D01*
X378807Y743725D01*
X378871Y743754D01*
Y741446D01*
D02*
G37*
G36*
X407725Y745307D02*
X407698Y745209D01*
X407675Y745075D01*
X407655Y744906D01*
X407614Y744191D01*
X407600Y743160D01*
X405600D01*
X405598Y743539D01*
X405502Y745209D01*
X405475Y745307D01*
X405446Y745371D01*
X407754D01*
X407725Y745307D01*
D02*
G37*
G36*
X396225D02*
X396199Y745209D01*
X396175Y745075D01*
X396155Y744906D01*
X396114Y744191D01*
X396100Y743160D01*
X394100D01*
X394098Y743539D01*
X394002Y745209D01*
X393975Y745307D01*
X393946Y745371D01*
X396254D01*
X396225Y745307D01*
D02*
G37*
G36*
X389063Y745365D02*
X389070Y745322D01*
X389077Y745240D01*
X389095Y744532D01*
X389100Y743600D01*
X387100Y743040D01*
X387097Y743388D01*
X387012Y744523D01*
X386973Y744743D01*
X386927Y744938D01*
X386874Y745108D01*
X386813Y745252D01*
X386746Y745371D01*
X389054D01*
X389063Y745365D01*
D02*
G37*
G36*
X371314Y744904D02*
X372455Y743913D01*
X372597Y743826D01*
X372711Y743776D01*
X372796Y743763D01*
X372853Y743787D01*
X371025Y741937D01*
X371049Y741994D01*
X371035Y742079D01*
X370984Y742194D01*
X370896Y742337D01*
X370771Y742509D01*
X370409Y742939D01*
X369898Y743484D01*
X369586Y743799D01*
X371001Y745214D01*
X371314Y744904D01*
D02*
G37*
G36*
X360810Y740212D02*
X360640Y740153D01*
X360490Y740053D01*
X360360Y739913D01*
X360250Y739733D01*
X360160Y739512D01*
X360090Y739253D01*
X360040Y738952D01*
X360019Y738716D01*
X360050Y738260D01*
X360066Y738198D01*
X360083Y738153D01*
X360102Y738125D01*
X357898D01*
X357917Y738153D01*
X357934Y738198D01*
X357950Y738260D01*
X357963Y738339D01*
X357984Y738546D01*
X357989Y738673D01*
X357915Y739512D01*
X357867Y739733D01*
X357809Y739913D01*
X357740Y740053D01*
X357660Y740153D01*
X357570Y740212D01*
X357469Y740233D01*
X361000D01*
X360810Y740212D01*
D02*
G37*
G36*
X433741Y752549D02*
X434000Y752415D01*
Y737000D01*
X422539D01*
Y746202D01*
X422552Y746353D01*
X422588Y746571D01*
X422629Y746726D01*
X422641Y746757D01*
X423302Y746888D01*
X424087Y747413D01*
X424612Y748198D01*
X424644Y748358D01*
X424664Y748365D01*
X424843Y748410D01*
X425087Y748447D01*
X425260Y748461D01*
X426600D01*
X427380Y748616D01*
X428042Y749058D01*
X430442Y751458D01*
X430884Y752120D01*
X430894Y752169D01*
X432400D01*
X433024Y752293D01*
X433500Y752611D01*
X433741Y752549D01*
D02*
G37*
G36*
X389110Y742345D02*
X389140Y741986D01*
X389190Y741670D01*
X389260Y741399D01*
X389350Y741173D01*
X389459Y740991D01*
X389589Y740854D01*
X389739Y740761D01*
X389909Y740712D01*
X390098Y740708D01*
X386404Y740370D01*
X385762Y736600D01*
X385773Y736790D01*
X385736Y736960D01*
X385653Y737110D01*
X385522Y737240D01*
X385344Y737350D01*
X385120Y737440D01*
X384848Y737510D01*
X384529Y737560D01*
X384163Y737590D01*
X383750Y737600D01*
X383780Y739600D01*
X384058Y739610D01*
X384334Y739639D01*
X384607Y739687D01*
X384877Y739754D01*
X385144Y739841D01*
X385408Y739948D01*
X385670Y740073D01*
X385929Y740218D01*
X386185Y740382D01*
X386242Y740424D01*
X386333Y740502D01*
X386494Y740676D01*
X386636Y740868D01*
X386759Y741080D01*
X386863Y741310D01*
X386948Y741560D01*
X387015Y741828D01*
X387062Y742115D01*
X387090Y742421D01*
X387100Y742746D01*
X389100Y742750D01*
X389110Y742345D01*
D02*
G37*
G36*
X377414Y736599D02*
X377162Y736342D01*
X376547Y735642D01*
X376390Y735433D01*
X376145Y735052D01*
X376058Y734879D01*
X375994Y734719D01*
X375954Y734571D01*
X373171Y736587D01*
X373346Y736496D01*
X373544Y736456D01*
X373767Y736468D01*
X374014Y736533D01*
X374285Y736649D01*
X374580Y736818D01*
X374899Y737039D01*
X375241Y737312D01*
X375608Y737637D01*
X375999Y738014D01*
X377414Y736599D01*
D02*
G37*
G36*
X383494Y736081D02*
X383558Y735921D01*
X383645Y735748D01*
X383755Y735564D01*
X383890Y735367D01*
X384229Y734937D01*
X384433Y734704D01*
X384914Y734200D01*
X383500Y732786D01*
X383108Y733163D01*
X382399Y733761D01*
X382080Y733982D01*
X381785Y734151D01*
X381514Y734267D01*
X381267Y734332D01*
X381044Y734344D01*
X380846Y734304D01*
X380671Y734212D01*
X383454Y736229D01*
X383494Y736081D01*
D02*
G37*
G36*
X484375Y735668D02*
X484525Y735528D01*
X484775Y735404D01*
X485125Y735297D01*
X485575Y735206D01*
X486125Y735132D01*
X487525Y735033D01*
X489325Y735000D01*
Y730000D01*
X488375Y729992D01*
X485575Y729794D01*
X485125Y729703D01*
X484775Y729596D01*
X484525Y729472D01*
X484375Y729332D01*
X484325Y729175D01*
Y735825D01*
X484375Y735668D01*
D02*
G37*
G36*
X418461Y728563D02*
X417982Y728556D01*
X417529Y728526D01*
X417102Y728472D01*
X416702Y728394D01*
X416327Y728292D01*
X415979Y728167D01*
X415656Y728018D01*
X415359Y727846D01*
X415089Y727650D01*
X414844Y727430D01*
X413430Y728844D01*
X413650Y729089D01*
X413846Y729359D01*
X414018Y729656D01*
X414167Y729979D01*
X414292Y730327D01*
X414394Y730702D01*
X414471Y731103D01*
X414526Y731529D01*
X414556Y731982D01*
X414563Y732461D01*
X418461Y728563D01*
D02*
G37*
G36*
X330000Y721410D02*
X154000D01*
Y997000D01*
X330000D01*
Y721410D01*
D02*
G37*
%LPC*%
G36*
X360977Y984020D02*
X360833Y983991D01*
X360688Y983978D01*
X360640Y983953D01*
X360587Y983942D01*
X360467Y983862D01*
X360347Y983942D01*
X360294Y983953D01*
X360246Y983978D01*
X360100Y983991D01*
X359957Y984020D01*
X359904Y984009D01*
X359850Y984014D01*
X359710Y983971D01*
X359566Y983942D01*
X359521Y983912D01*
X359470Y983896D01*
X359357Y983802D01*
X359236Y983721D01*
X359206Y983676D01*
X359164Y983642D01*
X359096Y983512D01*
X359015Y983390D01*
X359004Y983337D01*
X358979Y983289D01*
X358965Y983144D01*
X358945Y983039D01*
X358000D01*
X357220Y982884D01*
X356558Y982442D01*
X356116Y981780D01*
X355961Y981000D01*
X356116Y980220D01*
X356558Y979558D01*
X357220Y979116D01*
X358000Y978961D01*
X358945D01*
X358965Y978856D01*
X358979Y978711D01*
X359004Y978663D01*
X359015Y978610D01*
X359096Y978488D01*
X359164Y978358D01*
X359206Y978324D01*
X359236Y978279D01*
X359357Y978198D01*
X359470Y978104D01*
X359521Y978088D01*
X359566Y978058D01*
X359710Y978030D01*
X359850Y977986D01*
X359904Y977991D01*
X359957Y977980D01*
X360100Y978009D01*
X360246Y978022D01*
X360294Y978047D01*
X360347Y978058D01*
X360467Y978138D01*
X360587Y978058D01*
X360640Y978047D01*
X360688Y978022D01*
X360833Y978009D01*
X360974Y977981D01*
X361037Y977661D01*
X361336Y977213D01*
X361328Y977205D01*
X361262Y977105D01*
X361180Y977017D01*
X361152Y976941D01*
X361107Y976875D01*
X361084Y976756D01*
X361042Y976643D01*
X361045Y976563D01*
X361030Y976484D01*
X361053Y976366D01*
X361058Y976246D01*
X361092Y976173D01*
X361107Y976094D01*
X361174Y975994D01*
X361225Y975885D01*
X361284Y975830D01*
X361328Y975764D01*
X361428Y975697D01*
X361517Y975615D01*
X361592Y975587D01*
X361659Y975543D01*
X361777Y975519D01*
X361890Y975477D01*
X361971Y975480D01*
X362049Y975465D01*
X362168Y975488D01*
X362288Y975493D01*
X362361Y975527D01*
X362439Y975543D01*
X362540Y975609D01*
X362550Y975614D01*
X362658Y975569D01*
X362862Y975452D01*
X363110Y975279D01*
X363688Y974790D01*
X376620Y961858D01*
X377282Y961416D01*
X377288Y961415D01*
X377321Y961393D01*
X377404Y961358D01*
X377477Y961307D01*
X377576Y961263D01*
X377687Y961238D01*
X377792Y961195D01*
X377879Y961195D01*
X377964Y961176D01*
X378076Y961195D01*
X378190Y961196D01*
X378242Y961206D01*
X378296Y961229D01*
X378355Y961236D01*
X378400Y961261D01*
X379653D01*
X379720Y961216D01*
X380500Y961061D01*
X382154D01*
X382239Y961004D01*
X382259Y961000D01*
X382276Y960990D01*
X382453Y960962D01*
X382629Y960927D01*
X382649Y960930D01*
X382669Y960927D01*
X382843Y960969D01*
X382944Y960989D01*
X384180Y961061D01*
X387260D01*
X387817Y961028D01*
X387928Y961015D01*
X387976Y961007D01*
X387980Y961004D01*
X388026Y960995D01*
X388045Y960990D01*
X388055Y960989D01*
X388157Y960969D01*
X388331Y960927D01*
X388351Y960930D01*
X388371Y960927D01*
X388547Y960962D01*
X388724Y960990D01*
X388741Y961000D01*
X388761Y961004D01*
X388846Y961061D01*
X392154D01*
X392239Y961004D01*
X392259Y961000D01*
X392276Y960990D01*
X392453Y960962D01*
X392629Y960927D01*
X392649Y960930D01*
X392669Y960927D01*
X392843Y960969D01*
X392944Y960989D01*
X394180Y961061D01*
X396997D01*
X397500Y960961D01*
X398280Y961116D01*
X398942Y961558D01*
X399384Y962220D01*
X399539Y963000D01*
X399384Y963780D01*
X398942Y964442D01*
X398842Y964542D01*
X398180Y964984D01*
X397400Y965139D01*
X393740D01*
X393183Y965172D01*
X393072Y965185D01*
X393024Y965193D01*
X393020Y965196D01*
X392974Y965205D01*
X392955Y965210D01*
X392945Y965211D01*
X392843Y965231D01*
X392669Y965273D01*
X392649Y965270D01*
X392629Y965273D01*
X392453Y965238D01*
X392276Y965210D01*
X392259Y965200D01*
X392239Y965196D01*
X392154Y965139D01*
X388846D01*
X388761Y965196D01*
X388741Y965200D01*
X388724Y965210D01*
X388547Y965238D01*
X388371Y965273D01*
X388351Y965270D01*
X388331Y965273D01*
X388157Y965231D01*
X388056Y965211D01*
X386820Y965139D01*
X383740D01*
X383183Y965172D01*
X383072Y965185D01*
X383024Y965193D01*
X383020Y965196D01*
X382974Y965205D01*
X382955Y965210D01*
X382945Y965211D01*
X382843Y965231D01*
X382669Y965273D01*
X382649Y965270D01*
X382629Y965273D01*
X382453Y965238D01*
X382276Y965210D01*
X382259Y965200D01*
X382239Y965196D01*
X382154Y965139D01*
X381147D01*
X381080Y965184D01*
X380300Y965339D01*
X379055D01*
X378857Y965477D01*
X378277Y965969D01*
X366666Y977580D01*
X366329Y977943D01*
X366091Y978240D01*
X365910Y978500D01*
X365794Y978705D01*
X365748Y978812D01*
X365753Y978823D01*
X365820Y978923D01*
X365835Y979001D01*
X365869Y979074D01*
X365874Y979195D01*
X365897Y979313D01*
X365882Y979392D01*
X365885Y979472D01*
X365843Y979585D01*
X365820Y979703D01*
X365775Y979770D01*
X365747Y979845D01*
X365666Y979934D01*
X365599Y980034D01*
X365532Y980079D01*
X365477Y980137D01*
X365368Y980188D01*
X365268Y980255D01*
X365189Y980270D01*
X365116Y980304D01*
X364996Y980309D01*
X364960Y980316D01*
Y981000D01*
X364805Y981780D01*
X364363Y982442D01*
X363702Y982884D01*
X362921Y983039D01*
X361989D01*
X361968Y983143D01*
X361955Y983289D01*
X361929Y983337D01*
X361919Y983390D01*
X361838Y983512D01*
X361770Y983641D01*
X361728Y983676D01*
X361698Y983721D01*
X361576Y983802D01*
X361464Y983896D01*
X361412Y983912D01*
X361367Y983942D01*
X361224Y983971D01*
X361084Y984014D01*
X361030Y984009D01*
X360977Y984020D01*
D02*
G37*
G36*
X392400Y958131D02*
X388600D01*
X387976Y958007D01*
X387974Y958006D01*
X386820Y957939D01*
X383740D01*
X383183Y957971D01*
X383072Y957985D01*
X383053Y957988D01*
X383024Y958007D01*
X382400Y958131D01*
X378600D01*
X377976Y958007D01*
X377447Y957654D01*
X377284Y957411D01*
X377184Y957313D01*
X376927Y957142D01*
X363782Y943997D01*
X363420Y943660D01*
X363122Y943422D01*
X362862Y943241D01*
X362826Y943221D01*
X362087D01*
X362049Y943228D01*
X362011Y943221D01*
X355031D01*
Y932165D01*
X360788D01*
X360796Y932143D01*
X360836Y931989D01*
X360870Y931774D01*
X360882Y931633D01*
Y927979D01*
X361037Y927198D01*
X361479Y926537D01*
X368226Y919790D01*
X368407Y919586D01*
X368642Y919290D01*
X368819Y919035D01*
X368869Y918948D01*
Y916600D01*
X368993Y915976D01*
X369346Y915446D01*
X369876Y915093D01*
X370500Y914969D01*
X371700D01*
X372324Y915093D01*
X372853Y915446D01*
X373207Y915976D01*
X373331Y916600D01*
Y920400D01*
X373207Y921024D01*
X372853Y921554D01*
X372565Y921746D01*
X372552Y921761D01*
X372538Y921768D01*
X372528Y921779D01*
X372488Y921798D01*
X372324Y921907D01*
X372214Y921929D01*
X372195Y921938D01*
X372103Y921963D01*
X372040Y921988D01*
X371955Y922031D01*
X371650Y922227D01*
X371502Y922338D01*
X371036Y922748D01*
X364960Y928823D01*
Y931633D01*
X364972Y931774D01*
X365007Y931990D01*
X365046Y932143D01*
X365055Y932165D01*
X365890D01*
Y933139D01*
X365897Y933177D01*
X365890Y933216D01*
Y933272D01*
X365891Y933289D01*
X365890Y933294D01*
Y939342D01*
X365897Y939380D01*
X365890Y939418D01*
Y940157D01*
X365910Y940193D01*
X366083Y940441D01*
X366572Y941019D01*
X378466Y952913D01*
X378823Y953244D01*
X379119Y953481D01*
X379376Y953661D01*
X380300D01*
X380339Y953669D01*
X382400D01*
X383024Y953793D01*
X383026Y953794D01*
X384180Y953861D01*
X387260D01*
X387817Y953829D01*
X387928Y953815D01*
X387947Y953812D01*
X387976Y953793D01*
X388600Y953669D01*
X392400D01*
X393024Y953793D01*
X393026Y953794D01*
X394180Y953861D01*
X396783D01*
X396896Y953838D01*
X397082Y953761D01*
X397283D01*
X397480Y953722D01*
X397677Y953761D01*
X397878D01*
X398063Y953838D01*
X398260Y953878D01*
X398427Y953989D01*
X398613Y954066D01*
X398755Y954208D01*
X398922Y954320D01*
X399033Y954487D01*
X399175Y954629D01*
X399252Y954814D01*
X399364Y954981D01*
X399403Y955178D01*
X399480Y955364D01*
Y955564D01*
X399519Y955762D01*
X399480Y955958D01*
Y956159D01*
X399403Y956345D01*
X399364Y956542D01*
X399252Y956709D01*
X399175Y956894D01*
X399033Y957036D01*
X398922Y957203D01*
X398783Y957342D01*
X398616Y957454D01*
X398613Y957457D01*
X398608Y957459D01*
X398122Y957784D01*
X397341Y957939D01*
X393740D01*
X393183Y957971D01*
X393072Y957985D01*
X393053Y957988D01*
X393024Y958007D01*
X392400Y958131D01*
D02*
G37*
G36*
X363900Y920539D02*
X363120Y920384D01*
X362458Y919942D01*
X362016Y919280D01*
X361884Y918617D01*
X361521Y918525D01*
X361375Y918535D01*
X361060Y919081D01*
X360581Y919560D01*
X359994Y919899D01*
X359339Y920075D01*
X358661D01*
X358006Y919899D01*
X357419Y919560D01*
X356940Y919081D01*
X356601Y918494D01*
X356425Y917839D01*
Y917161D01*
X356601Y916506D01*
X356940Y915919D01*
X357419Y915440D01*
X358006Y915101D01*
X358661Y914925D01*
X359339D01*
X359994Y915101D01*
X360581Y915440D01*
X361060Y915919D01*
X361245Y916238D01*
X361756Y916159D01*
X361771Y916149D01*
X361789Y916056D01*
X361861Y914820D01*
Y914176D01*
X361769Y914039D01*
X361000D01*
X360220Y913884D01*
X359558Y913442D01*
X359116Y912780D01*
X358961Y912000D01*
X359116Y911220D01*
X359558Y910558D01*
X360220Y910116D01*
X361000Y909961D01*
X363264D01*
X364044Y910116D01*
X364706Y910558D01*
X364985Y910838D01*
X364985Y910838D01*
X365427Y911499D01*
X365582Y912280D01*
X365582Y912280D01*
Y912369D01*
X365784Y912671D01*
X365939Y913451D01*
X365939Y913451D01*
Y915260D01*
X365971Y915817D01*
X365985Y915928D01*
X365993Y915976D01*
X365996Y915980D01*
X366005Y916026D01*
X366010Y916045D01*
X366011Y916055D01*
X366031Y916157D01*
X366073Y916331D01*
X366070Y916351D01*
X366073Y916371D01*
X366038Y916547D01*
X366010Y916724D01*
X366000Y916741D01*
X365996Y916761D01*
X365939Y916846D01*
Y918500D01*
X365784Y919280D01*
X365342Y919942D01*
X364680Y920384D01*
X363900Y920539D01*
D02*
G37*
G36*
X408600Y888531D02*
X407400D01*
X406776Y888407D01*
X406247Y888054D01*
X405893Y887524D01*
X405769Y886900D01*
Y883100D01*
X405893Y882476D01*
X405894Y882474D01*
X405961Y881320D01*
Y880353D01*
X405708Y880117D01*
X405406Y879875D01*
X405294Y879797D01*
X402625D01*
X401698Y879612D01*
X400913Y879087D01*
X400388Y878302D01*
X400204Y877375D01*
Y873625D01*
X400388Y872698D01*
X400913Y871913D01*
X401698Y871388D01*
X402625Y871204D01*
X405375D01*
X406302Y871388D01*
X407087Y871913D01*
X407612Y872698D01*
X407796Y873625D01*
Y876219D01*
X407838Y876292D01*
X408006Y876534D01*
X408469Y877085D01*
X409442Y878058D01*
X409884Y878720D01*
X410039Y879500D01*
Y881760D01*
X410072Y882317D01*
X410085Y882428D01*
X410088Y882447D01*
X410107Y882476D01*
X410231Y883100D01*
Y886900D01*
X410107Y887524D01*
X409754Y888054D01*
X409224Y888407D01*
X408600Y888531D01*
D02*
G37*
%LPD*%
G36*
X360977Y982083D02*
X361237Y982040D01*
X361577Y982010D01*
X361957Y982000D01*
Y980000D01*
X361577Y979990D01*
X361237Y979960D01*
X360977Y979917D01*
Y979000D01*
X360957Y979190D01*
X360896Y979360D01*
X360796Y979510D01*
X360655Y979640D01*
X360474Y979750D01*
X360465Y979753D01*
X360456Y979750D01*
X360277Y979640D01*
X360137Y979510D01*
X360036Y979360D01*
X359977Y979190D01*
X359957Y979000D01*
Y979916D01*
X359689Y979960D01*
X359347Y979990D01*
X358965Y980000D01*
Y982000D01*
X359347Y982010D01*
X359689Y982040D01*
X359957Y982084D01*
Y983000D01*
X359977Y982810D01*
X360036Y982640D01*
X360137Y982490D01*
X360277Y982360D01*
X360456Y982250D01*
X360465Y982246D01*
X360474Y982250D01*
X360655Y982360D01*
X360796Y982490D01*
X360896Y982640D01*
X360957Y982810D01*
X360977Y983000D01*
Y982083D01*
D02*
G37*
G36*
X364765Y979157D02*
X364708Y978973D01*
Y978761D01*
X364765Y978521D01*
X364878Y978252D01*
X365048Y977955D01*
X365274Y977630D01*
X365557Y977276D01*
X366292Y976484D01*
X364878Y975070D01*
X364468Y975466D01*
X363732Y976089D01*
X363407Y976315D01*
X363110Y976484D01*
X362841Y976598D01*
X362601Y976654D01*
X362389D01*
X362205Y976598D01*
X362049Y976484D01*
X364878Y979313D01*
X364765Y979157D01*
D02*
G37*
G36*
X377496Y965294D02*
X378234Y964669D01*
X378559Y964442D01*
X378854Y964273D01*
X379120Y964161D01*
X379357Y964106D01*
X379564Y964109D01*
X379743Y964170D01*
X379891Y964287D01*
X378046Y962271D01*
X378041Y962206D01*
X377989Y962195D01*
X377890Y962239D01*
X377743Y962337D01*
X377550Y962490D01*
X377023Y962958D01*
X375879Y964069D01*
X377083Y965693D01*
X377496Y965294D01*
D02*
G37*
G36*
X392693Y964225D02*
X392792Y964198D01*
X392925Y964175D01*
X393094Y964155D01*
X393809Y964114D01*
X394840Y964100D01*
Y962100D01*
X394461Y962099D01*
X392792Y962002D01*
X392693Y961975D01*
X392629Y961946D01*
Y964254D01*
X392693Y964225D01*
D02*
G37*
G36*
X388371Y961946D02*
X388307Y961975D01*
X388209Y962002D01*
X388075Y962025D01*
X387906Y962045D01*
X387191Y962086D01*
X386160Y962100D01*
Y964100D01*
X386539Y964102D01*
X388209Y964198D01*
X388307Y964225D01*
X388371Y964254D01*
Y961946D01*
D02*
G37*
G36*
X382693Y964225D02*
X382791Y964198D01*
X382925Y964175D01*
X383094Y964155D01*
X383809Y964114D01*
X384840Y964100D01*
Y962100D01*
X384461Y962099D01*
X382791Y962002D01*
X382693Y961975D01*
X382629Y961946D01*
Y964254D01*
X382693Y964225D01*
D02*
G37*
G36*
X392693Y957025D02*
X392792Y956999D01*
X392925Y956975D01*
X393094Y956955D01*
X393809Y956914D01*
X394840Y956900D01*
Y954900D01*
X394461Y954898D01*
X392792Y954801D01*
X392693Y954775D01*
X392629Y954746D01*
Y957054D01*
X392693Y957025D01*
D02*
G37*
G36*
X388371Y954746D02*
X388307Y954775D01*
X388209Y954801D01*
X388075Y954825D01*
X387906Y954845D01*
X387191Y954886D01*
X386160Y954900D01*
Y956900D01*
X386539Y956901D01*
X388209Y956999D01*
X388307Y957025D01*
X388371Y957054D01*
Y954746D01*
D02*
G37*
G36*
X382693Y957025D02*
X382791Y956999D01*
X382925Y956975D01*
X383094Y956955D01*
X383809Y956914D01*
X384840Y956900D01*
Y954900D01*
X384461Y954898D01*
X382791Y954801D01*
X382693Y954775D01*
X382629Y954746D01*
Y957054D01*
X382693Y957025D01*
D02*
G37*
G36*
X380198Y954712D02*
X380040Y954820D01*
X379853Y954873D01*
X379640Y954869D01*
X379398Y954810D01*
X379129Y954695D01*
X378833Y954525D01*
X378508Y954299D01*
X378156Y954017D01*
X377370Y953286D01*
X375879Y954624D01*
X378046Y956729D01*
X380198Y954712D01*
D02*
G37*
G36*
X366292Y942208D02*
X365896Y941798D01*
X365274Y941063D01*
X365048Y940738D01*
X364878Y940441D01*
X364765Y940172D01*
X364708Y939932D01*
Y939719D01*
X364765Y939536D01*
X364878Y939380D01*
X362049Y942208D01*
X362205Y942095D01*
X362389Y942039D01*
X362601D01*
X362841Y942095D01*
X363110Y942208D01*
X363407Y942378D01*
X363732Y942605D01*
X364086Y942887D01*
X364878Y943623D01*
X366292Y942208D01*
D02*
G37*
G36*
X360977Y938776D02*
X361237Y938733D01*
X361577Y938703D01*
X361957Y938693D01*
Y936693D01*
X361577Y936683D01*
X361237Y936653D01*
X360977Y936610D01*
Y935693D01*
X360957Y935883D01*
X360896Y936053D01*
X360796Y936203D01*
X360655Y936333D01*
X360474Y936443D01*
X360465Y936446D01*
X360456Y936443D01*
X360277Y936333D01*
X360137Y936203D01*
X360036Y936053D01*
X359977Y935883D01*
X359957Y935693D01*
Y936609D01*
X359689Y936653D01*
X359347Y936683D01*
X358965Y936693D01*
Y938693D01*
X359347Y938703D01*
X359689Y938733D01*
X359957Y938777D01*
Y939693D01*
X359977Y939503D01*
X360036Y939333D01*
X360137Y939183D01*
X360277Y939053D01*
X360456Y938943D01*
X360465Y938939D01*
X360474Y938943D01*
X360655Y939053D01*
X360796Y939183D01*
X360896Y939333D01*
X360957Y939503D01*
X360977Y939693D01*
Y938776D01*
D02*
G37*
G36*
X364696Y933157D02*
X364533Y933097D01*
X364390Y932997D01*
X364266Y932857D01*
X364160Y932677D01*
X364074Y932457D01*
X364007Y932197D01*
X363960Y931897D01*
X363931Y931557D01*
X363921Y931177D01*
X361921D01*
X361912Y931557D01*
X361883Y931897D01*
X361835Y932197D01*
X361768Y932457D01*
X361682Y932677D01*
X361577Y932857D01*
X361453Y932997D01*
X361309Y933097D01*
X361146Y933157D01*
X360965Y933177D01*
X364878D01*
X364696Y933157D01*
D02*
G37*
G36*
X370158Y922162D02*
X370858Y921547D01*
X371067Y921389D01*
X371448Y921145D01*
X371621Y921058D01*
X371781Y920994D01*
X371929Y920954D01*
X369913Y918171D01*
X370004Y918346D01*
X370044Y918544D01*
X370032Y918767D01*
X369967Y919014D01*
X369851Y919285D01*
X369682Y919580D01*
X369461Y919899D01*
X369188Y920241D01*
X368863Y920609D01*
X368486Y921000D01*
X369900Y922414D01*
X370158Y922162D01*
D02*
G37*
G36*
X365025Y916307D02*
X364999Y916208D01*
X364975Y916075D01*
X364955Y915906D01*
X364914Y915191D01*
X364900Y914160D01*
X362900D01*
X362898Y914539D01*
X362802Y916208D01*
X362775Y916307D01*
X362746Y916371D01*
X365054D01*
X365025Y916307D01*
D02*
G37*
G36*
X409125Y882807D02*
X409098Y882708D01*
X409075Y882575D01*
X409055Y882406D01*
X409014Y881691D01*
X409000Y880660D01*
X407000D01*
X406998Y881039D01*
X406902Y882708D01*
X406875Y882807D01*
X406846Y882871D01*
X409154D01*
X409125Y882807D01*
D02*
G37*
G36*
X408164Y878250D02*
X407789Y877861D01*
X407194Y877154D01*
X406974Y876836D01*
X406806Y876541D01*
X406689Y876270D01*
X406624Y876023D01*
X406610Y875799D01*
X406648Y875598D01*
X406738Y875421D01*
X404421Y878738D01*
X404553Y878603D01*
X404716Y878528D01*
X404912Y878514D01*
X405140Y878559D01*
X405401Y878666D01*
X405693Y878832D01*
X406018Y879059D01*
X406375Y879346D01*
X407186Y880100D01*
X408164Y878250D01*
D02*
G37*
%LPC*%
G36*
X360977Y849173D02*
X360833Y849145D01*
X360688Y849131D01*
X360640Y849106D01*
X360587Y849096D01*
X360467Y849015D01*
X360347Y849096D01*
X360294Y849106D01*
X360246Y849131D01*
X360100Y849145D01*
X359957Y849173D01*
X359904Y849163D01*
X359850Y849168D01*
X359710Y849124D01*
X359566Y849096D01*
X359521Y849065D01*
X359470Y849049D01*
X359357Y848956D01*
X359236Y848874D01*
X359206Y848830D01*
X359164Y848795D01*
X359096Y848666D01*
X359015Y848544D01*
X359004Y848491D01*
X358979Y848443D01*
X358965Y848297D01*
X358945Y848193D01*
X358000D01*
X357220Y848038D01*
X356558Y847596D01*
X356116Y846934D01*
X355961Y846154D01*
X356116Y845373D01*
X356558Y844712D01*
X357220Y844270D01*
X358000Y844114D01*
X358945D01*
X358965Y844010D01*
X358979Y843864D01*
X359004Y843816D01*
X359015Y843763D01*
X359096Y843642D01*
X359164Y843512D01*
X359206Y843478D01*
X359236Y843433D01*
X359357Y843351D01*
X359470Y843258D01*
X359521Y843242D01*
X359566Y843212D01*
X359710Y843183D01*
X359850Y843140D01*
X359904Y843145D01*
X359957Y843134D01*
X360100Y843163D01*
X360246Y843176D01*
X360294Y843201D01*
X360347Y843212D01*
X360467Y843292D01*
X360587Y843212D01*
X360640Y843201D01*
X360688Y843176D01*
X360833Y843163D01*
X360974Y843135D01*
X361037Y842814D01*
X361336Y842367D01*
X361328Y842359D01*
X361262Y842259D01*
X361180Y842170D01*
X361152Y842095D01*
X361107Y842028D01*
X361084Y841910D01*
X361042Y841797D01*
X361045Y841717D01*
X361030Y841638D01*
X361053Y841520D01*
X361058Y841399D01*
X361092Y841327D01*
X361107Y841248D01*
X361174Y841148D01*
X361225Y841038D01*
X361284Y840984D01*
X361328Y840917D01*
X361428Y840850D01*
X361517Y840768D01*
X361592Y840741D01*
X361659Y840696D01*
X361777Y840672D01*
X361890Y840631D01*
X361971Y840634D01*
X362049Y840618D01*
X362168Y840642D01*
X362288Y840647D01*
X362361Y840680D01*
X362439Y840696D01*
X362540Y840763D01*
X362550Y840768D01*
X362658Y840722D01*
X362862Y840605D01*
X363110Y840433D01*
X363688Y839943D01*
X376133Y827499D01*
X376210Y827407D01*
X376361Y827205D01*
X376498Y826996D01*
X376621Y826780D01*
X376731Y826556D01*
X376829Y826324D01*
X376914Y826083D01*
X376986Y825832D01*
X377052Y825544D01*
X377114Y825405D01*
X377163Y825261D01*
X377195Y825225D01*
X377214Y825181D01*
X377325Y825076D01*
X377425Y824962D01*
X377468Y824941D01*
X377503Y824907D01*
X377645Y824853D01*
X377782Y824786D01*
X377830Y824783D01*
X377875Y824765D01*
X378027Y824770D01*
X378179Y824760D01*
X378224Y824775D01*
X378273Y824776D01*
X378307Y824792D01*
X378420Y824716D01*
X379200Y824561D01*
X382154D01*
X382239Y824504D01*
X382259Y824500D01*
X382276Y824490D01*
X382453Y824462D01*
X382629Y824426D01*
X382649Y824430D01*
X382669Y824427D01*
X382843Y824469D01*
X382944Y824489D01*
X384180Y824561D01*
X387260D01*
X387817Y824529D01*
X387928Y824515D01*
X387976Y824507D01*
X387980Y824504D01*
X388026Y824495D01*
X388045Y824490D01*
X388055Y824489D01*
X388157Y824469D01*
X388331Y824427D01*
X388351Y824430D01*
X388371Y824426D01*
X388547Y824462D01*
X388724Y824490D01*
X388741Y824500D01*
X388761Y824504D01*
X388846Y824561D01*
X392154D01*
X392239Y824504D01*
X392259Y824500D01*
X392276Y824490D01*
X392453Y824462D01*
X392629Y824426D01*
X392649Y824430D01*
X392669Y824427D01*
X392843Y824469D01*
X392944Y824489D01*
X394180Y824561D01*
X398997D01*
X399500Y824461D01*
X400280Y824616D01*
X400942Y825058D01*
X401384Y825720D01*
X401539Y826500D01*
X401384Y827280D01*
X400942Y827942D01*
X400842Y828042D01*
X400180Y828484D01*
X399400Y828639D01*
X393740D01*
X393183Y828671D01*
X393072Y828685D01*
X393024Y828693D01*
X393020Y828696D01*
X392974Y828705D01*
X392955Y828710D01*
X392945Y828711D01*
X392843Y828731D01*
X392669Y828773D01*
X392649Y828770D01*
X392629Y828773D01*
X392453Y828738D01*
X392276Y828710D01*
X392259Y828700D01*
X392239Y828696D01*
X392154Y828639D01*
X388846D01*
X388761Y828696D01*
X388741Y828700D01*
X388724Y828710D01*
X388547Y828738D01*
X388371Y828773D01*
X388351Y828770D01*
X388331Y828773D01*
X388157Y828731D01*
X388056Y828711D01*
X386820Y828639D01*
X383740D01*
X383183Y828671D01*
X383072Y828685D01*
X383024Y828693D01*
X383020Y828696D01*
X382974Y828705D01*
X382955Y828710D01*
X382945Y828711D01*
X382843Y828731D01*
X382669Y828773D01*
X382649Y828770D01*
X382629Y828773D01*
X382453Y828738D01*
X382276Y828710D01*
X382259Y828700D01*
X382239Y828696D01*
X382154Y828639D01*
X382079D01*
X382066Y828645D01*
X381976Y828711D01*
X381889Y828733D01*
X381809Y828772D01*
X381698Y828780D01*
X381590Y828806D01*
X381502Y828793D01*
X381412Y828798D01*
X381307Y828763D01*
X381197Y828746D01*
X381176Y828738D01*
X381146Y828745D01*
X380983Y828809D01*
X380740Y828940D01*
X380456Y829128D01*
X379297Y830103D01*
X366666Y842734D01*
X366329Y843096D01*
X366091Y843394D01*
X365910Y843654D01*
X365794Y843858D01*
X365748Y843966D01*
X365753Y843976D01*
X365820Y844076D01*
X365835Y844155D01*
X365869Y844228D01*
X365874Y844348D01*
X365897Y844466D01*
X365882Y844545D01*
X365885Y844625D01*
X365843Y844738D01*
X365820Y844857D01*
X365775Y844923D01*
X365747Y844999D01*
X365666Y845087D01*
X365599Y845187D01*
X365532Y845232D01*
X365477Y845291D01*
X365368Y845341D01*
X365268Y845408D01*
X365189Y845424D01*
X365116Y845458D01*
X364996Y845463D01*
X364960Y845469D01*
Y846154D01*
X364805Y846934D01*
X364363Y847596D01*
X363702Y848038D01*
X362921Y848193D01*
X361989D01*
X361968Y848297D01*
X361955Y848442D01*
X361929Y848490D01*
X361919Y848544D01*
X361838Y848665D01*
X361770Y848795D01*
X361728Y848829D01*
X361698Y848874D01*
X361576Y848956D01*
X361464Y849049D01*
X361412Y849065D01*
X361367Y849096D01*
X361224Y849124D01*
X361084Y849168D01*
X361030Y849162D01*
X360977Y849173D01*
D02*
G37*
G36*
X392400Y821631D02*
X388600D01*
X387976Y821507D01*
X387974Y821506D01*
X386820Y821439D01*
X383740D01*
X383183Y821472D01*
X383072Y821485D01*
X383053Y821488D01*
X383024Y821507D01*
X382400Y821631D01*
X378600D01*
X377976Y821507D01*
X377709Y821329D01*
X377704Y821327D01*
X377689Y821315D01*
X377624Y821272D01*
X377608Y821269D01*
X377179Y821239D01*
X376716D01*
X375935Y821084D01*
X375274Y820642D01*
X375274Y820642D01*
X363782Y809150D01*
X363420Y808813D01*
X363122Y808576D01*
X362862Y808395D01*
X362826Y808374D01*
X362087D01*
X362049Y808382D01*
X362011Y808374D01*
X355031D01*
Y797319D01*
X360788D01*
X360796Y797297D01*
X360836Y797143D01*
X360870Y796928D01*
X360882Y796787D01*
Y791979D01*
X361037Y791198D01*
X361479Y790537D01*
X367726Y784290D01*
X367907Y784086D01*
X368142Y783790D01*
X368319Y783535D01*
X368369Y783448D01*
Y781100D01*
X368493Y780476D01*
X368847Y779947D01*
X369376Y779593D01*
X370000Y779469D01*
X371200D01*
X371824Y779593D01*
X372354Y779947D01*
X372707Y780476D01*
X372831Y781100D01*
Y784900D01*
X372707Y785524D01*
X372354Y786054D01*
X372065Y786246D01*
X372052Y786261D01*
X372038Y786268D01*
X372028Y786279D01*
X371988Y786298D01*
X371824Y786407D01*
X371713Y786429D01*
X371695Y786438D01*
X371603Y786463D01*
X371539Y786488D01*
X371455Y786531D01*
X371150Y786727D01*
X371002Y786838D01*
X370536Y787248D01*
X364960Y792823D01*
Y796787D01*
X364972Y796928D01*
X365007Y797143D01*
X365046Y797297D01*
X365055Y797319D01*
X365890D01*
Y798293D01*
X365897Y798331D01*
X365890Y798369D01*
Y798425D01*
X365891Y798442D01*
X365890Y798447D01*
Y804495D01*
X365897Y804534D01*
X365890Y804572D01*
Y805310D01*
X365910Y805346D01*
X366083Y805595D01*
X366572Y806173D01*
X377560Y817161D01*
X380300D01*
X380339Y817169D01*
X382400D01*
X383024Y817293D01*
X383026Y817294D01*
X384180Y817361D01*
X387260D01*
X387817Y817328D01*
X387928Y817315D01*
X387947Y817312D01*
X387976Y817293D01*
X388600Y817169D01*
X392400D01*
X393024Y817293D01*
X393026Y817294D01*
X394180Y817361D01*
X399400D01*
X400180Y817516D01*
X400578Y817782D01*
X400633Y817805D01*
X400675Y817846D01*
X400842Y817958D01*
X400942Y818058D01*
X401053Y818225D01*
X401195Y818367D01*
X401272Y818553D01*
X401384Y818720D01*
X401423Y818917D01*
X401500Y819102D01*
Y819303D01*
X401539Y819500D01*
X401500Y819697D01*
Y819898D01*
X401423Y820083D01*
X401384Y820280D01*
X401272Y820447D01*
X401195Y820633D01*
X401053Y820775D01*
X400942Y820942D01*
X400775Y821054D01*
X400633Y821196D01*
X400447Y821272D01*
X400280Y821384D01*
X400083Y821423D01*
X399898Y821500D01*
X399697D01*
X399500Y821539D01*
X399303Y821500D01*
X399102D01*
X398955Y821439D01*
X393740D01*
X393183Y821472D01*
X393072Y821485D01*
X393053Y821488D01*
X393024Y821507D01*
X392400Y821631D01*
D02*
G37*
G36*
X363400Y785039D02*
X362620Y784884D01*
X361958Y784442D01*
X361516Y783780D01*
X361361Y783000D01*
Y782573D01*
X360994Y782206D01*
X360436Y782356D01*
X360399Y782494D01*
X360060Y783081D01*
X359581Y783560D01*
X358994Y783899D01*
X358339Y784075D01*
X357661D01*
X357006Y783899D01*
X356419Y783560D01*
X355940Y783081D01*
X355601Y782494D01*
X355425Y781839D01*
Y781161D01*
X355601Y780506D01*
X355940Y779919D01*
X356419Y779440D01*
X357006Y779101D01*
X357661Y778925D01*
X358339D01*
X358994Y779101D01*
X359301Y779278D01*
X359670Y779084D01*
X359753Y778967D01*
X359647Y778705D01*
X359610Y778697D01*
X359565Y778667D01*
X359513Y778651D01*
X359401Y778558D01*
X359279Y778476D01*
X359249Y778431D01*
X359207Y778397D01*
X359139Y778267D01*
X359058Y778146D01*
X359047Y778092D01*
X359022Y778044D01*
X359009Y777899D01*
X358980Y777755D01*
X358991Y777702D01*
X358986Y777648D01*
X359030Y777509D01*
X359058Y777365D01*
X359088Y777320D01*
X359104Y777268D01*
X359112Y777259D01*
X358961Y776500D01*
X359116Y775720D01*
X359558Y775058D01*
X360220Y774616D01*
X361000Y774461D01*
X361720D01*
X362501Y774616D01*
X363162Y775058D01*
X363442Y775338D01*
X363442Y775338D01*
X363884Y775999D01*
X364032Y776742D01*
X364143Y776764D01*
X364289Y776778D01*
X364337Y776803D01*
X364390Y776814D01*
X364512Y776895D01*
X364641Y776963D01*
X364676Y777004D01*
X364721Y777035D01*
X364802Y777156D01*
X364896Y777268D01*
X364912Y777320D01*
X364942Y777365D01*
X364970Y777509D01*
X365014Y777648D01*
X365009Y777702D01*
X365020Y777755D01*
X364991Y777899D01*
X364978Y778044D01*
X364953Y778092D01*
X364942Y778146D01*
X364861Y778267D01*
X364793Y778397D01*
X364751Y778431D01*
X364721Y778476D01*
X364599Y778558D01*
X364487Y778651D01*
X364435Y778667D01*
X364390Y778697D01*
X364247Y778726D01*
X364148Y778757D01*
X364128Y778805D01*
X364088Y778957D01*
X364052Y779171D01*
X364039Y779320D01*
Y779484D01*
X364556Y780001D01*
X364642Y780058D01*
X364842Y780258D01*
X365284Y780920D01*
X365439Y781700D01*
Y783000D01*
X365284Y783780D01*
X364842Y784442D01*
X364180Y784884D01*
X363400Y785039D01*
D02*
G37*
G36*
X375339Y764075D02*
X374661D01*
X374006Y763899D01*
X373419Y763560D01*
X372940Y763081D01*
X372601Y762494D01*
X372425Y761839D01*
Y761161D01*
X372601Y760506D01*
X372940Y759919D01*
X373419Y759440D01*
X374006Y759101D01*
X374661Y758925D01*
X375339D01*
X375994Y759101D01*
X376581Y759440D01*
X377060Y759919D01*
X377399Y760506D01*
X377575Y761161D01*
Y761839D01*
X377399Y762494D01*
X377060Y763081D01*
X376581Y763560D01*
X375994Y763899D01*
X375339Y764075D01*
D02*
G37*
%LPD*%
G36*
X360977Y847237D02*
X361237Y847194D01*
X361577Y847163D01*
X361957Y847153D01*
Y845154D01*
X361577Y845144D01*
X361237Y845113D01*
X360977Y845070D01*
Y844153D01*
X360957Y844343D01*
X360896Y844514D01*
X360796Y844664D01*
X360655Y844794D01*
X360474Y844903D01*
X360465Y844907D01*
X360456Y844903D01*
X360277Y844794D01*
X360137Y844664D01*
X360036Y844514D01*
X359977Y844343D01*
X359957Y844153D01*
Y845069D01*
X359689Y845113D01*
X359347Y845144D01*
X358965Y845154D01*
Y847153D01*
X359347Y847163D01*
X359689Y847194D01*
X359957Y847238D01*
Y848153D01*
X359977Y847964D01*
X360036Y847793D01*
X360137Y847643D01*
X360277Y847513D01*
X360456Y847404D01*
X360465Y847400D01*
X360474Y847404D01*
X360655Y847513D01*
X360796Y847643D01*
X360896Y847793D01*
X360957Y847964D01*
X360977Y848153D01*
Y847237D01*
D02*
G37*
G36*
X364765Y844311D02*
X364708Y844127D01*
Y843915D01*
X364765Y843674D01*
X364878Y843406D01*
X365048Y843109D01*
X365274Y842784D01*
X365557Y842430D01*
X366292Y841638D01*
X364878Y840224D01*
X364468Y840620D01*
X363732Y841242D01*
X363407Y841468D01*
X363110Y841638D01*
X362841Y841751D01*
X362601Y841808D01*
X362389D01*
X362205Y841751D01*
X362049Y841638D01*
X364878Y844466D01*
X364765Y844311D01*
D02*
G37*
G36*
X378521Y829423D02*
X379845Y828309D01*
X380216Y828065D01*
X380552Y827883D01*
X380853Y827764D01*
X381119Y827709D01*
X381349Y827717D01*
X381545Y827787D01*
X378046Y825771D01*
X377974Y826087D01*
X377886Y826394D01*
X377781Y826691D01*
X377659Y826980D01*
X377522Y827259D01*
X377367Y827528D01*
X377197Y827789D01*
X377010Y828040D01*
X376806Y828283D01*
X376586Y828515D01*
X378009Y829921D01*
X378521Y829423D01*
D02*
G37*
G36*
X392693Y827725D02*
X392792Y827699D01*
X392925Y827675D01*
X393094Y827655D01*
X393809Y827614D01*
X394840Y827600D01*
Y825600D01*
X394461Y825599D01*
X392792Y825502D01*
X392693Y825475D01*
X392629Y825446D01*
Y827754D01*
X392693Y827725D01*
D02*
G37*
G36*
X388371Y825446D02*
X388307Y825475D01*
X388209Y825502D01*
X388075Y825525D01*
X387906Y825545D01*
X387191Y825586D01*
X386160Y825600D01*
Y827600D01*
X386539Y827602D01*
X388209Y827699D01*
X388307Y827725D01*
X388371Y827754D01*
Y825446D01*
D02*
G37*
G36*
X382693Y827725D02*
X382791Y827699D01*
X382925Y827675D01*
X383094Y827655D01*
X383809Y827614D01*
X384840Y827600D01*
Y825600D01*
X384461Y825599D01*
X382791Y825502D01*
X382693Y825475D01*
X382629Y825446D01*
Y827754D01*
X382693Y827725D01*
D02*
G37*
G36*
X392693Y820525D02*
X392792Y820498D01*
X392925Y820475D01*
X393094Y820455D01*
X393809Y820414D01*
X394840Y820400D01*
Y818400D01*
X394461Y818398D01*
X392792Y818301D01*
X392693Y818275D01*
X392629Y818246D01*
Y820554D01*
X392693Y820525D01*
D02*
G37*
G36*
X388371Y818246D02*
X388307Y818275D01*
X388209Y818301D01*
X388075Y818325D01*
X387906Y818345D01*
X387191Y818386D01*
X386160Y818400D01*
Y820400D01*
X386539Y820401D01*
X388209Y820498D01*
X388307Y820525D01*
X388371Y820554D01*
Y818246D01*
D02*
G37*
G36*
X382693Y820525D02*
X382791Y820498D01*
X382925Y820475D01*
X383094Y820455D01*
X383809Y820414D01*
X384840Y820400D01*
Y818400D01*
X384461Y818398D01*
X382791Y818301D01*
X382693Y818275D01*
X382629Y818246D01*
Y820554D01*
X382693Y820525D01*
D02*
G37*
G36*
X378371Y818246D02*
X378366Y818237D01*
X378326Y818230D01*
X378250Y818223D01*
X377808Y818208D01*
X376716Y818200D01*
Y820200D01*
X376966Y820202D01*
X377736Y820256D01*
X377871Y820281D01*
X377982Y820310D01*
X378070Y820343D01*
X378134Y820381D01*
X378176Y820424D01*
X378371Y818246D01*
D02*
G37*
G36*
X366292Y807362D02*
X365896Y806952D01*
X365274Y806217D01*
X365048Y805891D01*
X364878Y805594D01*
X364765Y805326D01*
X364708Y805085D01*
Y804873D01*
X364765Y804689D01*
X364878Y804534D01*
X362049Y807362D01*
X362205Y807249D01*
X362389Y807192D01*
X362601D01*
X362841Y807249D01*
X363110Y807362D01*
X363407Y807532D01*
X363732Y807758D01*
X364086Y808041D01*
X364878Y808776D01*
X366292Y807362D01*
D02*
G37*
G36*
X360977Y803930D02*
X361237Y803887D01*
X361577Y803856D01*
X361957Y803846D01*
Y801847D01*
X361577Y801836D01*
X361237Y801807D01*
X360977Y801763D01*
Y800846D01*
X360957Y801036D01*
X360896Y801206D01*
X360796Y801357D01*
X360655Y801486D01*
X360474Y801597D01*
X360465Y801600D01*
X360456Y801597D01*
X360277Y801486D01*
X360137Y801357D01*
X360036Y801206D01*
X359977Y801036D01*
X359957Y800846D01*
Y801762D01*
X359689Y801807D01*
X359347Y801836D01*
X358965Y801847D01*
Y803846D01*
X359347Y803856D01*
X359689Y803887D01*
X359957Y803931D01*
Y804846D01*
X359977Y804657D01*
X360036Y804486D01*
X360137Y804336D01*
X360277Y804206D01*
X360456Y804097D01*
X360465Y804093D01*
X360474Y804097D01*
X360655Y804206D01*
X360796Y804336D01*
X360896Y804486D01*
X360957Y804657D01*
X360977Y804846D01*
Y803930D01*
D02*
G37*
G36*
X364696Y798311D02*
X364533Y798251D01*
X364390Y798151D01*
X364266Y798011D01*
X364160Y797831D01*
X364074Y797611D01*
X364007Y797351D01*
X363960Y797051D01*
X363931Y796711D01*
X363921Y796331D01*
X361921D01*
X361912Y796711D01*
X361883Y797051D01*
X361835Y797351D01*
X361768Y797611D01*
X361682Y797831D01*
X361577Y798011D01*
X361453Y798151D01*
X361309Y798251D01*
X361146Y798311D01*
X360965Y798331D01*
X364878D01*
X364696Y798311D01*
D02*
G37*
G36*
X369658Y786662D02*
X370358Y786047D01*
X370567Y785889D01*
X370949Y785645D01*
X371121Y785558D01*
X371281Y785494D01*
X371429Y785454D01*
X369412Y782671D01*
X369504Y782846D01*
X369544Y783044D01*
X369532Y783267D01*
X369467Y783514D01*
X369351Y783785D01*
X369182Y784080D01*
X368961Y784399D01*
X368688Y784741D01*
X368363Y785108D01*
X367986Y785499D01*
X369401Y786914D01*
X369658Y786662D01*
D02*
G37*
G36*
X363010Y779385D02*
X363040Y779043D01*
X363090Y778741D01*
X363160Y778480D01*
X363250Y778259D01*
X363360Y778078D01*
X363490Y777937D01*
X363640Y777836D01*
X363810Y777776D01*
X364000Y777755D01*
X360000D01*
X360190Y777776D01*
X360360Y777836D01*
X360510Y777937D01*
X360640Y778078D01*
X360750Y778259D01*
X360840Y778480D01*
X360910Y778741D01*
X360960Y779043D01*
X360990Y779385D01*
X361000Y779768D01*
X363000D01*
X363010Y779385D01*
D02*
G37*
%LPC*%
G36*
X321607Y984520D02*
X321463Y984491D01*
X321318Y984478D01*
X321270Y984453D01*
X321217Y984442D01*
X321096Y984362D01*
X320977Y984442D01*
X320924Y984453D01*
X320876Y984478D01*
X320730Y984491D01*
X320586Y984520D01*
X320533Y984509D01*
X320480Y984514D01*
X320340Y984470D01*
X320196Y984442D01*
X320151Y984412D01*
X320100Y984396D01*
X319987Y984302D01*
X319865Y984221D01*
X319835Y984176D01*
X319794Y984142D01*
X319726Y984012D01*
X319644Y983890D01*
X319634Y983837D01*
X319609Y983789D01*
X319595Y983644D01*
X319567Y983500D01*
Y983294D01*
X317705D01*
Y983500D01*
X317676Y983643D01*
X317663Y983789D01*
X317638Y983837D01*
X317627Y983890D01*
X317546Y984012D01*
X317478Y984141D01*
X317437Y984176D01*
X317406Y984221D01*
X317285Y984302D01*
X317173Y984396D01*
X317121Y984412D01*
X317076Y984442D01*
X316932Y984470D01*
X316793Y984514D01*
X316739Y984509D01*
X316685Y984520D01*
X316542Y984491D01*
X316396Y984478D01*
X316349Y984453D01*
X316295Y984442D01*
X316174Y984361D01*
X316044Y984293D01*
X316010Y984251D01*
X315965Y984221D01*
X315883Y984099D01*
X315790Y983987D01*
X315774Y983935D01*
X315743Y983890D01*
X315715Y983747D01*
X315671Y983607D01*
X315662Y983515D01*
X315597Y983476D01*
X315456Y983418D01*
X315239Y983360D01*
X314949Y983312D01*
X314743Y983294D01*
X302500D01*
X301622Y983119D01*
X300878Y982622D01*
X295378Y977122D01*
X294881Y976378D01*
X294706Y975500D01*
Y965815D01*
X294695Y965694D01*
X294654Y965441D01*
X294599Y965221D01*
X294535Y965033D01*
X294470Y964894D01*
X289100D01*
X288222Y964719D01*
X287478Y964222D01*
X287378Y964122D01*
X286880Y963378D01*
X286706Y962500D01*
X286880Y961622D01*
X287378Y960878D01*
X288122Y960381D01*
X289000Y960206D01*
X289503Y960306D01*
X297000D01*
X297878Y960481D01*
X298622Y960978D01*
X299119Y961722D01*
X299294Y962600D01*
X299459Y962613D01*
X299584Y962656D01*
X299714Y962682D01*
X299771Y962720D01*
X299835Y962742D01*
X299935Y962829D01*
X300045Y962903D01*
X300083Y962960D01*
X300134Y963005D01*
X300192Y963124D01*
X300266Y963234D01*
X300279Y963301D01*
X300309Y963362D01*
X300318Y963494D01*
X300343Y963624D01*
X300330Y963691D01*
X300335Y963759D01*
X300292Y963884D01*
X300266Y964014D01*
X300228Y964071D01*
X300206Y964135D01*
X300118Y964235D01*
X300045Y964345D01*
X299988Y964383D01*
X299943Y964434D01*
X299791Y964550D01*
X299700Y964640D01*
X299616Y964747D01*
X299538Y964876D01*
X299465Y965033D01*
X299401Y965221D01*
X299346Y965441D01*
X299305Y965694D01*
X299294Y965815D01*
Y974550D01*
X303450Y978706D01*
X314743D01*
X314949Y978688D01*
X315239Y978640D01*
X315456Y978582D01*
X315597Y978524D01*
X315662Y978485D01*
X315671Y978393D01*
X315715Y978253D01*
X315743Y978110D01*
X315774Y978065D01*
X315790Y978013D01*
X315883Y977901D01*
X315965Y977779D01*
X316010Y977749D01*
X316044Y977707D01*
X316174Y977639D01*
X316295Y977558D01*
X316349Y977547D01*
X316396Y977522D01*
X316542Y977509D01*
X316685Y977480D01*
X316739Y977491D01*
X316793Y977486D01*
X316932Y977530D01*
X317076Y977558D01*
X317121Y977588D01*
X317173Y977604D01*
X317285Y977698D01*
X317406Y977779D01*
X317437Y977824D01*
X317478Y977859D01*
X317546Y977988D01*
X317627Y978110D01*
X317638Y978163D01*
X317663Y978211D01*
X317676Y978357D01*
X317705Y978500D01*
Y978706D01*
X319567D01*
Y978500D01*
X319595Y978356D01*
X319609Y978211D01*
X319634Y978163D01*
X319644Y978110D01*
X319726Y977988D01*
X319794Y977859D01*
X319835Y977824D01*
X319865Y977779D01*
X319987Y977698D01*
X320100Y977604D01*
X320151Y977588D01*
X320196Y977558D01*
X320340Y977530D01*
X320480Y977486D01*
X320533Y977491D01*
X320586Y977480D01*
X320730Y977509D01*
X320876Y977522D01*
X320924Y977547D01*
X320977Y977558D01*
X321096Y977638D01*
X321217Y977558D01*
X321270Y977547D01*
X321318Y977522D01*
X321463Y977509D01*
X321607Y977480D01*
X321660Y977491D01*
X321714Y977486D01*
X321853Y977530D01*
X321997Y977558D01*
X322042Y977588D01*
X322094Y977604D01*
X322206Y977698D01*
X322328Y977779D01*
X322358Y977824D01*
X322399Y977859D01*
X322467Y977988D01*
X322549Y978110D01*
X322559Y978163D01*
X322585Y978211D01*
X322598Y978357D01*
X322626Y978500D01*
Y978706D01*
X323551D01*
X324429Y978881D01*
X325173Y979378D01*
X325671Y980122D01*
X325845Y981000D01*
X325671Y981878D01*
X325173Y982622D01*
X324429Y983119D01*
X323551Y983294D01*
X322626D01*
Y983500D01*
X322598Y983643D01*
X322585Y983789D01*
X322559Y983837D01*
X322549Y983890D01*
X322467Y984012D01*
X322399Y984141D01*
X322358Y984176D01*
X322328Y984221D01*
X322206Y984302D01*
X322094Y984396D01*
X322042Y984412D01*
X321997Y984442D01*
X321853Y984470D01*
X321714Y984514D01*
X321660Y984509D01*
X321607Y984520D01*
D02*
G37*
G36*
X169180Y991158D02*
X167820D01*
X166486Y990892D01*
X165229Y990372D01*
X164098Y989616D01*
X163136Y988654D01*
X162380Y987523D01*
X161860Y986266D01*
X161594Y984932D01*
Y983572D01*
X161860Y982238D01*
X162380Y980981D01*
X163136Y979850D01*
X164098Y978888D01*
X165229Y978132D01*
X166486Y977612D01*
X167820Y977347D01*
X169180D01*
X170514Y977612D01*
X171771Y978132D01*
X172902Y978888D01*
X173864Y979850D01*
X174620Y980981D01*
X175140Y982238D01*
X175406Y983572D01*
Y984932D01*
X175140Y986266D01*
X174620Y987523D01*
X173864Y988654D01*
X172902Y989616D01*
X171771Y990372D01*
X170514Y990892D01*
X169180Y991158D01*
D02*
G37*
G36*
X289000Y957794D02*
X288122Y957619D01*
X287378Y957122D01*
X286880Y956378D01*
X286706Y955500D01*
X286880Y954622D01*
X287378Y953878D01*
X287478Y953778D01*
X288222Y953281D01*
X289100Y953106D01*
X294470D01*
X294535Y952967D01*
X294599Y952779D01*
X294654Y952559D01*
X294695Y952306D01*
X294706Y952185D01*
Y942000D01*
X294881Y941122D01*
X295378Y940378D01*
X299685Y936071D01*
X300429Y935573D01*
X301307Y935399D01*
X314743D01*
X314949Y935381D01*
X315239Y935333D01*
X315456Y935275D01*
X315597Y935217D01*
X315661Y935178D01*
Y932165D01*
X326520D01*
Y943221D01*
X315661D01*
Y940208D01*
X315597Y940169D01*
X315456Y940111D01*
X315239Y940053D01*
X314949Y940005D01*
X314743Y939987D01*
X302257D01*
X299294Y942950D01*
Y952185D01*
X299305Y952306D01*
X299346Y952559D01*
X299401Y952779D01*
X299465Y952967D01*
X299538Y953124D01*
X299617Y953253D01*
X299700Y953360D01*
X299791Y953450D01*
X299943Y953566D01*
X299957Y953582D01*
X300054Y953646D01*
X300178Y953833D01*
X300206Y953864D01*
X300213Y953885D01*
X300407Y954176D01*
X300531Y954800D01*
Y956000D01*
X300407Y956624D01*
X300054Y957154D01*
X299524Y957507D01*
X298900Y957631D01*
X297315D01*
X297000Y957694D01*
X289503D01*
X289000Y957794D01*
D02*
G37*
G36*
X170650Y915937D02*
X169350D01*
X168094Y915601D01*
X166969Y914951D01*
X166049Y914031D01*
X165399Y912906D01*
X165063Y911650D01*
Y910350D01*
X165399Y909094D01*
X166049Y907969D01*
X166969Y907049D01*
X168094Y906399D01*
X169350Y906063D01*
X170650D01*
X171906Y906399D01*
X173031Y907049D01*
X173951Y907969D01*
X174601Y909094D01*
X174937Y910350D01*
Y911650D01*
X174601Y912906D01*
X173951Y914031D01*
X173031Y914951D01*
X171906Y915601D01*
X170650Y915937D01*
D02*
G37*
G36*
X221000Y951531D02*
X219800D01*
X219176Y951407D01*
X218647Y951054D01*
X218293Y950524D01*
X218169Y949900D01*
Y948315D01*
X218106Y948000D01*
Y928784D01*
X218281Y927906D01*
X218778Y927162D01*
X228128Y917812D01*
X228549Y917358D01*
X228855Y916976D01*
X229092Y916636D01*
X229151Y916533D01*
Y911720D01*
X229228Y911331D01*
X229227Y911309D01*
X229240Y911270D01*
X229284Y911049D01*
X229348Y910953D01*
X229355Y910933D01*
X229421Y910818D01*
X229465Y910719D01*
X229508Y910592D01*
X229607Y910157D01*
X229640Y909930D01*
X229690Y909201D01*
Y906516D01*
X229865Y905638D01*
X230362Y904894D01*
X230378Y904878D01*
X231122Y904381D01*
X232000Y904206D01*
X232878Y904381D01*
X233622Y904878D01*
X234120Y905622D01*
X234294Y906500D01*
X234278Y906579D01*
Y909375D01*
X234294Y909607D01*
X234366Y910182D01*
X234407Y910394D01*
X234455Y910577D01*
X234503Y910719D01*
X234547Y910818D01*
X234613Y910933D01*
X234620Y910953D01*
X234684Y911049D01*
X234728Y911270D01*
X234742Y911309D01*
X234740Y911331D01*
X234818Y911720D01*
Y918280D01*
X234684Y918951D01*
X234304Y919520D01*
X233957Y919752D01*
X233936Y919775D01*
X233896Y919793D01*
X233735Y919900D01*
X233601Y919927D01*
X233574Y919940D01*
X233276Y920009D01*
X233014Y920090D01*
X232752Y920191D01*
X232490Y920311D01*
X232227Y920452D01*
X231964Y920615D01*
X231710Y920792D01*
X231291Y921138D01*
X222694Y929735D01*
Y948000D01*
X222631Y948315D01*
Y949900D01*
X222507Y950524D01*
X222153Y951054D01*
X221624Y951407D01*
X221000Y951531D01*
D02*
G37*
G36*
X259500Y910194D02*
X259185Y910131D01*
X257600D01*
X256976Y910007D01*
X256447Y909653D01*
X256093Y909124D01*
X255969Y908500D01*
Y907300D01*
X256093Y906676D01*
X256447Y906147D01*
X256976Y905793D01*
X257600Y905669D01*
X258473D01*
X258915Y905240D01*
X259997Y904159D01*
X260741Y903661D01*
X261619Y903487D01*
X266459D01*
X267337Y903661D01*
X268081Y904159D01*
X268578Y904903D01*
X268753Y905781D01*
X268578Y906659D01*
X268081Y907403D01*
X267337Y907900D01*
X266459Y908075D01*
X263031D01*
Y908500D01*
X262907Y909124D01*
X262554Y909653D01*
X262024Y910007D01*
X261400Y910131D01*
X259815D01*
X259500Y910194D01*
D02*
G37*
G36*
X223240Y972437D02*
X221941D01*
X220685Y972101D01*
X219559Y971451D01*
X218640Y970531D01*
X217990Y969406D01*
X217653Y968150D01*
Y966850D01*
X217990Y965594D01*
X218640Y964469D01*
X219053Y964055D01*
X219103Y963978D01*
X219418Y963654D01*
X219679Y963355D01*
X219904Y963065D01*
X220092Y962786D01*
X220247Y962516D01*
X220368Y962259D01*
X220459Y962012D01*
X220522Y961777D01*
X220551Y961590D01*
Y954309D01*
X220707Y953529D01*
X221149Y952868D01*
X224726Y949290D01*
X224907Y949086D01*
X225142Y948790D01*
X225319Y948535D01*
X225369Y948448D01*
Y946100D01*
X225493Y945476D01*
X225847Y944946D01*
X226158Y944738D01*
X226181Y944715D01*
X226220Y944697D01*
X226228Y944691D01*
X226260Y944664D01*
X226280Y944657D01*
X226376Y944593D01*
X226514Y944565D01*
X226544Y944552D01*
X226828Y944487D01*
X227074Y944416D01*
X227312Y944332D01*
X227542Y944234D01*
X227764Y944124D01*
X227979Y944001D01*
X228187Y943863D01*
X228390Y943712D01*
X228480Y943636D01*
X231211Y940905D01*
X231546Y940545D01*
X231786Y940246D01*
X231963Y939992D01*
Y936900D01*
X232110Y936159D01*
X232530Y935530D01*
X233159Y935110D01*
X233900Y934963D01*
X238869D01*
X238872Y934957D01*
X238912Y934805D01*
X238948Y934591D01*
X238961Y934442D01*
Y920464D01*
X238959Y920401D01*
X238935Y920170D01*
X238903Y919967D01*
X238867Y919806D01*
X238830Y919689D01*
X238800Y919618D01*
X238790Y919601D01*
X238758Y919575D01*
X238754Y919569D01*
X238680Y919520D01*
X238522Y919284D01*
X238508Y919266D01*
X238506Y919259D01*
X238300Y918951D01*
X238166Y918280D01*
Y911720D01*
X238300Y911049D01*
X238506Y910741D01*
X238508Y910734D01*
X238522Y910716D01*
X238680Y910480D01*
X238754Y910431D01*
X238758Y910425D01*
X238790Y910399D01*
X238800Y910382D01*
X238830Y910311D01*
X238867Y910194D01*
X238903Y910033D01*
X238933Y909842D01*
X238961Y909486D01*
Y887989D01*
X239061Y887487D01*
Y874814D01*
X238674Y874497D01*
X238500Y874531D01*
X237300D01*
X236676Y874407D01*
X236146Y874053D01*
X235793Y873524D01*
X235669Y872900D01*
Y869100D01*
X235793Y868476D01*
X235794Y868474D01*
X235861Y867320D01*
Y866963D01*
X235849Y866832D01*
X235830Y866802D01*
X235368Y866474D01*
X235039Y866539D01*
X231007D01*
X230563Y866584D01*
X230381Y866615D01*
X230215Y866652D01*
X230077Y866693D01*
X229966Y866733D01*
X229884Y866772D01*
X229780Y866834D01*
X229757Y866842D01*
X229655Y866910D01*
X229445Y866952D01*
X229405Y866966D01*
X229380Y866965D01*
X229050Y867030D01*
X227950D01*
X227345Y866910D01*
X226833Y866568D01*
X226490Y866055D01*
X226370Y865450D01*
Y863550D01*
X226490Y862945D01*
X226833Y862432D01*
X227345Y862090D01*
X227950Y861970D01*
X229050D01*
X229380Y862035D01*
X229405Y862034D01*
X229445Y862048D01*
X229655Y862090D01*
X229757Y862158D01*
X229780Y862166D01*
X229884Y862228D01*
X229966Y862267D01*
X230077Y862307D01*
X230215Y862348D01*
X230381Y862385D01*
X230553Y862414D01*
X231126Y862461D01*
X232768D01*
X233064Y862445D01*
X233118Y862439D01*
Y858826D01*
X232734Y858799D01*
X229260D01*
X228480Y858644D01*
X228310Y858530D01*
X227950D01*
X227345Y858410D01*
X226833Y858068D01*
X226490Y857555D01*
X226370Y856950D01*
Y855050D01*
X226490Y854445D01*
X226833Y853932D01*
X227345Y853590D01*
X227950Y853470D01*
X229050D01*
X229655Y853590D01*
X230168Y853932D01*
X230510Y854445D01*
X230548Y854634D01*
X230690Y854670D01*
X230931Y854707D01*
X231104Y854721D01*
X233109D01*
X233118Y854720D01*
Y854579D01*
X234092D01*
X234130Y854571D01*
X234168Y854579D01*
X235591D01*
X235810Y854251D01*
X235861Y854200D01*
Y852740D01*
X235828Y852183D01*
X235815Y852072D01*
X235812Y852053D01*
X235793Y852024D01*
X235669Y851400D01*
Y847600D01*
X235793Y846976D01*
X236146Y846447D01*
X236676Y846093D01*
X237300Y845969D01*
X238500D01*
X239124Y846093D01*
X239653Y846447D01*
X240007Y846976D01*
X240131Y847600D01*
Y851400D01*
X240053Y851796D01*
X240513Y852042D01*
X241968Y850588D01*
X242193Y850333D01*
X242484Y849963D01*
X242710Y849635D01*
X242806Y849466D01*
Y847900D01*
X242981Y847022D01*
X242985Y847016D01*
X242993Y846976D01*
X243347Y846447D01*
X243380Y846424D01*
X243478Y846278D01*
X248378Y841378D01*
X249122Y840880D01*
X250000Y840706D01*
X250878Y840880D01*
X251622Y841378D01*
X252119Y842122D01*
X252294Y843000D01*
X252119Y843878D01*
X251622Y844622D01*
X248221Y848023D01*
X247991Y848283D01*
X247694Y848658D01*
X247466Y848990D01*
X247394Y849116D01*
Y850700D01*
X247331Y851015D01*
Y851400D01*
X247207Y852024D01*
X246853Y852553D01*
X246458Y852818D01*
X246429Y852843D01*
X246413Y852848D01*
X246324Y852907D01*
X246278Y852916D01*
X245082Y853963D01*
X244928Y854117D01*
X245119Y854579D01*
X246799D01*
X246884Y854531D01*
X247129Y854360D01*
X247692Y853884D01*
X272461Y829116D01*
Y808000D01*
X272616Y807220D01*
X273058Y806558D01*
X304558Y775058D01*
X305220Y774616D01*
X306000Y774461D01*
X309670D01*
X309736Y773961D01*
X309506Y773899D01*
X308919Y773560D01*
X308440Y773081D01*
X308101Y772494D01*
X307925Y771839D01*
Y771161D01*
X308101Y770506D01*
X308440Y769919D01*
X308919Y769440D01*
X309093Y769339D01*
X308959Y768839D01*
X307842D01*
X307687Y768853D01*
X307468Y768888D01*
X307331Y768924D01*
Y769400D01*
X307207Y770024D01*
X306854Y770553D01*
X306324Y770907D01*
X305700Y771031D01*
X304500D01*
X303876Y770907D01*
X303346Y770553D01*
X302993Y770024D01*
X302869Y769400D01*
Y765600D01*
X302993Y764976D01*
X303346Y764446D01*
X303876Y764093D01*
X304500Y763969D01*
X305700D01*
X306324Y764093D01*
X306597Y764275D01*
X306607Y764278D01*
X306629Y764296D01*
X306854Y764446D01*
X306906Y764525D01*
X306914Y764531D01*
X306952Y764578D01*
X306978Y764594D01*
X307048Y764626D01*
X307160Y764664D01*
X307313Y764701D01*
X307342Y764706D01*
X307379Y764702D01*
X307538Y764674D01*
X307668Y764643D01*
X307758Y764615D01*
X307803Y764596D01*
X307868Y764559D01*
X307885Y764553D01*
X307976Y764493D01*
X308208Y764447D01*
X308245Y764434D01*
X308264Y764436D01*
X308600Y764369D01*
X312400D01*
X312703Y764429D01*
X314403Y764511D01*
X316592D01*
X316851Y764390D01*
X317087Y764221D01*
Y763779D01*
X317087Y763721D01*
Y761970D01*
X316750Y761694D01*
X310500D01*
X310249Y761644D01*
X306026D01*
X305148Y761469D01*
X304404Y760972D01*
X303950Y760518D01*
X303506Y760399D01*
X303075Y760150D01*
X302682Y760298D01*
X302651Y760316D01*
X302557Y760405D01*
X302399Y760994D01*
X302060Y761581D01*
X301581Y762060D01*
X300994Y762399D01*
X300339Y762575D01*
X299661D01*
X299006Y762399D01*
X298419Y762060D01*
X298053Y761694D01*
X292000D01*
X291685Y761631D01*
X290100D01*
X289476Y761507D01*
X288947Y761154D01*
X288593Y760624D01*
X288469Y760000D01*
Y758800D01*
X288593Y758176D01*
X288947Y757647D01*
X289476Y757293D01*
X290100Y757169D01*
X291685D01*
X292000Y757106D01*
X299224D01*
X300102Y757281D01*
X300319Y757425D01*
X300339D01*
X300994Y757601D01*
X301425Y757850D01*
X301818Y757701D01*
X301849Y757684D01*
X301943Y757595D01*
X302101Y757006D01*
X302440Y756419D01*
X302919Y755940D01*
X303506Y755601D01*
X304161Y755425D01*
X304839D01*
X305494Y755601D01*
X306081Y755940D01*
X306560Y756419D01*
X306862Y756942D01*
X306976Y757056D01*
X310450D01*
X310701Y757106D01*
X315800D01*
X316083Y756822D01*
X316441Y756412D01*
X316632Y756159D01*
X316792Y755922D01*
X316913Y755713D01*
X316997Y755536D01*
X317048Y755395D01*
X317071Y755294D01*
X317082Y755150D01*
X317087Y755135D01*
Y754280D01*
X317087Y754220D01*
Y753780D01*
X317087Y753721D01*
Y753177D01*
X315624Y751608D01*
X315155Y751139D01*
X313740D01*
X313183Y751171D01*
X313072Y751185D01*
X313053Y751188D01*
X313024Y751207D01*
X312400Y751331D01*
X308600D01*
X307976Y751207D01*
X307913Y751165D01*
X307901Y751163D01*
X307485Y751136D01*
X307473Y751138D01*
X307316Y751180D01*
X307272Y751197D01*
X307207Y751524D01*
X306854Y752053D01*
X306324Y752407D01*
X305700Y752531D01*
X304500D01*
X303876Y752407D01*
X303346Y752053D01*
X302993Y751524D01*
X302869Y750900D01*
Y747100D01*
X302993Y746476D01*
X303346Y745947D01*
X303876Y745593D01*
X304500Y745469D01*
X305700D01*
X306324Y745593D01*
X306854Y745947D01*
X307207Y746476D01*
X307293Y746908D01*
X307326Y746921D01*
X307480Y746962D01*
X307697Y746998D01*
X307750Y747002D01*
X308012Y746984D01*
X308035Y746981D01*
X308600Y746869D01*
X312400D01*
X313024Y746993D01*
X313026Y746994D01*
X314180Y747061D01*
X316000D01*
X316587Y747178D01*
X317087Y746865D01*
Y744294D01*
X317087Y744220D01*
X316909Y743794D01*
X313343D01*
X313024Y744007D01*
X312400Y744131D01*
X312015D01*
X311700Y744194D01*
X310500D01*
X310185Y744131D01*
X308600D01*
X307976Y744007D01*
X307447Y743653D01*
X307093Y743124D01*
X306969Y742500D01*
Y741300D01*
X307093Y740676D01*
X307447Y740146D01*
X307976Y739793D01*
X308600Y739669D01*
X310185D01*
X310500Y739606D01*
X310885D01*
X311222Y739381D01*
X312100Y739206D01*
X316858D01*
X317065Y738706D01*
X316940Y738581D01*
X316601Y737994D01*
X316425Y737339D01*
Y736661D01*
X316601Y736006D01*
X316940Y735419D01*
X317419Y734940D01*
X318006Y734601D01*
X318661Y734425D01*
X319339D01*
X319994Y734601D01*
X320581Y734940D01*
X321060Y735419D01*
X321211Y735680D01*
X321789D01*
X321940Y735419D01*
X322419Y734940D01*
X323006Y734601D01*
X323661Y734425D01*
X324339D01*
X324994Y734601D01*
X325581Y734940D01*
X326060Y735419D01*
X326399Y736006D01*
X326575Y736661D01*
Y737339D01*
X326399Y737994D01*
X326170Y738391D01*
Y739221D01*
X326173D01*
Y740194D01*
X326181Y740233D01*
X326173Y740271D01*
Y743720D01*
X326173Y743780D01*
Y744220D01*
X326173Y744279D01*
Y748779D01*
X326173D01*
Y749221D01*
X326173D01*
Y753721D01*
X326173Y753780D01*
Y754220D01*
X326173Y754280D01*
Y758779D01*
X326173Y758779D01*
Y759221D01*
X326173D01*
X326173Y759279D01*
Y763721D01*
X326173Y763779D01*
Y764221D01*
X326173Y764280D01*
Y768720D01*
X326173Y768780D01*
Y769220D01*
X326173Y769279D01*
Y773721D01*
X326173Y773779D01*
Y774221D01*
X326173Y774279D01*
Y778780D01*
X318137D01*
X318099Y778787D01*
X318090Y778785D01*
X318080Y778787D01*
X318046Y778780D01*
X317087D01*
Y778569D01*
X316677Y778539D01*
X306845D01*
X276539Y808845D01*
Y829961D01*
X276539Y829961D01*
X276384Y830741D01*
X275942Y831402D01*
X250650Y856694D01*
X250360Y857032D01*
X250217Y857226D01*
X250097Y857409D01*
X250008Y857570D01*
X249947Y857704D01*
X249911Y857810D01*
X249896Y857884D01*
X249887Y858005D01*
X249882Y858022D01*
Y858642D01*
X250281D01*
X251062Y858797D01*
X251723Y859239D01*
X254210Y861726D01*
X254414Y861907D01*
X254710Y862142D01*
X254965Y862319D01*
X255052Y862369D01*
X257400D01*
X258024Y862493D01*
X258554Y862846D01*
X258907Y863376D01*
X259031Y864000D01*
Y865200D01*
X258907Y865824D01*
X258717Y866109D01*
X258712Y866125D01*
X258686Y866155D01*
X258554Y866354D01*
X258519Y866377D01*
X258442Y866674D01*
X258431Y866948D01*
X290210Y898726D01*
X290414Y898907D01*
X290710Y899142D01*
X290965Y899319D01*
X291052Y899369D01*
X293400D01*
X293703Y899429D01*
X294877Y899485D01*
X295020Y899462D01*
X295174Y899421D01*
X295207Y899408D01*
X295293Y898976D01*
X295647Y898446D01*
X296176Y898093D01*
X296671Y897994D01*
X296788Y897789D01*
X296815Y897699D01*
X296827Y897469D01*
X296440Y897081D01*
X296216Y896694D01*
X291500D01*
X291185Y896631D01*
X289600D01*
X288976Y896507D01*
X288446Y896154D01*
X288093Y895624D01*
X287969Y895000D01*
Y893800D01*
X288093Y893176D01*
X288446Y892647D01*
X288976Y892293D01*
X289600Y892169D01*
X291185D01*
X291500Y892106D01*
X297224D01*
X298102Y892281D01*
X298846Y892778D01*
X299050Y892982D01*
X299494Y893101D01*
X299661Y893198D01*
X299735Y893163D01*
X300063Y892852D01*
X299925Y892339D01*
Y891661D01*
X300101Y891006D01*
X300440Y890419D01*
X300919Y889940D01*
X301506Y889601D01*
X301950Y889482D01*
X302054Y889378D01*
X302798Y888881D01*
X303676Y888706D01*
X307100D01*
X307978Y888881D01*
X308722Y889378D01*
X310872Y891528D01*
X311258Y892106D01*
X316016D01*
X316403Y891719D01*
X316584Y891530D01*
X316989Y891054D01*
X317087Y890923D01*
Y889779D01*
X317087Y889721D01*
Y889279D01*
X317087Y889221D01*
Y888677D01*
X315624Y887107D01*
X315155Y886639D01*
X313740D01*
X313183Y886672D01*
X313072Y886685D01*
X313053Y886688D01*
X313024Y886707D01*
X312400Y886831D01*
X308600D01*
X307976Y886707D01*
X307913Y886665D01*
X307901Y886663D01*
X306743Y886589D01*
X306345D01*
X306192Y886602D01*
X305973Y886638D01*
X305816Y886680D01*
X305772Y886697D01*
X305707Y887024D01*
X305353Y887554D01*
X304824Y887907D01*
X304200Y888031D01*
X303000D01*
X302376Y887907D01*
X301847Y887554D01*
X301493Y887024D01*
X301369Y886400D01*
Y882600D01*
X301493Y881976D01*
X301847Y881446D01*
X302376Y881093D01*
X303000Y880969D01*
X304200D01*
X304824Y881093D01*
X305353Y881446D01*
X305707Y881976D01*
X305793Y882408D01*
X305826Y882421D01*
X305980Y882462D01*
X306197Y882498D01*
X306348Y882511D01*
X307368D01*
X307710Y882505D01*
X308012Y882484D01*
X308035Y882481D01*
X308600Y882369D01*
X312400D01*
X313024Y882493D01*
X313026Y882494D01*
X314180Y882561D01*
X316000D01*
X316587Y882677D01*
X317087Y882365D01*
Y879794D01*
X317087Y879720D01*
X316909Y879294D01*
X313343D01*
X313024Y879507D01*
X312400Y879631D01*
X312015D01*
X311700Y879694D01*
X310500D01*
X310185Y879631D01*
X308600D01*
X307976Y879507D01*
X307447Y879154D01*
X307093Y878624D01*
X306969Y878000D01*
Y876800D01*
X307093Y876176D01*
X307447Y875646D01*
X307976Y875293D01*
X308600Y875169D01*
X310185D01*
X310500Y875106D01*
X310885D01*
X311222Y874881D01*
X312100Y874706D01*
X315357D01*
X315565Y874206D01*
X315440Y874081D01*
X315101Y873494D01*
X314925Y872839D01*
Y872161D01*
X315101Y871506D01*
X315440Y870919D01*
X315919Y870440D01*
X316506Y870101D01*
X317161Y869925D01*
X317839D01*
X318494Y870101D01*
X319081Y870440D01*
X319435Y870794D01*
X319750Y870872D01*
X320065Y870794D01*
X320419Y870440D01*
X321006Y870101D01*
X321661Y869925D01*
X322339D01*
X322994Y870101D01*
X323581Y870440D01*
X324060Y870919D01*
X324399Y871506D01*
X324575Y872161D01*
Y872839D01*
X324399Y873494D01*
X324177Y873879D01*
X324188Y874004D01*
X324236Y874291D01*
X324294Y874506D01*
X324351Y874646D01*
X324389Y874709D01*
X324482Y874718D01*
X324489Y874720D01*
X326173D01*
Y879220D01*
X326173Y879280D01*
Y879720D01*
X326173Y879780D01*
Y884280D01*
X326173D01*
Y884721D01*
X326173D01*
Y889221D01*
X326173Y889279D01*
Y889721D01*
X326173Y889779D01*
Y894279D01*
X326173Y894279D01*
Y894720D01*
X326173D01*
X326173Y894779D01*
Y899220D01*
X326173Y899279D01*
Y899720D01*
X326173Y899780D01*
Y904220D01*
X326173Y904280D01*
Y904720D01*
X326173Y904780D01*
Y909221D01*
X326173Y909280D01*
Y909721D01*
X326173Y909779D01*
Y914279D01*
X318137D01*
X318099Y914287D01*
X318090Y914285D01*
X318080Y914287D01*
X318046Y914279D01*
X317087D01*
Y914069D01*
X316677Y914039D01*
X292500D01*
X291720Y913884D01*
X291058Y913442D01*
X251127Y873511D01*
X250666Y873757D01*
X250794Y874400D01*
Y878500D01*
X250620Y879378D01*
X250122Y880122D01*
X249378Y880619D01*
X248500Y880794D01*
X247622Y880619D01*
X246878Y880122D01*
X246380Y879378D01*
X246206Y878500D01*
Y875371D01*
X245954Y875170D01*
X245684Y874979D01*
X245433Y874824D01*
X245202Y874704D01*
X244992Y874618D01*
X244806Y874561D01*
X244648Y874531D01*
X244500D01*
X243876Y874407D01*
X243639Y874249D01*
X243139Y874516D01*
Y887889D01*
X243039Y888392D01*
Y909536D01*
X243041Y909599D01*
X243065Y909830D01*
X243096Y910033D01*
X243133Y910194D01*
X243170Y910311D01*
X243200Y910382D01*
X243210Y910399D01*
X243242Y910425D01*
X243246Y910431D01*
X243320Y910480D01*
X243478Y910716D01*
X243492Y910734D01*
X243494Y910741D01*
X243700Y911049D01*
X243834Y911720D01*
Y918280D01*
X243700Y918951D01*
X243494Y919259D01*
X243492Y919266D01*
X243478Y919284D01*
X243320Y919520D01*
X243246Y919569D01*
X243242Y919575D01*
X243210Y919601D01*
X243200Y919618D01*
X243170Y919689D01*
X243133Y919806D01*
X243096Y919967D01*
X243067Y920158D01*
X243039Y920514D01*
Y934442D01*
X243052Y934591D01*
X243088Y934805D01*
X243128Y934957D01*
X243131Y934963D01*
X248100D01*
X248841Y935110D01*
X249470Y935530D01*
X249890Y936159D01*
X250037Y936900D01*
Y941100D01*
X249890Y941841D01*
X249470Y942470D01*
X248841Y942890D01*
X248100Y943037D01*
X235008D01*
X234766Y943206D01*
X234187Y943697D01*
X231069Y946815D01*
X230407Y947569D01*
X230141Y947919D01*
X229939Y948225D01*
X229831Y948425D01*
Y949900D01*
X229707Y950524D01*
X229353Y951054D01*
X229065Y951246D01*
X229052Y951261D01*
X229038Y951268D01*
X229028Y951279D01*
X228988Y951298D01*
X228824Y951407D01*
X228713Y951429D01*
X228695Y951438D01*
X228603Y951463D01*
X228539Y951488D01*
X228455Y951531D01*
X228150Y951727D01*
X228002Y951838D01*
X227536Y952248D01*
X224630Y955154D01*
Y961590D01*
X224659Y961777D01*
X224722Y962012D01*
X224813Y962259D01*
X224934Y962516D01*
X225089Y962786D01*
X225277Y963065D01*
X225502Y963355D01*
X225763Y963654D01*
X226078Y963978D01*
X226128Y964055D01*
X226541Y964469D01*
X227191Y965594D01*
X227528Y966850D01*
Y968150D01*
X227191Y969406D01*
X226541Y970531D01*
X225622Y971451D01*
X224496Y972101D01*
X223240Y972437D01*
D02*
G37*
G36*
X287839Y890075D02*
X287161D01*
X286506Y889899D01*
X285919Y889560D01*
X285440Y889081D01*
X285101Y888494D01*
X284925Y887839D01*
Y887161D01*
X285101Y886506D01*
X285440Y885919D01*
X285919Y885440D01*
X286506Y885101D01*
X287161Y884925D01*
X287839D01*
X288494Y885101D01*
X289081Y885440D01*
X289560Y885919D01*
X289899Y886506D01*
X290075Y887161D01*
Y887839D01*
X289899Y888494D01*
X289560Y889081D01*
X289081Y889560D01*
X288494Y889899D01*
X287839Y890075D01*
D02*
G37*
G36*
X297000Y888031D02*
X295800D01*
X295176Y887907D01*
X294647Y887554D01*
X294293Y887024D01*
X294169Y886400D01*
Y885089D01*
X294057Y885044D01*
X293833Y884986D01*
X293528Y884937D01*
X293304Y884918D01*
X291923D01*
X291339Y885075D01*
X290661D01*
X290006Y884899D01*
X289419Y884560D01*
X288940Y884081D01*
X288601Y883494D01*
X288425Y882839D01*
Y882161D01*
X288601Y881506D01*
X288940Y880919D01*
X289419Y880440D01*
X290006Y880101D01*
X290661Y879925D01*
X291339D01*
X291994Y880101D01*
X292391Y880330D01*
X295724D01*
X296602Y880505D01*
X297346Y881002D01*
X297391Y881046D01*
X297624Y881093D01*
X298153Y881446D01*
X298507Y881976D01*
X298631Y882600D01*
Y882985D01*
X298694Y883300D01*
Y884500D01*
X298631Y884815D01*
Y886400D01*
X298507Y887024D01*
X298153Y887554D01*
X297624Y887907D01*
X297000Y888031D01*
D02*
G37*
G36*
X165854Y882807D02*
X164854D01*
X163680Y882652D01*
X162585Y882199D01*
X161645Y881477D01*
X160924Y880537D01*
X160470Y879443D01*
X160316Y878268D01*
X160470Y877093D01*
X160516Y876982D01*
X160495Y876941D01*
X160376Y876756D01*
X160001Y876298D01*
X156058Y872355D01*
X155616Y871694D01*
X155461Y870913D01*
Y817000D01*
X155616Y816220D01*
X156058Y815558D01*
X167424Y804192D01*
X167334Y803679D01*
X167295Y803650D01*
X167275Y803627D01*
X166969Y803451D01*
X166049Y802531D01*
X165399Y801406D01*
X165063Y800150D01*
Y798850D01*
X165399Y797594D01*
X166049Y796469D01*
X166969Y795549D01*
X168094Y794899D01*
X169350Y794563D01*
X170650D01*
X171906Y794899D01*
X173031Y795549D01*
X173951Y796469D01*
X174601Y797594D01*
X174937Y798850D01*
Y800150D01*
X174601Y801406D01*
X173951Y802531D01*
X173031Y803451D01*
X171906Y804101D01*
X171739Y804145D01*
X171738Y804146D01*
X171718Y804184D01*
X171690Y804257D01*
X171662Y804366D01*
X171637Y804511D01*
X171634Y804548D01*
Y804905D01*
X171479Y805686D01*
X171037Y806347D01*
X159539Y817845D01*
Y870069D01*
X161236Y871765D01*
X161612Y871435D01*
X161388Y871142D01*
X160924Y870537D01*
X160470Y869442D01*
X160316Y868268D01*
X160470Y867093D01*
X160924Y865998D01*
X161645Y865058D01*
X162585Y864337D01*
X163680Y863883D01*
X164854Y863729D01*
X165854D01*
X167029Y863883D01*
X168124Y864337D01*
X169064Y865058D01*
X169785Y865998D01*
X169831Y866109D01*
X169876Y866123D01*
X170090Y866170D01*
X170679Y866228D01*
X182788D01*
X182969Y866197D01*
X183114Y866148D01*
X183210Y866096D01*
X183275Y866043D01*
X183329Y865978D01*
X183381Y865882D01*
X183429Y865736D01*
X183461Y865556D01*
Y790845D01*
X172737Y780121D01*
X172584Y780010D01*
X172373Y779887D01*
X172135Y779777D01*
X171867Y779681D01*
X171567Y779600D01*
X171236Y779536D01*
X170872Y779490D01*
X170476Y779463D01*
X170025Y779456D01*
X169934Y779437D01*
X169350D01*
X168094Y779101D01*
X166969Y778451D01*
X166049Y777531D01*
X165399Y776406D01*
X165063Y775150D01*
Y773850D01*
X165399Y772594D01*
X166049Y771469D01*
X166969Y770549D01*
X168094Y769899D01*
X169350Y769563D01*
X170650D01*
X171906Y769899D01*
X173031Y770549D01*
X173951Y771469D01*
X174601Y772594D01*
X174937Y773850D01*
Y774435D01*
X174956Y774525D01*
X174963Y774976D01*
X174989Y775372D01*
X175036Y775736D01*
X175100Y776067D01*
X175181Y776367D01*
X175277Y776635D01*
X175387Y776873D01*
X175510Y777084D01*
X175621Y777237D01*
X186942Y788558D01*
X187384Y789220D01*
X187539Y790000D01*
Y865556D01*
X187571Y865737D01*
X187619Y865882D01*
X187671Y865978D01*
X187724Y866043D01*
X187790Y866096D01*
X187886Y866148D01*
X188031Y866197D01*
X188212Y866228D01*
X209388D01*
X219132Y856484D01*
X219534Y856041D01*
X219989Y855469D01*
X220149Y855237D01*
X220277Y855027D01*
X220366Y854854D01*
X220418Y854724D01*
X220460Y854572D01*
X220468Y854554D01*
X220490Y854445D01*
X220573Y854321D01*
X220585Y854289D01*
X220615Y854259D01*
X220619Y854252D01*
X220637Y854216D01*
X220652Y854203D01*
X220832Y853932D01*
X221345Y853590D01*
X221950Y853470D01*
X223050D01*
X223655Y853590D01*
X224167Y853932D01*
X224510Y854445D01*
X224630Y855050D01*
Y856950D01*
X224510Y857555D01*
X224167Y858068D01*
X223884Y858257D01*
X223866Y858277D01*
X223852Y858283D01*
X223841Y858294D01*
X223803Y858311D01*
X223655Y858410D01*
X223530Y858435D01*
X223506Y858446D01*
X223346Y858486D01*
X223219Y858530D01*
X223076Y858592D01*
X222931Y858668D01*
X222551Y858912D01*
X222375Y859046D01*
X222093Y859291D01*
X211674Y869710D01*
X211013Y870152D01*
X210232Y870307D01*
X170624D01*
X170406Y870322D01*
X170106Y870362D01*
X169876Y870412D01*
X169831Y870427D01*
X169785Y870537D01*
X169064Y871477D01*
X168124Y872198D01*
X167029Y872652D01*
X165854Y872807D01*
X164854D01*
X163680Y872652D01*
X162585Y872198D01*
X161980Y871734D01*
X161687Y871510D01*
X161357Y871886D01*
X162924Y873453D01*
X163088Y873596D01*
X163329Y873780D01*
X163527Y873908D01*
X163569Y873929D01*
X163680Y873884D01*
X164854Y873729D01*
X165854D01*
X167029Y873884D01*
X168124Y874337D01*
X169064Y875058D01*
X169785Y875998D01*
X169831Y876109D01*
X169876Y876123D01*
X170090Y876170D01*
X170679Y876229D01*
X208288D01*
X219550Y864966D01*
X219621Y864883D01*
X219774Y864681D01*
X219912Y864475D01*
X220035Y864265D01*
X220144Y864052D01*
X220239Y863833D01*
X220320Y863608D01*
X220388Y863378D01*
X220450Y863111D01*
X220463Y863082D01*
X220490Y862945D01*
X220573Y862821D01*
X220585Y862789D01*
X220603Y862771D01*
X220613Y862749D01*
X220636Y862727D01*
X220832Y862432D01*
X221345Y862090D01*
X221950Y861970D01*
X223050D01*
X223655Y862090D01*
X224167Y862432D01*
X224510Y862945D01*
X224630Y863550D01*
Y865450D01*
X224510Y866055D01*
X224167Y866568D01*
X223910Y866739D01*
X223903Y866748D01*
X223877Y866762D01*
X223866Y866769D01*
X223841Y866794D01*
X223803Y866811D01*
X223655Y866910D01*
X223561Y866929D01*
X223552Y866934D01*
X223511Y866946D01*
X223493Y866954D01*
X223422Y866995D01*
X223342Y867049D01*
X222537Y867747D01*
X210574Y879710D01*
X209913Y880152D01*
X209132Y880307D01*
X170624D01*
X170406Y880322D01*
X170106Y880362D01*
X169876Y880412D01*
X169831Y880427D01*
X169785Y880537D01*
X169064Y881477D01*
X168124Y882199D01*
X167029Y882652D01*
X165854Y882807D01*
D02*
G37*
G36*
Y862807D02*
X164854D01*
X163680Y862652D01*
X162585Y862199D01*
X161645Y861477D01*
X160924Y860537D01*
X160470Y859443D01*
X160316Y858268D01*
X160470Y857093D01*
X160924Y855998D01*
X161645Y855058D01*
X162585Y854337D01*
X163680Y853883D01*
X164854Y853729D01*
X165854D01*
X167029Y853883D01*
X168124Y854337D01*
X169064Y855058D01*
X169785Y855998D01*
X170238Y857093D01*
X170393Y858268D01*
X170238Y859443D01*
X169785Y860537D01*
X169064Y861477D01*
X168124Y862199D01*
X167029Y862652D01*
X165854Y862807D01*
D02*
G37*
G36*
X255500Y859694D02*
X255185Y859631D01*
X253600D01*
X252976Y859507D01*
X252447Y859153D01*
X252093Y858624D01*
X251969Y858000D01*
Y856800D01*
X252093Y856176D01*
X252447Y855647D01*
X252758Y855439D01*
X252779Y855415D01*
X252819Y855398D01*
X252976Y855293D01*
X253113Y855266D01*
X253142Y855252D01*
X253486Y855173D01*
X253792Y855084D01*
X254089Y854976D01*
X254379Y854852D01*
X254661Y854709D01*
X254936Y854548D01*
X255205Y854368D01*
X255469Y854169D01*
X255587Y854069D01*
X256778Y852878D01*
X257522Y852381D01*
X258400Y852206D01*
X264000D01*
X264878Y852381D01*
X265622Y852878D01*
X266120Y853622D01*
X266294Y854500D01*
X266120Y855378D01*
X265622Y856122D01*
X264878Y856619D01*
X264000Y856794D01*
X259433D01*
X259341Y856938D01*
X259237Y857129D01*
X259156Y857314D01*
X259095Y857491D01*
X259053Y857664D01*
X259031Y857812D01*
Y858000D01*
X258907Y858624D01*
X258554Y859153D01*
X258024Y859507D01*
X257400Y859631D01*
X255815D01*
X255500Y859694D01*
D02*
G37*
G36*
X321607Y849673D02*
X321463Y849645D01*
X321318Y849631D01*
X321270Y849606D01*
X321217Y849596D01*
X321096Y849515D01*
X320977Y849596D01*
X320924Y849606D01*
X320876Y849631D01*
X320730Y849645D01*
X320586Y849673D01*
X320533Y849663D01*
X320480Y849667D01*
X320340Y849624D01*
X320196Y849596D01*
X320151Y849566D01*
X320100Y849549D01*
X319987Y849456D01*
X319865Y849374D01*
X319835Y849330D01*
X319794Y849295D01*
X319726Y849166D01*
X319644Y849044D01*
X319634Y848991D01*
X319609Y848943D01*
X319595Y848797D01*
X319567Y848654D01*
Y848448D01*
X318630D01*
X318205Y848363D01*
X318067Y848401D01*
X317878Y848518D01*
X317669Y848724D01*
X317663Y848789D01*
X317638Y848837D01*
X317627Y848890D01*
X317546Y849012D01*
X317478Y849141D01*
X317437Y849176D01*
X317406Y849221D01*
X317285Y849302D01*
X317173Y849396D01*
X317121Y849412D01*
X317076Y849442D01*
X316932Y849471D01*
X316793Y849514D01*
X316739Y849509D01*
X316685Y849520D01*
X316542Y849491D01*
X316396Y849478D01*
X316349Y849453D01*
X316295Y849442D01*
X316174Y849361D01*
X316044Y849293D01*
X316010Y849251D01*
X315965Y849221D01*
X315883Y849099D01*
X315790Y848987D01*
X315774Y848935D01*
X315743Y848890D01*
X315715Y848747D01*
X315671Y848607D01*
X315662Y848515D01*
X315597Y848476D01*
X315456Y848418D01*
X315239Y848360D01*
X314949Y848312D01*
X314743Y848294D01*
X301000D01*
X300122Y848119D01*
X299378Y847622D01*
X295378Y843622D01*
X294881Y842878D01*
X294706Y842000D01*
Y829815D01*
X294695Y829694D01*
X294654Y829441D01*
X294599Y829221D01*
X294535Y829033D01*
X294470Y828894D01*
X289897D01*
X289488Y828975D01*
X288610Y828801D01*
X287865Y828304D01*
X287368Y827559D01*
X287194Y826681D01*
X287368Y825803D01*
X287865Y825059D01*
X287947Y824978D01*
X288691Y824481D01*
X289569Y824306D01*
X297000D01*
X297878Y824481D01*
X298622Y824978D01*
X299119Y825722D01*
X299294Y826600D01*
X299459Y826613D01*
X299584Y826656D01*
X299714Y826682D01*
X299771Y826720D01*
X299835Y826742D01*
X299935Y826829D01*
X300045Y826903D01*
X300083Y826960D01*
X300134Y827005D01*
X300192Y827124D01*
X300266Y827234D01*
X300279Y827301D01*
X300309Y827362D01*
X300318Y827494D01*
X300343Y827624D01*
X300330Y827691D01*
X300335Y827759D01*
X300292Y827884D01*
X300266Y828014D01*
X300228Y828071D01*
X300206Y828135D01*
X300118Y828235D01*
X300045Y828345D01*
X299988Y828383D01*
X299943Y828434D01*
X299791Y828550D01*
X299700Y828640D01*
X299616Y828747D01*
X299538Y828876D01*
X299465Y829033D01*
X299401Y829221D01*
X299346Y829441D01*
X299305Y829694D01*
X299294Y829815D01*
Y841050D01*
X301950Y843706D01*
X314743D01*
X314949Y843688D01*
X315239Y843640D01*
X315456Y843582D01*
X315597Y843524D01*
X315662Y843485D01*
X315671Y843393D01*
X315715Y843253D01*
X315743Y843110D01*
X315774Y843065D01*
X315790Y843013D01*
X315883Y842901D01*
X315965Y842779D01*
X316010Y842749D01*
X316044Y842707D01*
X316174Y842639D01*
X316295Y842558D01*
X316349Y842547D01*
X316396Y842522D01*
X316542Y842509D01*
X316685Y842480D01*
X316739Y842491D01*
X316793Y842486D01*
X316932Y842529D01*
X317076Y842558D01*
X317121Y842588D01*
X317173Y842604D01*
X317285Y842698D01*
X317406Y842779D01*
X317437Y842824D01*
X317478Y842859D01*
X317546Y842988D01*
X317627Y843110D01*
X317638Y843163D01*
X317663Y843211D01*
X317676Y843357D01*
X317705Y843500D01*
Y843706D01*
X318476D01*
X319067Y843823D01*
X319241Y843764D01*
X319591Y843533D01*
X319595Y843510D01*
X319609Y843364D01*
X319634Y843316D01*
X319644Y843263D01*
X319726Y843142D01*
X319794Y843012D01*
X319835Y842978D01*
X319865Y842933D01*
X319987Y842851D01*
X320100Y842758D01*
X320151Y842742D01*
X320196Y842712D01*
X320340Y842683D01*
X320480Y842640D01*
X320533Y842645D01*
X320586Y842634D01*
X320730Y842663D01*
X320876Y842676D01*
X320924Y842701D01*
X320977Y842712D01*
X321096Y842792D01*
X321217Y842712D01*
X321270Y842701D01*
X321318Y842676D01*
X321463Y842663D01*
X321607Y842634D01*
X321660Y842645D01*
X321714Y842640D01*
X321853Y842683D01*
X321997Y842712D01*
X322042Y842742D01*
X322094Y842758D01*
X322206Y842851D01*
X322328Y842933D01*
X322358Y842978D01*
X322399Y843012D01*
X322467Y843142D01*
X322549Y843263D01*
X322559Y843317D01*
X322585Y843365D01*
X322598Y843510D01*
X322626Y843653D01*
Y843859D01*
X323551D01*
X324429Y844034D01*
X325173Y844531D01*
X325671Y845276D01*
X325845Y846154D01*
X325671Y847031D01*
X325173Y847776D01*
X324429Y848273D01*
X323551Y848448D01*
X322626D01*
Y848654D01*
X322598Y848797D01*
X322585Y848942D01*
X322559Y848991D01*
X322549Y849044D01*
X322467Y849165D01*
X322399Y849295D01*
X322358Y849329D01*
X322328Y849374D01*
X322206Y849456D01*
X322094Y849549D01*
X322042Y849565D01*
X321997Y849596D01*
X321853Y849624D01*
X321714Y849667D01*
X321660Y849662D01*
X321607Y849673D01*
D02*
G37*
G36*
X165854Y852807D02*
X164854D01*
X163680Y852652D01*
X162585Y852199D01*
X161645Y851477D01*
X160924Y850537D01*
X160470Y849442D01*
X160316Y848268D01*
X160470Y847093D01*
X160924Y845998D01*
X161645Y845058D01*
X162585Y844337D01*
X163680Y843884D01*
X164854Y843729D01*
X165854D01*
X167029Y843884D01*
X168124Y844337D01*
X169064Y845058D01*
X169785Y845998D01*
X170238Y847093D01*
X170393Y848268D01*
X170238Y849442D01*
X169785Y850537D01*
X169064Y851477D01*
X168124Y852199D01*
X167029Y852652D01*
X165854Y852807D01*
D02*
G37*
G36*
X165354Y841294D02*
X164854D01*
X164071Y841191D01*
X163341Y840888D01*
X162715Y840407D01*
X162234Y839781D01*
X161932Y839051D01*
X161828Y838268D01*
X161932Y837485D01*
X162234Y836755D01*
X162715Y836128D01*
X163341Y835647D01*
X164071Y835345D01*
X164854Y835242D01*
X165354D01*
X166138Y835345D01*
X166867Y835647D01*
X167494Y836128D01*
X167975Y836755D01*
X168277Y837485D01*
X168380Y838268D01*
X168277Y839051D01*
X167975Y839781D01*
X167494Y840407D01*
X166867Y840888D01*
X166138Y841191D01*
X165354Y841294D01*
D02*
G37*
G36*
X289500Y821794D02*
X288622Y821619D01*
X287878Y821122D01*
X287381Y820378D01*
X287206Y819500D01*
X287381Y818622D01*
X287878Y817878D01*
X287978Y817778D01*
X288722Y817281D01*
X289600Y817106D01*
X294470D01*
X294535Y816967D01*
X294599Y816779D01*
X294654Y816559D01*
X294695Y816306D01*
X294706Y816185D01*
Y806500D01*
X294881Y805622D01*
X295378Y804878D01*
X298878Y801378D01*
X299622Y800881D01*
X300500Y800706D01*
X314743D01*
X314949Y800688D01*
X315239Y800640D01*
X315456Y800582D01*
X315597Y800524D01*
X315661Y800485D01*
Y797319D01*
X326520D01*
Y808374D01*
X315661D01*
Y805515D01*
X315597Y805476D01*
X315456Y805418D01*
X315239Y805360D01*
X314949Y805312D01*
X314743Y805294D01*
X301450D01*
X299294Y807450D01*
Y816185D01*
X299305Y816306D01*
X299346Y816559D01*
X299401Y816779D01*
X299465Y816967D01*
X299538Y817124D01*
X299617Y817253D01*
X299700Y817360D01*
X299791Y817450D01*
X299943Y817566D01*
X299957Y817582D01*
X300054Y817647D01*
X300178Y817833D01*
X300206Y817865D01*
X300213Y817885D01*
X300407Y818176D01*
X300531Y818800D01*
Y820000D01*
X300407Y820624D01*
X300054Y821154D01*
X299524Y821507D01*
X298900Y821631D01*
X297315D01*
X297000Y821694D01*
X290003D01*
X289500Y821794D01*
D02*
G37*
G36*
X298500Y771031D02*
X297300D01*
X296676Y770907D01*
X296146Y770553D01*
X295793Y770024D01*
X295669Y769400D01*
Y768718D01*
X295559Y768689D01*
X295333Y768653D01*
X295200Y768642D01*
X294683Y768672D01*
X294572Y768685D01*
X294553Y768688D01*
X294524Y768707D01*
X293900Y768831D01*
X290100D01*
X289476Y768707D01*
X289474Y768706D01*
X288320Y768639D01*
X284100D01*
X283320Y768484D01*
X282922Y768218D01*
X282867Y768195D01*
X282825Y768153D01*
X282658Y768042D01*
X282558Y767942D01*
X282447Y767775D01*
X282305Y767633D01*
X282228Y767447D01*
X282116Y767280D01*
X282077Y767083D01*
X282000Y766898D01*
Y766697D01*
X281961Y766500D01*
X282000Y766303D01*
Y766102D01*
X282077Y765917D01*
X282116Y765720D01*
X282228Y765553D01*
X282305Y765367D01*
X282447Y765225D01*
X282558Y765058D01*
X282725Y764947D01*
X282867Y764805D01*
X283053Y764728D01*
X283220Y764616D01*
X283417Y764577D01*
X283602Y764500D01*
X283803D01*
X284000Y764461D01*
X284197Y764500D01*
X284398D01*
X284545Y764561D01*
X288760D01*
X289317Y764529D01*
X289428Y764515D01*
X289447Y764512D01*
X289476Y764493D01*
X290100Y764369D01*
X293900D01*
X294524Y764493D01*
X294526Y764494D01*
X295368Y764543D01*
X295445Y764537D01*
X295642Y764507D01*
X295831Y764468D01*
X296001Y764423D01*
X296153Y764373D01*
X296286Y764318D01*
X296403Y764259D01*
X296540Y764175D01*
X296567Y764165D01*
X296676Y764093D01*
X296768Y764075D01*
X296777Y764070D01*
X296806Y764067D01*
X296873Y764053D01*
X296914Y764039D01*
X296942Y764040D01*
X297300Y763969D01*
X298500D01*
X299124Y764093D01*
X299654Y764446D01*
X300007Y764976D01*
X300131Y765600D01*
Y769400D01*
X300007Y770024D01*
X299654Y770553D01*
X299124Y770907D01*
X298500Y771031D01*
D02*
G37*
G36*
X290839Y754075D02*
X290161D01*
X289506Y753899D01*
X288919Y753560D01*
X288440Y753081D01*
X288101Y752494D01*
X287925Y751839D01*
Y751161D01*
X288101Y750506D01*
X288440Y749919D01*
X288919Y749440D01*
X289506Y749101D01*
X290161Y748925D01*
X290582D01*
X290666Y748845D01*
X290853Y748431D01*
X290601Y747994D01*
X290425Y747339D01*
Y746661D01*
X290601Y746006D01*
X290940Y745419D01*
X291419Y744940D01*
X292006Y744601D01*
X292661Y744425D01*
X293339D01*
X293994Y744601D01*
X294391Y744830D01*
X297224D01*
X298102Y745005D01*
X298847Y745502D01*
X298891Y745546D01*
X299124Y745593D01*
X299654Y745947D01*
X300007Y746476D01*
X300131Y747100D01*
Y747485D01*
X300194Y747800D01*
Y749000D01*
X300131Y749315D01*
Y750900D01*
X300007Y751524D01*
X299654Y752053D01*
X299124Y752407D01*
X298500Y752531D01*
X297300D01*
X296676Y752407D01*
X296146Y752053D01*
X295793Y751524D01*
X295669Y750900D01*
Y749589D01*
X295557Y749544D01*
X295333Y749486D01*
X295028Y749437D01*
X294804Y749418D01*
X293923D01*
X293339Y749575D01*
X292918D01*
X292834Y749655D01*
X292647Y750069D01*
X292899Y750506D01*
X293075Y751161D01*
Y751839D01*
X292899Y752494D01*
X292560Y753081D01*
X292081Y753560D01*
X291494Y753899D01*
X290839Y754075D01*
D02*
G37*
G36*
X169180Y741157D02*
X167820D01*
X166486Y740892D01*
X165229Y740372D01*
X164098Y739616D01*
X163136Y738654D01*
X162380Y737523D01*
X161860Y736266D01*
X161594Y734932D01*
Y733572D01*
X161860Y732238D01*
X162380Y730981D01*
X163136Y729850D01*
X164098Y728888D01*
X165229Y728132D01*
X166486Y727612D01*
X167820Y727347D01*
X169180D01*
X170514Y727612D01*
X171771Y728132D01*
X172902Y728888D01*
X173864Y729850D01*
X174620Y730981D01*
X175140Y732238D01*
X175406Y733572D01*
Y734932D01*
X175140Y736266D01*
X174620Y737523D01*
X173864Y738654D01*
X172902Y739616D01*
X171771Y740372D01*
X170514Y740892D01*
X169180Y741157D01*
D02*
G37*
%LPD*%
G36*
X321607Y982418D02*
X321811Y982362D01*
X322186Y982300D01*
X322611Y982263D01*
X323086Y982250D01*
Y979750D01*
X322611Y979737D01*
X322186Y979700D01*
X321811Y979638D01*
X321607Y979582D01*
Y978500D01*
X321582Y978738D01*
X321506Y978950D01*
X321381Y979138D01*
X321205Y979300D01*
X321095Y979367D01*
X320986Y979300D01*
X320811Y979138D01*
X320686Y978950D01*
X320611Y978738D01*
X320586Y978500D01*
Y979581D01*
X320376Y979638D01*
X319999Y979700D01*
X319572Y979737D01*
X319095Y979750D01*
Y982250D01*
X319572Y982263D01*
X319999Y982300D01*
X320376Y982362D01*
X320586Y982419D01*
Y983500D01*
X320611Y983263D01*
X320686Y983050D01*
X320811Y982862D01*
X320986Y982700D01*
X321095Y982633D01*
X321205Y982700D01*
X321381Y982862D01*
X321506Y983050D01*
X321582Y983263D01*
X321607Y983500D01*
Y982418D01*
D02*
G37*
G36*
X316685Y978500D02*
X316660Y978738D01*
X316585Y978950D01*
X316459Y979138D01*
X316283Y979300D01*
X316057Y979438D01*
X315781Y979550D01*
X315455Y979638D01*
X315078Y979700D01*
X314651Y979737D01*
X314173Y979750D01*
Y982250D01*
X314651Y982263D01*
X315078Y982300D01*
X315455Y982362D01*
X315781Y982450D01*
X316057Y982563D01*
X316283Y982700D01*
X316459Y982862D01*
X316585Y983050D01*
X316660Y983263D01*
X316685Y983500D01*
Y978500D01*
D02*
G37*
G36*
X298261Y965920D02*
X298293Y965566D01*
X298347Y965236D01*
X298422Y964932D01*
X298518Y964652D01*
X298637Y964396D01*
X298776Y964166D01*
X298937Y963961D01*
X299120Y963780D01*
X299324Y963624D01*
X294676D01*
X294880Y963780D01*
X295063Y963961D01*
X295224Y964166D01*
X295363Y964396D01*
X295481Y964652D01*
X295578Y964932D01*
X295653Y965236D01*
X295707Y965566D01*
X295739Y965920D01*
X295750Y966300D01*
X298250D01*
X298261Y965920D01*
D02*
G37*
G36*
X299120Y954220D02*
X298937Y954039D01*
X298776Y953834D01*
X298637Y953603D01*
X298518Y953348D01*
X298422Y953068D01*
X298347Y952764D01*
X298293Y952434D01*
X298261Y952080D01*
X298250Y951700D01*
X295750D01*
X295739Y952080D01*
X295707Y952434D01*
X295653Y952764D01*
X295578Y953068D01*
X295481Y953348D01*
X295363Y953603D01*
X295224Y953834D01*
X295063Y954039D01*
X294880Y954220D01*
X294676Y954376D01*
X299324D01*
X299120Y954220D01*
D02*
G37*
G36*
X321607Y939110D02*
X321811Y939055D01*
X322186Y938993D01*
X322611Y938955D01*
X323086Y938943D01*
Y936443D01*
X322611Y936430D01*
X322186Y936393D01*
X321811Y936330D01*
X321607Y936275D01*
Y935193D01*
X321582Y935430D01*
X321506Y935643D01*
X321381Y935830D01*
X321205Y935993D01*
X321095Y936059D01*
X320986Y935993D01*
X320811Y935830D01*
X320686Y935643D01*
X320611Y935430D01*
X320586Y935193D01*
Y936274D01*
X320376Y936330D01*
X319999Y936393D01*
X319572Y936430D01*
X319095Y936443D01*
Y938943D01*
X319572Y938955D01*
X319999Y938993D01*
X320376Y939055D01*
X320586Y939112D01*
Y940193D01*
X320611Y939955D01*
X320686Y939743D01*
X320811Y939555D01*
X320986Y939393D01*
X321095Y939326D01*
X321205Y939393D01*
X321381Y939555D01*
X321506Y939743D01*
X321582Y939955D01*
X321607Y940193D01*
Y939110D01*
D02*
G37*
G36*
X316685Y935193D02*
X316660Y935430D01*
X316585Y935643D01*
X316459Y935830D01*
X316283Y935993D01*
X316057Y936130D01*
X315781Y936243D01*
X315455Y936330D01*
X315078Y936393D01*
X314651Y936430D01*
X314173Y936443D01*
Y938943D01*
X314651Y938955D01*
X315078Y938993D01*
X315455Y939055D01*
X315781Y939143D01*
X316057Y939255D01*
X316283Y939393D01*
X316459Y939555D01*
X316585Y939743D01*
X316660Y939955D01*
X316685Y940193D01*
Y935193D01*
D02*
G37*
G36*
X230482Y920483D02*
X231093Y919979D01*
X231403Y919762D01*
X231717Y919568D01*
X232035Y919398D01*
X232356Y919250D01*
X232681Y919126D01*
X233009Y919025D01*
X233341Y918947D01*
X230194Y915466D01*
X230327Y915668D01*
X230390Y915903D01*
X230384Y916172D01*
X230310Y916475D01*
X230166Y916811D01*
X229954Y917182D01*
X229672Y917586D01*
X229322Y918024D01*
X228415Y919002D01*
X230182Y920770D01*
X230482Y920483D01*
D02*
G37*
G36*
X233637Y911281D02*
X233552Y911089D01*
X233478Y910869D01*
X233413Y910621D01*
X233359Y910344D01*
X233279Y909705D01*
X233254Y909342D01*
X233234Y908532D01*
X230734D01*
X230729Y908951D01*
X230655Y910038D01*
X230610Y910344D01*
X230491Y910869D01*
X230416Y911089D01*
X230332Y911281D01*
X230237Y911444D01*
X233731D01*
X233637Y911281D01*
D02*
G37*
G36*
X261994Y907082D02*
X262027Y907070D01*
X262069Y907047D01*
X262120Y907012D01*
X262179Y906966D01*
X262324Y906838D01*
X262503Y906665D01*
X260700Y904933D01*
X258860Y906713D01*
X261954Y907071D01*
X261970Y907082D01*
X261994Y907082D01*
D02*
G37*
G36*
X225013Y964345D02*
X224714Y964003D01*
X224451Y963663D01*
X224223Y963325D01*
X224029Y962988D01*
X223871Y962653D01*
X223749Y962320D01*
X223661Y961988D01*
X223608Y961658D01*
X223590Y961330D01*
X221590D01*
X221573Y961658D01*
X221520Y961988D01*
X221432Y962320D01*
X221310Y962653D01*
X221152Y962988D01*
X220958Y963325D01*
X220730Y963663D01*
X220467Y964003D01*
X220168Y964345D01*
X219835Y964688D01*
X225346D01*
X225013Y964345D01*
D02*
G37*
G36*
X226658Y951662D02*
X227358Y951047D01*
X227567Y950889D01*
X227948Y950645D01*
X228121Y950558D01*
X228281Y950494D01*
X228429Y950454D01*
X226413Y947671D01*
X226504Y947846D01*
X226544Y948044D01*
X226532Y948267D01*
X226467Y948514D01*
X226351Y948785D01*
X226182Y949080D01*
X225961Y949399D01*
X225688Y949741D01*
X225363Y950109D01*
X224986Y950500D01*
X226400Y951914D01*
X226658Y951662D01*
D02*
G37*
G36*
X228716Y948834D02*
X228708Y948603D01*
X228764Y948338D01*
X228882Y948037D01*
X229064Y947701D01*
X229309Y947330D01*
X229617Y946924D01*
X230423Y946005D01*
X230921Y945493D01*
X229500Y944086D01*
X229266Y944307D01*
X229024Y944511D01*
X228773Y944698D01*
X228513Y944869D01*
X228245Y945024D01*
X227968Y945161D01*
X227682Y945282D01*
X227387Y945387D01*
X227083Y945475D01*
X226771Y945546D01*
X228787Y949029D01*
X228716Y948834D01*
D02*
G37*
G36*
X233406Y943022D02*
X234143Y942398D01*
X234468Y942170D01*
X234765Y941999D01*
X235034Y941885D01*
X235274Y941827D01*
X235486Y941826D01*
X235668Y941881D01*
X235823Y941993D01*
X233007Y939177D01*
X233119Y939332D01*
X233174Y939515D01*
X233173Y939726D01*
X233115Y939966D01*
X233001Y940235D01*
X232830Y940532D01*
X232602Y940857D01*
X232318Y941212D01*
X231580Y942005D01*
X232995Y943420D01*
X233406Y943022D01*
D02*
G37*
G36*
X242810Y935987D02*
X242640Y935926D01*
X242490Y935826D01*
X242360Y935685D01*
X242250Y935504D01*
X242160Y935282D01*
X242090Y935021D01*
X242040Y934719D01*
X242010Y934377D01*
X242000Y933995D01*
X240000D01*
X239990Y934377D01*
X239960Y934719D01*
X239910Y935021D01*
X239840Y935282D01*
X239750Y935504D01*
X239640Y935685D01*
X239510Y935826D01*
X239360Y935926D01*
X239190Y935987D01*
X239000Y936007D01*
X243000D01*
X242810Y935987D01*
D02*
G37*
G36*
X242006Y920653D02*
X242053Y920040D01*
X242094Y919776D01*
X242148Y919541D01*
X242213Y919334D01*
X242289Y919155D01*
X242378Y919005D01*
X242478Y918884D01*
X242590Y918790D01*
X239410D01*
X239522Y918884D01*
X239622Y919005D01*
X239711Y919155D01*
X239787Y919334D01*
X239852Y919541D01*
X239906Y919776D01*
X239947Y920040D01*
X239976Y920332D01*
X240000Y921002D01*
X242000D01*
X242006Y920653D01*
D02*
G37*
G36*
X318099Y910732D02*
X318079Y910783D01*
X318019Y910829D01*
X317919Y910869D01*
X317779Y910904D01*
X317599Y910933D01*
X317379Y910957D01*
X316479Y910997D01*
X316099Y911000D01*
Y913000D01*
X316479Y913003D01*
X317779Y913096D01*
X317919Y913131D01*
X318019Y913171D01*
X318079Y913217D01*
X318099Y913268D01*
Y910732D01*
D02*
G37*
G36*
X242478Y911116D02*
X242378Y910995D01*
X242289Y910845D01*
X242213Y910666D01*
X242148Y910459D01*
X242094Y910224D01*
X242053Y909960D01*
X242024Y909668D01*
X242000Y908998D01*
X240000D01*
X239994Y909347D01*
X239947Y909960D01*
X239906Y910224D01*
X239852Y910459D01*
X239787Y910666D01*
X239711Y910845D01*
X239622Y910995D01*
X239522Y911116D01*
X239410Y911210D01*
X242590D01*
X242478Y911116D01*
D02*
G37*
G36*
X309236Y909461D02*
X309006Y909399D01*
X308419Y909060D01*
X307940Y908581D01*
X307601Y907994D01*
X307425Y907339D01*
Y906661D01*
X307601Y906006D01*
X307940Y905419D01*
X308419Y904940D01*
X309006Y904601D01*
X309661Y904425D01*
X310339D01*
X310994Y904601D01*
X311581Y904940D01*
X311935Y905293D01*
X312250Y905372D01*
X312565Y905293D01*
X312919Y904940D01*
X313506Y904601D01*
X314161Y904425D01*
X314839D01*
X315494Y904601D01*
X316081Y904940D01*
X316560Y905419D01*
X316587Y905464D01*
X317087Y905331D01*
Y904780D01*
X317087Y904720D01*
Y904280D01*
X317087Y904220D01*
Y903690D01*
X316986Y903672D01*
X316591Y903639D01*
X313740D01*
X313183Y903671D01*
X313072Y903685D01*
X313053Y903688D01*
X313024Y903707D01*
X312400Y903831D01*
X308600D01*
X307976Y903707D01*
X307913Y903665D01*
X307901Y903663D01*
X307125Y903613D01*
X306973Y903638D01*
X306816Y903680D01*
X306772Y903697D01*
X306707Y904024D01*
X306353Y904554D01*
X305824Y904907D01*
X305200Y905031D01*
X304000D01*
X303376Y904907D01*
X302847Y904554D01*
X302493Y904024D01*
X302369Y903400D01*
Y899600D01*
X302493Y898976D01*
X302847Y898446D01*
X303376Y898093D01*
X304000Y897969D01*
X305200D01*
X305824Y898093D01*
X306353Y898446D01*
X306707Y898976D01*
X306793Y899408D01*
X306826Y899421D01*
X306980Y899462D01*
X307197Y899498D01*
X307348Y899511D01*
X307368D01*
X307710Y899505D01*
X308012Y899484D01*
X308035Y899481D01*
X308600Y899369D01*
X312400D01*
X313024Y899493D01*
X313026Y899494D01*
X314180Y899561D01*
X316703D01*
X317087Y899279D01*
X317087Y899061D01*
Y896793D01*
X316966Y896694D01*
X309300D01*
X308985Y896631D01*
X308600D01*
X307976Y896507D01*
X307447Y896154D01*
X307093Y895624D01*
X306969Y895000D01*
Y894414D01*
X306956Y894350D01*
Y894100D01*
X306150Y893294D01*
X304726D01*
X304560Y893581D01*
X304081Y894060D01*
X303494Y894399D01*
X302839Y894575D01*
X302161D01*
X301506Y894399D01*
X301339Y894302D01*
X301265Y894337D01*
X300937Y894648D01*
X301075Y895161D01*
Y895839D01*
X300899Y896494D01*
X300560Y897081D01*
X300081Y897560D01*
X299494Y897899D01*
X299309Y897949D01*
X299227Y898212D01*
X299188Y898499D01*
X299507Y898976D01*
X299631Y899600D01*
Y903400D01*
X299507Y904024D01*
X299153Y904554D01*
X298624Y904907D01*
X298000Y905031D01*
X296800D01*
X296176Y904907D01*
X295647Y904554D01*
X295293Y904024D01*
X295228Y903697D01*
X295184Y903680D01*
X295027Y903638D01*
X294808Y903602D01*
X294749Y903597D01*
X294647Y903601D01*
X294257Y903636D01*
X294143Y903653D01*
X294087Y903665D01*
X294024Y903707D01*
X293400Y903831D01*
X289600D01*
X288976Y903707D01*
X288446Y903354D01*
X288254Y903065D01*
X288239Y903052D01*
X288232Y903038D01*
X288221Y903028D01*
X288202Y902988D01*
X288093Y902824D01*
X288071Y902713D01*
X288062Y902695D01*
X288037Y902603D01*
X288012Y902540D01*
X287969Y902455D01*
X287773Y902150D01*
X287662Y902002D01*
X287252Y901536D01*
X254704Y868987D01*
X254262Y868326D01*
X254106Y867546D01*
Y867078D01*
X254101Y867009D01*
X254077Y866831D01*
X253600D01*
X252976Y866707D01*
X252447Y866354D01*
X252254Y866065D01*
X252239Y866052D01*
X252232Y866038D01*
X252221Y866028D01*
X252202Y865988D01*
X252093Y865824D01*
X252071Y865714D01*
X252062Y865695D01*
X252037Y865603D01*
X252012Y865539D01*
X251969Y865455D01*
X251773Y865150D01*
X251662Y865002D01*
X251252Y864536D01*
X250344Y863628D01*
X249882Y863819D01*
Y865374D01*
X249889Y865413D01*
X249882Y865451D01*
Y866421D01*
X249882Y866421D01*
X249882D01*
X250170Y866786D01*
X293345Y909961D01*
X309170D01*
X309236Y909461D01*
D02*
G37*
G36*
X296222Y899552D02*
X296203Y899742D01*
X296143Y899911D01*
X296042Y900061D01*
X295901Y900191D01*
X295719Y900301D01*
X295497Y900390D01*
X295234Y900460D01*
X294936Y900509D01*
X293629Y900446D01*
Y902754D01*
X293707Y902715D01*
X293817Y902680D01*
X293959Y902650D01*
X294135Y902623D01*
X294584Y902583D01*
X294776Y902576D01*
X294934Y902590D01*
X295240Y902640D01*
X295505Y902710D01*
X295729Y902799D01*
X295913Y902909D01*
X296056Y903039D01*
X296159Y903189D01*
X296221Y903358D01*
X296242Y903548D01*
X296222Y899552D01*
D02*
G37*
G36*
X318099Y900733D02*
X316099Y900600D01*
Y902600D01*
X316479Y902607D01*
X317119Y902660D01*
X317379Y902707D01*
X317599Y902767D01*
X317779Y902840D01*
X317919Y902927D01*
X318019Y903027D01*
X318079Y903141D01*
X318099Y903267D01*
Y900733D01*
D02*
G37*
G36*
X312693Y902725D02*
X312791Y902699D01*
X312925Y902675D01*
X313094Y902655D01*
X313809Y902614D01*
X314840Y902600D01*
Y900600D01*
X314461Y900599D01*
X312791Y900502D01*
X312693Y900475D01*
X312629Y900446D01*
Y902754D01*
X312693Y902725D01*
D02*
G37*
G36*
X305779Y903358D02*
X305841Y903189D01*
X305944Y903039D01*
X306087Y902909D01*
X306271Y902799D01*
X306495Y902710D01*
X306760Y902640D01*
X307066Y902590D01*
X307078Y902589D01*
X308040Y902650D01*
X308183Y902680D01*
X308293Y902715D01*
X308371Y902754D01*
Y900446D01*
X308321Y900466D01*
X308235Y900484D01*
X308111Y900499D01*
X307754Y900524D01*
X307316Y900531D01*
X307070Y900510D01*
X306766Y900460D01*
X306503Y900390D01*
X306281Y900301D01*
X306099Y900191D01*
X305958Y900061D01*
X305857Y899911D01*
X305797Y899742D01*
X305778Y899552D01*
X305758Y903548D01*
X305779Y903358D01*
D02*
G37*
G36*
X291829Y900412D02*
X291654Y900504D01*
X291456Y900544D01*
X291233Y900532D01*
X290986Y900467D01*
X290715Y900350D01*
X290420Y900182D01*
X290102Y899961D01*
X289759Y899688D01*
X289392Y899363D01*
X289001Y898986D01*
X287586Y900401D01*
X287838Y900658D01*
X288453Y901358D01*
X288611Y901567D01*
X288855Y901949D01*
X288943Y902121D01*
X289006Y902281D01*
X289046Y902429D01*
X291829Y900412D01*
D02*
G37*
G36*
X322881Y895732D02*
X324130D01*
X323892Y895708D01*
X323680Y895632D01*
X323492Y895508D01*
X323330Y895333D01*
X323192Y895107D01*
X323080Y894833D01*
X322992Y894508D01*
X322991Y894497D01*
X322992Y894486D01*
X323080Y894160D01*
X323192Y893884D01*
X323330Y893657D01*
X323492Y893482D01*
X323680Y893356D01*
X323892Y893281D01*
X324130Y893256D01*
X322881D01*
X322880Y893233D01*
X320380D01*
X320379Y893256D01*
X320364D01*
X318111Y891003D01*
X318137Y891069D01*
X318117Y891171D01*
X318052Y891308D01*
X317942Y891481D01*
X317787Y891690D01*
X317340Y892214D01*
X316331Y893268D01*
X318099Y895035D01*
X318485Y894654D01*
X319791Y893507D01*
X319930Y893657D01*
X320067Y893884D01*
X320180Y894160D01*
X320267Y894486D01*
X320269Y894497D01*
X320267Y894508D01*
X320180Y894833D01*
X320067Y895107D01*
X319930Y895333D01*
X319767Y895508D01*
X319580Y895632D01*
X319367Y895708D01*
X319130Y895732D01*
X320379D01*
X320380Y895767D01*
X322880D01*
X322881Y895732D01*
D02*
G37*
G36*
X319961Y885744D02*
X319825Y885875D01*
X319657Y885946D01*
X319456Y885955D01*
X319222Y885903D01*
X318956Y885791D01*
X318657Y885618D01*
X318325Y885384D01*
X317960Y885090D01*
X317132Y884318D01*
X315977Y885991D01*
X318099Y888268D01*
X319961Y885744D01*
D02*
G37*
G36*
X312693Y885725D02*
X312791Y885699D01*
X312925Y885675D01*
X313094Y885655D01*
X313809Y885614D01*
X314840Y885600D01*
Y883600D01*
X314461Y883599D01*
X312791Y883502D01*
X312693Y883475D01*
X312629Y883446D01*
Y885754D01*
X312693Y885725D01*
D02*
G37*
G36*
X304779Y886358D02*
X304841Y886189D01*
X304944Y886039D01*
X305087Y885909D01*
X305271Y885799D01*
X305495Y885710D01*
X305760Y885640D01*
X306066Y885590D01*
X306413Y885560D01*
X306562Y885556D01*
X308040Y885650D01*
X308183Y885680D01*
X308293Y885715D01*
X308371Y885754D01*
Y883446D01*
X308321Y883466D01*
X308235Y883484D01*
X308111Y883499D01*
X307754Y883524D01*
X306569Y883544D01*
X306415Y883540D01*
X306070Y883510D01*
X305766Y883460D01*
X305503Y883390D01*
X305281Y883301D01*
X305099Y883191D01*
X304958Y883061D01*
X304857Y882911D01*
X304797Y882742D01*
X304778Y882552D01*
X304758Y886548D01*
X304779Y886358D01*
D02*
G37*
G36*
X318099Y875733D02*
X318074Y875736D01*
X317999Y875739D01*
X315599Y875750D01*
Y878250D01*
X318099Y878267D01*
Y875733D01*
D02*
G37*
G36*
X324138Y875708D02*
X323926Y875632D01*
X323738Y875508D01*
X323576Y875333D01*
X323438Y875107D01*
X323326Y874833D01*
X323238Y874508D01*
X323176Y874133D01*
X323138Y873707D01*
X323126Y873232D01*
X320626D01*
X320613Y873707D01*
X320576Y874133D01*
X320513Y874508D01*
X320426Y874833D01*
X320313Y875107D01*
X320176Y875333D01*
X320013Y875508D01*
X319826Y875632D01*
X319613Y875708D01*
X319376Y875733D01*
X324376D01*
X324138Y875708D01*
D02*
G37*
G36*
X248067Y872200D02*
X247791Y871908D01*
X247535Y871607D01*
X247301Y871296D01*
X247087Y870977D01*
X246895Y870649D01*
X246725Y870311D01*
X246575Y869965D01*
X246447Y869609D01*
X246340Y869244D01*
X246254Y868871D01*
X244500Y873499D01*
X244771Y873517D01*
X245049Y873569D01*
X245336Y873657D01*
X245632Y873779D01*
X245935Y873936D01*
X246247Y874128D01*
X246567Y874355D01*
X246896Y874617D01*
X247578Y875245D01*
X248067Y872200D01*
D02*
G37*
G36*
X257152Y867262D02*
X257173Y866999D01*
X257207Y866756D01*
X257254Y866533D01*
X257315Y866331D01*
X257390Y866149D01*
X257478Y865987D01*
X257580Y865846D01*
X257695Y865725D01*
X257824Y865624D01*
X254399Y865788D01*
X254541Y865799D01*
X254668Y865846D01*
X254780Y865931D01*
X254877Y866052D01*
X254959Y866209D01*
X255026Y866403D01*
X255078Y866634D01*
X255116Y866901D01*
X255138Y867205D01*
X255146Y867546D01*
X257146D01*
X257152Y867262D01*
D02*
G37*
G36*
X248526Y866716D02*
X248578Y865990D01*
X248610Y865813D01*
X248648Y865667D01*
X248693Y865555D01*
X248745Y865474D01*
X248804Y865425D01*
X248870Y865409D01*
X245909Y865397D01*
X246026Y865414D01*
X246130Y865463D01*
X246222Y865545D01*
X246302Y865658D01*
X246370Y865805D01*
X246425Y865984D01*
X246468Y866195D01*
X246498Y866438D01*
X246517Y866714D01*
X246523Y867023D01*
X248523D01*
X248526Y866716D01*
D02*
G37*
G36*
X239025Y868807D02*
X238999Y868709D01*
X238975Y868575D01*
X238955Y868406D01*
X238914Y867691D01*
X238900Y866660D01*
X238653D01*
X238240Y865409D01*
X235900Y865397D01*
X236090Y865418D01*
X236260Y865479D01*
X236410Y865580D01*
X236540Y865722D01*
X236650Y865903D01*
X236740Y866124D01*
X236810Y866385D01*
X236860Y866687D01*
X236890Y867028D01*
X236893Y867136D01*
X236802Y868709D01*
X236775Y868807D01*
X236746Y868871D01*
X239054D01*
X239025Y868807D01*
D02*
G37*
G36*
X255829Y863412D02*
X255654Y863504D01*
X255456Y863544D01*
X255233Y863532D01*
X254986Y863467D01*
X254715Y863350D01*
X254420Y863182D01*
X254101Y862961D01*
X253759Y862688D01*
X253392Y862363D01*
X253000Y861986D01*
X251586Y863400D01*
X251838Y863658D01*
X252453Y864358D01*
X252610Y864567D01*
X252855Y864948D01*
X252942Y865121D01*
X253006Y865281D01*
X253046Y865429D01*
X255829Y863412D01*
D02*
G37*
G36*
X234130Y865409D02*
Y863071D01*
X234110Y863153D01*
X234050Y863225D01*
X233950Y863290D01*
X233810Y863346D01*
X233630Y863393D01*
X233410Y863431D01*
X233150Y863461D01*
X232510Y863496D01*
X232130Y863500D01*
Y865500D01*
X234130Y865409D01*
D02*
G37*
G36*
X229406Y865870D02*
X229572Y865792D01*
X229757Y865724D01*
X229961Y865664D01*
X230184Y865614D01*
X230426Y865573D01*
X230969Y865518D01*
X231269Y865505D01*
X231589Y865500D01*
Y863500D01*
X231269Y863495D01*
X230426Y863427D01*
X230184Y863386D01*
X229961Y863336D01*
X229757Y863276D01*
X229572Y863208D01*
X229406Y863130D01*
X229260Y863043D01*
Y865957D01*
X229406Y865870D01*
D02*
G37*
G36*
X250281Y859681D02*
X250013Y859678D01*
X249378Y859625D01*
X249223Y859593D01*
X249096Y859555D01*
X248997Y859509D01*
X248926Y859457D01*
X248884Y859397D01*
X248870Y859331D01*
Y861669D01*
X248884Y861671D01*
X248926Y861673D01*
X250281Y861681D01*
Y859681D01*
D02*
G37*
G36*
X234130Y855591D02*
X234110Y855623D01*
X234050Y855652D01*
X233950Y855677D01*
X233810Y855699D01*
X233630Y855718D01*
X232850Y855753D01*
X232130Y855760D01*
Y857760D01*
X232510Y857761D01*
X234050Y857868D01*
X234110Y857897D01*
X234130Y857929D01*
Y855591D01*
D02*
G37*
G36*
X231598Y855760D02*
X231183Y855750D01*
X230813Y855720D01*
X230489Y855670D01*
X230210Y855601D01*
X229977Y855511D01*
X229789Y855402D01*
X229646Y855273D01*
X229550Y855124D01*
X229499Y854955D01*
X229493Y854766D01*
X229260Y857457D01*
X229202Y857514D01*
X229208Y857566D01*
X229280Y857611D01*
X229416Y857651D01*
X229618Y857684D01*
X229884Y857711D01*
X231073Y857757D01*
X231598Y857760D01*
Y855760D01*
D02*
G37*
G36*
X248884Y857739D02*
X248926Y857540D01*
X248997Y857330D01*
X249096Y857111D01*
X249223Y856882D01*
X249379Y856644D01*
X249563Y856395D01*
X250015Y855869D01*
X250284Y855591D01*
X248870Y854177D01*
X248471Y854561D01*
X247751Y855170D01*
X247429Y855393D01*
X247133Y855563D01*
X246863Y855678D01*
X246619Y855740D01*
X246401Y855748D01*
X246208Y855702D01*
X246041Y855603D01*
X248870Y857929D01*
X248884Y857739D01*
D02*
G37*
G36*
X238901Y853461D02*
X238999Y851791D01*
X239025Y851693D01*
X239054Y851629D01*
X236746D01*
X236775Y851693D01*
X236802Y851791D01*
X236825Y851925D01*
X236845Y852094D01*
X236886Y852809D01*
X236900Y853840D01*
X238900D01*
X238901Y853461D01*
D02*
G37*
G36*
X244134Y853437D02*
X245718Y852052D01*
X245837Y851986D01*
X245929Y851954D01*
X243913Y848364D01*
X244008Y848602D01*
X244043Y848865D01*
X244018Y849154D01*
X243931Y849469D01*
X243783Y849810D01*
X243575Y850176D01*
X243306Y850569D01*
X242975Y850986D01*
X242585Y851430D01*
X242133Y851900D01*
X243800Y853767D01*
X244134Y853437D01*
D02*
G37*
G36*
X246183Y850007D02*
X246141Y849750D01*
X246162Y849466D01*
X246246Y849154D01*
X246392Y848814D01*
X246602Y848447D01*
X246874Y848052D01*
X247209Y847629D01*
X247607Y847179D01*
X248067Y846700D01*
X246828Y844404D01*
X244271Y847046D01*
X246287Y850236D01*
X246183Y850007D01*
D02*
G37*
G36*
X318099Y775233D02*
X318079Y775283D01*
X318019Y775329D01*
X317919Y775369D01*
X317779Y775404D01*
X317599Y775433D01*
X317379Y775457D01*
X316479Y775497D01*
X316099Y775500D01*
Y777500D01*
X316479Y777503D01*
X317779Y777596D01*
X317919Y777631D01*
X318019Y777671D01*
X318079Y777717D01*
X318099Y777768D01*
Y775233D01*
D02*
G37*
G36*
X312707Y767715D02*
X312817Y767681D01*
X312960Y767650D01*
X313135Y767623D01*
X313584Y767583D01*
X314502Y767552D01*
X314873Y767550D01*
X314785Y765550D01*
X312629Y765446D01*
Y767754D01*
X312707Y767715D01*
D02*
G37*
G36*
X306299Y768610D02*
X306353Y768440D01*
X306450Y768290D01*
X306588Y768160D01*
X306768Y768050D01*
X306990Y767960D01*
X307254Y767890D01*
X307561Y767840D01*
X307909Y767810D01*
X308299Y767800D01*
Y767756D01*
X308371Y767754D01*
Y765446D01*
X308252Y765513D01*
X308108Y765574D01*
X307938Y765627D01*
X307744Y765673D01*
X307523Y765711D01*
X307311Y765735D01*
X307107Y765700D01*
X306876Y765644D01*
X306672Y765575D01*
X306495Y765494D01*
X306344Y765401D01*
X306221Y765295D01*
X306124Y765176D01*
X306152Y765799D01*
X306040Y765800D01*
X306174Y766276D01*
X306288Y768800D01*
X306299Y768610D01*
D02*
G37*
G36*
X318099Y765233D02*
X318079Y765293D01*
X318019Y765347D01*
X317919Y765394D01*
X317779Y765436D01*
X317599Y765471D01*
X317379Y765499D01*
X316819Y765537D01*
X316099Y765550D01*
Y767550D01*
X316479Y767552D01*
X317779Y767628D01*
X317919Y767657D01*
X318019Y767689D01*
X318079Y767726D01*
X318099Y767767D01*
Y765233D01*
D02*
G37*
G36*
X322881Y760232D02*
X324130D01*
X323892Y760208D01*
X323680Y760133D01*
X323492Y760007D01*
X323330Y759832D01*
X323192Y759608D01*
X323080Y759333D01*
X322992Y759008D01*
X322991Y758997D01*
X322992Y758986D01*
X323080Y758660D01*
X323192Y758384D01*
X323330Y758157D01*
X323492Y757982D01*
X323680Y757856D01*
X323892Y757781D01*
X324130Y757756D01*
X322881D01*
X322880Y757732D01*
X321615D01*
X318099Y755232D01*
X318081Y755450D01*
X318028Y755682D01*
X317939Y755928D01*
X317816Y756188D01*
X317657Y756463D01*
X317462Y756752D01*
X317232Y757055D01*
X316667Y757705D01*
X316331Y758051D01*
X318383Y759535D01*
X318847Y759086D01*
X319683Y758368D01*
X319944Y758180D01*
X320067Y758384D01*
X320180Y758660D01*
X320267Y758986D01*
X320269Y758997D01*
X320267Y759008D01*
X320180Y759333D01*
X320067Y759608D01*
X319930Y759832D01*
X319767Y760007D01*
X319580Y760133D01*
X319367Y760208D01*
X319130Y760232D01*
X320379D01*
X320380Y760267D01*
X322880D01*
X322881Y760232D01*
D02*
G37*
G36*
X319961Y750245D02*
X319825Y750375D01*
X319657Y750446D01*
X319456Y750455D01*
X319222Y750403D01*
X318956Y750291D01*
X318657Y750118D01*
X318325Y749885D01*
X317960Y749590D01*
X317132Y748818D01*
X315977Y750492D01*
X318099Y752768D01*
X319961Y750245D01*
D02*
G37*
G36*
X312693Y750225D02*
X312791Y750199D01*
X312925Y750175D01*
X313094Y750155D01*
X313809Y750114D01*
X314840Y750100D01*
Y748100D01*
X314461Y748099D01*
X312791Y748001D01*
X312693Y747975D01*
X312629Y747946D01*
Y750254D01*
X312693Y750225D01*
D02*
G37*
G36*
X306279Y750858D02*
X306341Y750689D01*
X306444Y750539D01*
X306587Y750409D01*
X306771Y750299D01*
X306995Y750210D01*
X307260Y750140D01*
X307434Y750111D01*
X308040Y750150D01*
X308183Y750180D01*
X308293Y750215D01*
X308371Y750254D01*
Y747946D01*
X308321Y747966D01*
X308235Y747984D01*
X308111Y747999D01*
X307754Y748024D01*
X307734Y748024D01*
X307570Y748010D01*
X307266Y747960D01*
X307003Y747890D01*
X306781Y747801D01*
X306599Y747691D01*
X306458Y747561D01*
X306357Y747411D01*
X306297Y747242D01*
X306278Y747052D01*
X306273Y748049D01*
X306215Y748050D01*
X306127Y750050D01*
X306263Y750051D01*
X306258Y751048D01*
X306279Y750858D01*
D02*
G37*
G36*
X318099Y740233D02*
X318074Y740236D01*
X317999Y740239D01*
X315599Y740250D01*
Y742750D01*
X318099Y742767D01*
Y740233D01*
D02*
G37*
G36*
X325154Y740207D02*
X325148Y740133D01*
X325135Y739607D01*
X325126Y737733D01*
X322626D01*
X322613Y738207D01*
X322576Y738632D01*
X322513Y739008D01*
X322426Y739332D01*
X322313Y739607D01*
X322176Y739832D01*
X322013Y740007D01*
X321826Y740133D01*
X321613Y740207D01*
X321376Y740233D01*
X325161D01*
X325154Y740207D01*
D02*
G37*
%LPC*%
G36*
X320364Y893256D02*
X320182D01*
X320195Y893249D01*
X320297Y893230D01*
X320364Y893256D01*
D02*
G37*
G36*
X321601Y757732D02*
X320745D01*
X320989Y757656D01*
X321239Y757629D01*
X321459Y757662D01*
X321601Y757732D01*
D02*
G37*
%LPD*%
G36*
X295571Y882046D02*
X295723Y881919D01*
X295778Y881804D01*
X295735Y881703D01*
X295594Y881616D01*
X295356Y881542D01*
X295020Y881482D01*
X294586Y881435D01*
X293427Y881381D01*
X292701Y881374D01*
Y883874D01*
X293204Y883887D01*
X293651Y883924D01*
X294043Y883987D01*
X294378Y884074D01*
X294657Y884187D01*
X294880Y884324D01*
X295047Y884487D01*
X295159Y884674D01*
X295214Y884887D01*
X295213Y885124D01*
X295571Y882046D01*
D02*
G37*
G36*
X168741Y880072D02*
X168815Y879903D01*
X168939Y879754D01*
X169113Y879625D01*
X169336Y879516D01*
X169609Y879426D01*
X169931Y879357D01*
X170303Y879307D01*
X170725Y879278D01*
X171196Y879268D01*
Y877268D01*
X170725Y877258D01*
X169931Y877178D01*
X169609Y877109D01*
X169336Y877020D01*
X169113Y876910D01*
X168939Y876781D01*
X168815Y876633D01*
X168741Y876464D01*
X168716Y876275D01*
Y880260D01*
X168741Y880072D01*
D02*
G37*
G36*
X164240Y874835D02*
X164089Y874951D01*
X163917Y875018D01*
X163724Y875035D01*
X163510Y875004D01*
X163275Y874923D01*
X163019Y874794D01*
X162742Y874615D01*
X162444Y874387D01*
X162125Y874110D01*
X161784Y873783D01*
X160370Y875198D01*
X160696Y875538D01*
X161201Y876155D01*
X161380Y876432D01*
X161510Y876688D01*
X161591Y876923D01*
X161622Y877137D01*
X161604Y877330D01*
X161538Y877502D01*
X161422Y877653D01*
X164240Y874835D01*
D02*
G37*
G36*
X168741Y870072D02*
X168815Y869903D01*
X168939Y869754D01*
X169113Y869625D01*
X169336Y869516D01*
X169609Y869427D01*
X169931Y869357D01*
X170303Y869307D01*
X170725Y869278D01*
X171196Y869268D01*
Y867268D01*
X170725Y867258D01*
X169931Y867178D01*
X169609Y867109D01*
X169336Y867020D01*
X169113Y866910D01*
X168939Y866782D01*
X168815Y866633D01*
X168741Y866464D01*
X168716Y866275D01*
Y870260D01*
X168741Y870072D01*
D02*
G37*
G36*
X188500Y867268D02*
X188120Y867248D01*
X187780Y867188D01*
X187480Y867088D01*
X187220Y866948D01*
X187000Y866768D01*
X186820Y866548D01*
X186680Y866288D01*
X186580Y865988D01*
X186520Y865648D01*
X186500Y865268D01*
X184500D01*
X184480Y865648D01*
X184420Y865988D01*
X184320Y866288D01*
X184180Y866548D01*
X184000Y866768D01*
X183780Y866948D01*
X183520Y867088D01*
X183220Y867188D01*
X182880Y867248D01*
X182500Y867268D01*
X185500Y869268D01*
X188500Y867268D01*
D02*
G37*
G36*
X221664Y867154D02*
X222721Y866238D01*
X222882Y866130D01*
X223025Y866047D01*
X223151Y865989D01*
X223260Y865957D01*
X221443Y863340D01*
X221375Y863637D01*
X221289Y863927D01*
X221187Y864210D01*
X221067Y864486D01*
X220930Y864755D01*
X220776Y865018D01*
X220604Y865273D01*
X220416Y865522D01*
X220210Y865764D01*
X219987Y865998D01*
X221402Y867413D01*
X221664Y867154D01*
D02*
G37*
G36*
X221250Y858672D02*
X221732Y858254D01*
X221966Y858077D01*
X222418Y857785D01*
X222636Y857672D01*
X222849Y857579D01*
X223057Y857507D01*
X223260Y857457D01*
X221443Y854840D01*
X221386Y855050D01*
X221294Y855278D01*
X221167Y855525D01*
X221005Y855791D01*
X220809Y856076D01*
X220312Y856702D01*
X219675Y857403D01*
X219305Y857781D01*
X221002Y858913D01*
X221250Y858672D01*
D02*
G37*
G36*
X170603Y804631D02*
X170626Y804380D01*
X170664Y804151D01*
X170718Y803946D01*
X170787Y803763D01*
X170872Y803603D01*
X170972Y803467D01*
X171087Y803353D01*
X171218Y803261D01*
X171364Y803193D01*
X167908Y802835D01*
X168039Y802934D01*
X168156Y803056D01*
X168258Y803203D01*
X168348Y803373D01*
X168423Y803568D01*
X168485Y803787D01*
X168533Y804030D01*
X168567Y804298D01*
X168588Y804589D01*
X168595Y804905D01*
X170595D01*
X170603Y804631D01*
D02*
G37*
G36*
X175070Y778156D02*
X174850Y777911D01*
X174654Y777641D01*
X174482Y777344D01*
X174333Y777021D01*
X174208Y776673D01*
X174106Y776298D01*
X174029Y775898D01*
X173974Y775471D01*
X173944Y775018D01*
X173937Y774539D01*
X170039Y778437D01*
X170518Y778444D01*
X170971Y778474D01*
X171397Y778528D01*
X171798Y778606D01*
X172173Y778708D01*
X172521Y778833D01*
X172844Y778982D01*
X173141Y779154D01*
X173411Y779350D01*
X173656Y779570D01*
X175070Y778156D01*
D02*
G37*
G36*
X258012Y857734D02*
X258051Y857469D01*
X258115Y857205D01*
X258205Y856942D01*
X258321Y856680D01*
X258462Y856419D01*
X258629Y856159D01*
X258822Y855900D01*
X259040Y855641D01*
X259284Y855384D01*
X256699Y854433D01*
X256408Y854710D01*
X256106Y854965D01*
X255796Y855200D01*
X255477Y855413D01*
X255149Y855605D01*
X254811Y855775D01*
X254465Y855925D01*
X254109Y856053D01*
X253744Y856160D01*
X253371Y856246D01*
X257999Y858000D01*
X258012Y857734D01*
D02*
G37*
G36*
X321607Y847571D02*
X321811Y847516D01*
X322186Y847453D01*
X322611Y847416D01*
X323086Y847404D01*
Y844903D01*
X322611Y844891D01*
X322186Y844853D01*
X321811Y844791D01*
X321607Y844736D01*
Y843653D01*
X321582Y843891D01*
X321506Y844104D01*
X321381Y844291D01*
X321205Y844454D01*
X321095Y844520D01*
X320986Y844454D01*
X320811Y844291D01*
X320686Y844104D01*
X320611Y843891D01*
X320586Y843653D01*
Y844735D01*
X320376Y844791D01*
X319999Y844853D01*
X319572Y844891D01*
X319095Y844903D01*
Y847404D01*
X319572Y847416D01*
X319999Y847453D01*
X320376Y847516D01*
X320586Y847573D01*
Y848654D01*
X320611Y848416D01*
X320686Y848203D01*
X320811Y848016D01*
X320986Y847853D01*
X321095Y847787D01*
X321205Y847853D01*
X321381Y848016D01*
X321506Y848203D01*
X321582Y848416D01*
X321607Y848654D01*
Y847571D01*
D02*
G37*
G36*
X316685Y843500D02*
X316660Y843738D01*
X316585Y843950D01*
X316459Y844137D01*
X316283Y844300D01*
X316057Y844438D01*
X315781Y844550D01*
X315455Y844637D01*
X315078Y844700D01*
X314651Y844738D01*
X314173Y844750D01*
Y847250D01*
X314651Y847262D01*
X315078Y847300D01*
X315455Y847363D01*
X315781Y847450D01*
X316057Y847563D01*
X316283Y847700D01*
X316459Y847863D01*
X316585Y848050D01*
X316660Y848263D01*
X316685Y848500D01*
Y843500D01*
D02*
G37*
G36*
X298261Y829920D02*
X298293Y829566D01*
X298347Y829236D01*
X298422Y828932D01*
X298518Y828652D01*
X298637Y828397D01*
X298776Y828166D01*
X298937Y827961D01*
X299120Y827780D01*
X299324Y827624D01*
X294676D01*
X294880Y827780D01*
X295063Y827961D01*
X295224Y828166D01*
X295363Y828397D01*
X295481Y828652D01*
X295578Y828932D01*
X295653Y829236D01*
X295707Y829566D01*
X295739Y829920D01*
X295750Y830299D01*
X298250D01*
X298261Y829920D01*
D02*
G37*
G36*
X299120Y818220D02*
X298937Y818039D01*
X298776Y817834D01*
X298637Y817603D01*
X298518Y817348D01*
X298422Y817068D01*
X298347Y816764D01*
X298293Y816434D01*
X298261Y816080D01*
X298250Y815701D01*
X295750D01*
X295739Y816080D01*
X295707Y816434D01*
X295653Y816764D01*
X295578Y817068D01*
X295481Y817348D01*
X295363Y817603D01*
X295224Y817834D01*
X295063Y818039D01*
X294880Y818220D01*
X294676Y818376D01*
X299324D01*
X299120Y818220D01*
D02*
G37*
G36*
X321607Y804264D02*
X321811Y804209D01*
X322186Y804146D01*
X322611Y804109D01*
X323086Y804097D01*
Y801597D01*
X322611Y801584D01*
X322186Y801546D01*
X321811Y801484D01*
X321607Y801429D01*
Y800346D01*
X321582Y800584D01*
X321506Y800797D01*
X321381Y800984D01*
X321205Y801147D01*
X321095Y801213D01*
X320986Y801147D01*
X320811Y800984D01*
X320686Y800797D01*
X320611Y800584D01*
X320586Y800346D01*
Y801427D01*
X320376Y801484D01*
X319999Y801546D01*
X319572Y801584D01*
X319095Y801597D01*
Y804097D01*
X319572Y804109D01*
X319999Y804146D01*
X320376Y804209D01*
X320586Y804265D01*
Y805346D01*
X320611Y805109D01*
X320686Y804897D01*
X320811Y804709D01*
X320986Y804547D01*
X321095Y804480D01*
X321205Y804547D01*
X321381Y804709D01*
X321506Y804897D01*
X321582Y805109D01*
X321607Y805346D01*
Y804264D01*
D02*
G37*
G36*
X316685Y800500D02*
X316660Y800737D01*
X316585Y800950D01*
X316459Y801138D01*
X316283Y801300D01*
X316057Y801437D01*
X315781Y801550D01*
X315455Y801637D01*
X315078Y801700D01*
X314651Y801737D01*
X314173Y801750D01*
Y804250D01*
X314651Y804263D01*
X315078Y804300D01*
X315455Y804362D01*
X315781Y804450D01*
X316057Y804562D01*
X316283Y804700D01*
X316459Y804862D01*
X316585Y805050D01*
X316660Y805262D01*
X316685Y805500D01*
Y800500D01*
D02*
G37*
G36*
X297071Y765046D02*
X296898Y765151D01*
X296710Y765245D01*
X296509Y765329D01*
X296293Y765401D01*
X296064Y765461D01*
X295819Y765511D01*
X295561Y765550D01*
X295378Y765565D01*
X294291Y765501D01*
X294193Y765475D01*
X294129Y765446D01*
Y767754D01*
X294193Y767725D01*
X294291Y767698D01*
X294425Y767675D01*
X294594Y767655D01*
X295213Y767619D01*
X295457Y767640D01*
X295769Y767690D01*
X296037Y767760D01*
X296260Y767850D01*
X296439Y767960D01*
X296574Y768090D01*
X296664Y768240D01*
X296710Y768410D01*
X296712Y768600D01*
X297071Y765046D01*
D02*
G37*
G36*
X289871Y765446D02*
X289807Y765475D01*
X289708Y765501D01*
X289575Y765525D01*
X289406Y765545D01*
X288691Y765586D01*
X287660Y765600D01*
Y767600D01*
X288039Y767601D01*
X289708Y767698D01*
X289807Y767725D01*
X289871Y767754D01*
Y765446D01*
D02*
G37*
G36*
X297071Y746546D02*
X297223Y746419D01*
X297277Y746304D01*
X297235Y746204D01*
X297094Y746116D01*
X296856Y746042D01*
X296520Y745982D01*
X296087Y745935D01*
X294927Y745881D01*
X294200Y745874D01*
Y748374D01*
X294704Y748387D01*
X295151Y748424D01*
X295543Y748487D01*
X295878Y748574D01*
X296157Y748687D01*
X296380Y748824D01*
X296548Y748987D01*
X296658Y749174D01*
X296713Y749387D01*
X296712Y749624D01*
X297071Y746546D01*
D02*
G37*
D17*
X390500Y955900D02*
D03*
Y963100D02*
D03*
X380500Y955900D02*
D03*
Y963100D02*
D03*
X390500Y819400D02*
D03*
Y826600D02*
D03*
X380500Y819400D02*
D03*
Y826600D02*
D03*
X430500Y754400D02*
D03*
Y761600D02*
D03*
X419000Y783100D02*
D03*
Y775900D02*
D03*
X373500Y735400D02*
D03*
Y742600D02*
D03*
X381000D02*
D03*
Y735400D02*
D03*
X292000Y766600D02*
D03*
Y759400D02*
D03*
X291500Y901600D02*
D03*
Y894400D02*
D03*
X310500Y741900D02*
D03*
Y749100D02*
D03*
Y759400D02*
D03*
Y766600D02*
D03*
X422500Y919100D02*
D03*
Y911900D02*
D03*
X429500Y891400D02*
D03*
Y898600D02*
D03*
X380000Y878100D02*
D03*
Y870900D02*
D03*
X373000D02*
D03*
Y878100D02*
D03*
X310500Y877400D02*
D03*
Y884600D02*
D03*
Y894400D02*
D03*
Y901600D02*
D03*
X297000Y826600D02*
D03*
Y819400D02*
D03*
Y962600D02*
D03*
Y955400D02*
D03*
X255500Y864600D02*
D03*
Y857400D02*
D03*
X259500Y915100D02*
D03*
Y907900D02*
D03*
D18*
X432000Y947000D02*
D03*
Y931000D02*
D03*
X419000Y947000D02*
D03*
Y931000D02*
D03*
X432000Y810000D02*
D03*
Y794000D02*
D03*
X419000Y810000D02*
D03*
Y794000D02*
D03*
X508500D02*
D03*
Y778000D02*
D03*
X516000Y935500D02*
D03*
Y919500D02*
D03*
X420500Y750500D02*
D03*
Y766500D02*
D03*
X420000Y886500D02*
D03*
Y902500D02*
D03*
D19*
X476224Y957417D02*
D03*
Y808425D02*
D03*
D20*
X487248Y908992D02*
D03*
X471500D02*
D03*
X456146D02*
D03*
Y760000D02*
D03*
X471500D02*
D03*
X487248D02*
D03*
D21*
X459295Y957417D02*
D03*
X454571D02*
D03*
Y808425D02*
D03*
X459295D02*
D03*
D22*
X522000Y792976D02*
D03*
Y776500D02*
D03*
D23*
X516524Y966000D02*
D03*
X533000D02*
D03*
D24*
X318630Y981000D02*
D03*
X323551D02*
D03*
X358000D02*
D03*
X362921D02*
D03*
Y937693D02*
D03*
X358000D02*
D03*
X323551D02*
D03*
X318630D02*
D03*
Y802847D02*
D03*
X323551D02*
D03*
X358000D02*
D03*
X362921D02*
D03*
Y846154D02*
D03*
X358000D02*
D03*
X323551D02*
D03*
X318630D02*
D03*
D25*
X361000Y877000D02*
D03*
Y882000D02*
D03*
Y887000D02*
D03*
Y892000D02*
D03*
Y897000D02*
D03*
Y902000D02*
D03*
Y907000D02*
D03*
Y912000D02*
D03*
X321630Y877000D02*
D03*
Y882000D02*
D03*
Y887000D02*
D03*
Y892000D02*
D03*
Y897000D02*
D03*
Y902000D02*
D03*
Y907000D02*
D03*
Y912000D02*
D03*
Y776500D02*
D03*
Y771500D02*
D03*
Y766500D02*
D03*
Y761500D02*
D03*
Y756500D02*
D03*
Y751500D02*
D03*
Y746500D02*
D03*
Y741500D02*
D03*
X361000Y776500D02*
D03*
Y771500D02*
D03*
Y766500D02*
D03*
Y761500D02*
D03*
Y756500D02*
D03*
Y751500D02*
D03*
Y746500D02*
D03*
Y741500D02*
D03*
D26*
X222500Y856000D02*
D03*
X228500D02*
D03*
Y864500D02*
D03*
X222500D02*
D03*
D27*
X220400Y948000D02*
D03*
X227600D02*
D03*
X394400Y767500D02*
D03*
X401600D02*
D03*
X406600Y747500D02*
D03*
X399400D02*
D03*
X387900D02*
D03*
X395100D02*
D03*
X408000Y885000D02*
D03*
X400800D02*
D03*
X379600Y751500D02*
D03*
X372400D02*
D03*
X370600Y783000D02*
D03*
X363400D02*
D03*
X297900Y749000D02*
D03*
X305100D02*
D03*
X297900Y767500D02*
D03*
X305100D02*
D03*
X394400Y912500D02*
D03*
X401600D02*
D03*
X380100Y887000D02*
D03*
X372900D02*
D03*
X388400Y885000D02*
D03*
X395600D02*
D03*
X371100Y918500D02*
D03*
X363900D02*
D03*
X296400Y884500D02*
D03*
X303600D02*
D03*
X304600Y901500D02*
D03*
X297400D02*
D03*
X237900Y849500D02*
D03*
X245100D02*
D03*
Y871000D02*
D03*
X237900D02*
D03*
D28*
X388500Y737500D02*
D03*
X404500D02*
D03*
X388000Y875500D02*
D03*
X404000D02*
D03*
D29*
X246815Y860500D02*
D03*
X236185Y864240D02*
D03*
Y860500D02*
D03*
Y856760D02*
D03*
X246815D02*
D03*
Y864240D02*
D03*
D30*
X231984Y915000D02*
D03*
X241000D02*
D03*
X250016D02*
D03*
D31*
X241000Y939000D02*
D03*
D60*
X401600Y912500D02*
X401800Y912700D01*
Y914300D02*
X406600Y919100D01*
X422500D01*
X401800Y912700D02*
Y914300D01*
X370600Y783000D02*
Y784300D01*
X362921Y791979D02*
Y802847D01*
Y791979D02*
X370600Y784300D01*
X371100Y918500D02*
Y919800D01*
X362921Y927979D02*
Y937693D01*
Y927979D02*
X371100Y919800D01*
X399400Y819400D02*
X399500Y819500D01*
X390500Y819400D02*
X399400D01*
Y826600D02*
X399500Y826500D01*
X390500Y826600D02*
X399400D01*
X397341Y955900D02*
X397480Y955762D01*
X390500Y955900D02*
X397341D01*
X397400Y963100D02*
X397500Y963000D01*
X390500Y963100D02*
X397400D01*
X420500Y766500D02*
X420797D01*
X422518Y764185D02*
Y764779D01*
X425103Y761600D02*
X430500D01*
X422518Y764185D02*
X425103Y761600D01*
X420797Y766500D02*
X422518Y764779D01*
X380500Y819400D02*
X390500D01*
X376716Y819200D02*
X380300D01*
X380500Y819400D01*
X362921Y802847D02*
Y805406D01*
X376716Y819200D01*
X358000Y802847D02*
X362921D01*
X380500Y826600D02*
X390500D01*
X379000Y826800D02*
Y827516D01*
Y826800D02*
X379200Y826600D01*
X380500D01*
X362921Y843594D02*
Y846154D01*
Y843594D02*
X379000Y827516D01*
X358000Y846154D02*
X362921D01*
Y940252D02*
X378369Y955700D01*
X380300D01*
X380500Y955900D01*
X362921Y937693D02*
Y940252D01*
X358000Y937693D02*
X362921D01*
X380500Y955900D02*
X390500D01*
X380500Y963100D02*
X390500D01*
X362921Y978441D02*
X378062Y963300D01*
X362921Y978441D02*
Y981000D01*
X378062Y963300D02*
X380300D01*
X380500Y963100D01*
X358000Y981000D02*
X362921D01*
X229000Y856500D02*
X229260Y856760D01*
X236185D01*
X228500Y856000D02*
Y856400D01*
X228600Y856500D01*
X229000D01*
X222400D02*
X222500Y856400D01*
X222000Y856500D02*
X222400D01*
X185500Y868268D02*
X210232D01*
X222000Y856500D01*
X222500Y856000D02*
Y856400D01*
X359000Y741221D02*
X359279Y741500D01*
X359000Y737000D02*
Y741221D01*
X359279Y741500D02*
X361000D01*
X379600Y751500D02*
Y756600D01*
X383500Y760500D01*
X375189Y768500D02*
X375500D01*
X361000Y766500D02*
X373189D01*
X375189Y768500D01*
X359279Y877000D02*
X361000D01*
X359000Y876721D02*
X359279Y877000D01*
X359000Y872000D02*
Y876721D01*
X380100Y887000D02*
Y892100D01*
X385000Y897000D01*
X378189Y902000D02*
X379689Y900500D01*
X380000D01*
X361000Y902000D02*
X378189D01*
X361000Y912000D02*
X363264D01*
X363543Y913094D02*
X363900Y913451D01*
X363264Y912000D02*
X363543Y912280D01*
Y913094D01*
X363900Y913451D02*
Y918500D01*
X404500Y737500D02*
X406018Y739018D01*
Y741419D01*
X406600Y742000D01*
Y747500D01*
X157500Y817000D02*
X169595Y804905D01*
Y799905D02*
Y804905D01*
X157500Y817000D02*
Y870913D01*
X164854Y878268D01*
X169595Y799905D02*
X170000Y799500D01*
X227800Y946500D02*
X228500D01*
X227600Y946700D02*
X227800Y946500D01*
X236000Y939000D02*
X241000D01*
X228500Y946500D02*
X236000Y939000D01*
X227600Y946700D02*
Y948000D01*
X222590Y954309D02*
Y967500D01*
Y954309D02*
X227600Y949300D01*
Y948000D02*
Y949300D01*
X241000Y915000D02*
Y939000D01*
X361000Y771500D02*
X373445D01*
X383444Y781500D01*
X396500D01*
X360720Y751780D02*
X361000Y751500D01*
X382561Y747000D02*
X383062Y747500D01*
X372400Y750200D02*
X375600Y747000D01*
X383062Y747500D02*
X387900D01*
X375600Y747000D02*
X382561D01*
X372400Y750200D02*
Y751500D01*
X361000D02*
X372400D01*
X361720Y776500D02*
X362000Y776780D01*
Y780328D02*
X363172Y781500D01*
X363200D02*
X363400Y781700D01*
X361000Y776500D02*
X361720D01*
X363172Y781500D02*
X363200D01*
X362000Y776780D02*
Y780328D01*
X363400Y781700D02*
Y783000D01*
X394400Y913800D02*
X396500Y915900D01*
Y925500D01*
X394400Y912500D02*
Y913800D01*
Y767500D02*
Y777810D01*
X396500Y779911D01*
Y781500D01*
X401600Y768800D02*
X415700Y782900D01*
X418800D01*
X401600Y767500D02*
Y768800D01*
X426600Y750500D02*
X429000Y752900D01*
Y754200D01*
X420500Y750500D02*
X426600D01*
X429000Y754200D02*
X429200Y754400D01*
X430500D01*
X370250Y744550D02*
X372200Y742600D01*
X368300Y746500D02*
X370250Y744550D01*
X369000Y733723D02*
Y743300D01*
Y733723D02*
X375223Y727500D01*
X369000Y743300D02*
X370250Y744550D01*
X413500Y727500D02*
X418500Y732500D01*
X375223Y727500D02*
X413500D01*
X395100Y747500D02*
X399400D01*
X382300Y735400D02*
X385450Y732250D01*
X391273D02*
X395100Y736077D01*
Y747500D01*
X381000Y735400D02*
X382300D01*
X385450Y732250D02*
X391273D01*
X387400Y738600D02*
X388100Y737900D01*
X387900Y747500D02*
X388100Y747300D01*
Y737900D02*
Y747300D01*
Y737900D02*
X388500Y737500D01*
X373500Y735400D02*
X374800D01*
X378000Y738600D01*
X387400D01*
X418500Y734090D02*
X420500Y736090D01*
Y750500D01*
X418500Y732500D02*
Y734090D01*
X369750Y880050D02*
X371700Y878100D01*
X367800Y882000D02*
X369750Y880050D01*
X368500Y868000D02*
Y878800D01*
X369750Y880050D01*
X368500Y868000D02*
X375500Y861000D01*
X413190D01*
X417690Y865500D02*
X418500D01*
X413190Y861000D02*
X417690Y865500D01*
X373000Y878100D02*
X380000D01*
X371700D02*
X373000D01*
X361000Y882000D02*
X367800D01*
X373500Y742600D02*
X381000D01*
X372200D02*
X373500D01*
X361000Y746500D02*
X368300D01*
X310500Y749100D02*
X316000D01*
X318121Y751221D01*
X321350D01*
X321630Y751500D01*
X305150Y749050D02*
X310450D01*
X310500Y749100D01*
X305100Y749000D02*
X305150Y749050D01*
X420500Y886500D02*
X425200Y891200D01*
X429300D01*
X429500Y891400D01*
X420000Y886500D02*
X420500D01*
X319366Y902000D02*
X321630D01*
X310500Y901600D02*
X318966D01*
X319366Y902000D01*
X304650Y901550D02*
X310450D01*
X304600Y901500D02*
X304650Y901550D01*
X310450D02*
X310500Y901600D01*
X316000Y884600D02*
X318121Y886720D01*
X321350D02*
X321630Y887000D01*
X310500Y884600D02*
X316000D01*
X318121Y886720D02*
X321350D01*
X310450Y884550D02*
X310500Y884600D01*
X303600Y884500D02*
X303650Y884550D01*
X310450D01*
X371000Y907000D02*
X376500Y912500D01*
X394400D01*
X361000Y907000D02*
X371000D01*
X418500Y865500D02*
X419250Y866250D01*
Y885750D02*
X420000Y886500D01*
X419250Y866250D02*
Y885750D01*
X404000Y875797D02*
X405722Y877518D01*
X404000Y875500D02*
Y875797D01*
X408000Y879500D02*
Y885000D01*
X406018Y877518D02*
X408000Y879500D01*
X405722Y877518D02*
X406018D01*
X395600Y885000D02*
X400800D01*
X373000Y870900D02*
X374300D01*
X374500Y871100D01*
Y871577D01*
X377823Y874900D01*
X387400D02*
X388000Y875500D01*
X377823Y874900D02*
X387400D01*
X385700Y866500D02*
X392000D01*
X395600Y870100D02*
Y885000D01*
X392000Y866500D02*
X395600Y870100D01*
X381300Y870900D02*
X385700Y866500D01*
X380000Y870900D02*
X381300D01*
X377100Y881500D02*
X388400D01*
Y885000D01*
Y875900D02*
Y881500D01*
X372900Y885700D02*
X377100Y881500D01*
X372900Y885700D02*
Y887000D01*
X388000Y875500D02*
X388400Y875900D01*
X361000Y887000D02*
X372900D01*
X256146Y864800D02*
Y867546D01*
X290200Y901600D01*
X254200Y864600D02*
X255946D01*
X256146Y864800D01*
X246815Y864240D02*
X247342D01*
X247523Y864421D02*
Y867023D01*
X292500Y912000D02*
X321630D01*
X247523Y867023D02*
X292500Y912000D01*
X247342Y864240D02*
X247523Y864421D01*
X305100Y767000D02*
X305300Y766800D01*
X310300D02*
X310500Y766600D01*
X305300Y766800D02*
X310300D01*
X305100Y767000D02*
Y767500D01*
X310500Y766600D02*
X310550Y766550D01*
X321580D02*
X321630Y766500D01*
X310550Y766550D02*
X321580D01*
X241100Y864000D02*
Y887889D01*
X284100Y766600D02*
X292000D01*
X284000Y766500D02*
X284100Y766600D01*
X297900Y766800D02*
Y767500D01*
X292000Y766600D02*
X297700D01*
X297900Y766800D01*
X291550Y901550D02*
X297350D01*
X291500Y901600D02*
X291550Y901550D01*
X297350D02*
X297400Y901500D01*
X290200Y901600D02*
X291500D01*
X241000Y887989D02*
Y915000D01*
Y887989D02*
X241100Y887889D01*
Y863879D02*
X244298Y860681D01*
X246634D01*
X246815Y860500D01*
X236185Y864240D02*
X237071D01*
X237900Y865069D02*
Y871000D01*
X237071Y864240D02*
X237900Y865069D01*
X235299Y864240D02*
X236185D01*
X274500Y808000D02*
X306000Y776500D01*
X321630D01*
X247701Y856760D02*
X274500Y829961D01*
Y808000D02*
Y829961D01*
X246815Y856760D02*
X247701D01*
X165354Y868268D02*
X185500D01*
Y790000D02*
Y868268D01*
X170000Y774500D02*
X185500Y790000D01*
X164854Y878268D02*
X165354D01*
X237900Y849500D02*
Y855045D01*
X237252Y855693D02*
Y856579D01*
Y855693D02*
X237900Y855045D01*
X236185Y856760D02*
X237071D01*
X237252Y856579D01*
X228500Y864500D02*
X235039D01*
X235299Y864240D01*
X222500Y864500D02*
Y864900D01*
X165354Y878268D02*
X209132D01*
X222500Y864900D01*
X250281Y860681D02*
X254200Y864600D01*
X246815Y860500D02*
X246996Y860681D01*
X250281D01*
D61*
X427500Y939000D02*
X432730D01*
X438933Y945202D01*
X419500Y931000D02*
X427500Y939000D01*
X419500Y794000D02*
X428000Y802500D01*
X437000D01*
X439500Y805000D01*
X445500Y816000D02*
X457035D01*
X439500Y805000D02*
Y810000D01*
X445500Y816000D01*
X457035D02*
X459295Y813740D01*
Y808425D02*
Y813740D01*
X419000Y794000D02*
X419500D01*
X448500Y802354D02*
X454571Y808425D01*
X448500Y793500D02*
Y802354D01*
X419000Y783100D02*
Y794000D01*
Y810000D02*
X432000D01*
X448500Y788500D02*
Y793500D01*
X448000Y794000D02*
X448500Y793500D01*
X432000Y794000D02*
X448000D01*
X419000Y775900D02*
X435900D01*
X448500Y788500D01*
X419000Y767750D02*
X420250Y766500D01*
X420500D01*
X419000Y767750D02*
Y775900D01*
Y947000D02*
X432000D01*
X459295Y957417D02*
Y961243D01*
X446000Y963000D02*
X457538D01*
X459295Y961243D01*
X419432Y931000D02*
X419500D01*
X419000D02*
X419432D01*
X438933Y945202D02*
Y955933D01*
X446000Y963000D01*
X445500Y931000D02*
Y947213D01*
Y920500D02*
Y931000D01*
X432000D02*
X445500D01*
X454571Y956283D02*
Y957417D01*
X445500Y947213D02*
X454571Y956283D01*
X436900Y911900D02*
X445500Y920500D01*
X422500Y911900D02*
X436900D01*
X421750Y900750D02*
X423900Y898600D01*
X420500Y902500D02*
X421750Y901250D01*
X423900Y898600D02*
X429500D01*
X421750Y900750D02*
Y901250D01*
X420000Y902500D02*
X420500D01*
X421800Y911900D02*
X422500D01*
X420000Y902500D02*
Y910100D01*
X421800Y911900D01*
D62*
X289000Y955500D02*
X289100Y955400D01*
X297000D01*
X289500Y819500D02*
X289600Y819400D01*
X297000D01*
X289488Y826681D02*
X289569Y826600D01*
X297000D01*
X289000Y962500D02*
X289100Y962600D01*
X297000D01*
X419432Y931000D02*
X420923Y929510D01*
Y929077D02*
Y929510D01*
Y929077D02*
X422500Y927500D01*
Y919100D02*
Y927500D01*
X297000Y806500D02*
Y819400D01*
Y826600D02*
Y842000D01*
X318630Y846154D02*
X323551D01*
X301000Y846000D02*
X318476D01*
X318630Y846154D01*
X297000Y842000D02*
X301000Y846000D01*
X318630Y802847D02*
X323551D01*
X318476Y803000D02*
X318630Y802847D01*
X300500Y803000D02*
X318476D01*
X297000Y806500D02*
X300500Y803000D01*
X318630Y981000D02*
X323551D01*
X297000Y975500D02*
X302500Y981000D01*
X318630D01*
X297000Y962600D02*
Y975500D01*
X301307Y937693D02*
X318630D01*
X297000Y942000D02*
X301307Y937693D01*
X297000Y942000D02*
Y955400D01*
X318630Y937693D02*
X323551D01*
X299824Y760000D02*
X300000D01*
X292000Y759400D02*
X299224D01*
X299824Y760000D01*
X293124Y747124D02*
X297224D01*
X293000Y747000D02*
X293124Y747124D01*
X297900Y747800D02*
Y749000D01*
X297224Y747124D02*
X297900Y747800D01*
X306026Y759350D02*
X310450D01*
X310500Y759400D01*
X304676Y758000D02*
X306026Y759350D01*
X304500Y758000D02*
X304676D01*
X321630Y741500D02*
X323846D01*
X323876Y741470D01*
Y737124D02*
Y741470D01*
Y737124D02*
X324000Y737000D01*
X231984Y906516D02*
X232000Y906500D01*
X231984Y906516D02*
Y915000D01*
X248500Y874400D02*
Y878500D01*
X245100Y871000D02*
X248500Y874400D01*
X261619Y905781D02*
X266459D01*
X259500Y907900D02*
X261619Y905781D01*
X258400Y854500D02*
X264000D01*
X255500Y857400D02*
X258400Y854500D01*
X245100Y847900D02*
X250000Y843000D01*
X245100Y847900D02*
Y849500D01*
X241514Y854286D02*
X245100Y850700D01*
Y849500D02*
Y850700D01*
X238944Y860431D02*
X241514Y857860D01*
X236254Y860431D02*
X238944D01*
X236185Y860500D02*
X236254Y860431D01*
X241514Y854286D02*
Y857860D01*
X321846Y877000D02*
X321876Y876970D01*
Y872624D02*
Y876970D01*
Y872624D02*
X322000Y872500D01*
X321630Y877000D02*
X321846D01*
X295724Y882624D02*
X296400Y883300D01*
Y884500D01*
X291124Y882624D02*
X295724D01*
X291000Y882500D02*
X291124Y882624D01*
X297224Y894400D02*
X298324Y895500D01*
X298500D01*
X291500Y894400D02*
X297224D01*
X302676Y892000D02*
X303676Y891000D01*
X307100D01*
X309250Y893150D02*
Y894350D01*
X309300Y894400D02*
X316966D01*
X307100Y891000D02*
X309250Y893150D01*
X302500Y892000D02*
X302676D01*
X309250Y894350D02*
X309300Y894400D01*
X310500Y877400D02*
X311700D01*
X312100Y877000D02*
X321630D01*
X311700Y877400D02*
X312100Y877000D01*
X311700Y741900D02*
X312100Y741500D01*
X310500Y741900D02*
X311700D01*
X312100Y741500D02*
X321630D01*
X319337Y756530D02*
X319366Y756500D01*
X321630D01*
X310500Y759400D02*
X316750D01*
X319337Y756813D01*
Y756530D02*
Y756813D01*
X321630Y756500D02*
Y761500D01*
X319366Y892000D02*
X321630D01*
X316966Y894400D02*
X319366Y892000D01*
X321630D02*
Y897000D01*
X245100Y869800D02*
Y871000D01*
X231984Y915000D02*
Y917200D01*
X220400Y928784D02*
Y948000D01*
Y928784D02*
X231984Y917200D01*
D63*
X516524Y966000D02*
Y966738D01*
X501000Y934000D02*
Y969371D01*
X515500Y919500D02*
X516000D01*
X501000Y934000D02*
X515500Y919500D01*
X522000Y761500D02*
Y776500D01*
X493000Y732500D02*
X522000Y761500D01*
X481000Y732500D02*
X493000D01*
X499262Y984000D02*
X516524Y966738D01*
X461000Y984000D02*
X472700Y972300D01*
X498071D01*
X501000Y969371D01*
X481000Y984000D02*
X499262D01*
D64*
X164854Y838268D02*
X165354D01*
D65*
Y878268D02*
D03*
Y868268D02*
D03*
Y858268D02*
D03*
Y848268D02*
D03*
D66*
Y838268D02*
D03*
D67*
X181409Y967500D02*
D03*
D68*
X222590D02*
D03*
X396500Y781500D02*
D03*
X418500Y865500D02*
D03*
X396500Y925500D02*
D03*
X418500Y732500D02*
D03*
X170000Y937500D02*
D03*
Y911000D02*
D03*
Y774500D02*
D03*
Y799500D02*
D03*
D69*
X461000Y984000D02*
D03*
Y732500D02*
D03*
D70*
X481000Y984000D02*
D03*
Y732500D02*
D03*
D71*
X587000Y905512D02*
D03*
Y812992D02*
D03*
D72*
X614173Y984252D02*
D03*
Y734252D02*
D03*
X168500D02*
D03*
Y984252D02*
D03*
D73*
X536000Y985000D02*
D03*
X516000D02*
D03*
D74*
X368500Y756000D02*
D03*
X364500Y737000D02*
D03*
X359000D02*
D03*
X383500Y760500D02*
D03*
X375000Y761500D02*
D03*
X375500Y768500D02*
D03*
X358000Y781500D02*
D03*
X324000Y737000D02*
D03*
X319000D02*
D03*
X293000Y747000D02*
D03*
X290500Y751500D02*
D03*
X304500Y758000D02*
D03*
X300000Y760000D02*
D03*
X310500Y771500D02*
D03*
X314500D02*
D03*
X359000Y917500D02*
D03*
X385000Y897000D02*
D03*
X380000Y900500D02*
D03*
Y906500D02*
D03*
X368000Y892000D02*
D03*
X363000Y872000D02*
D03*
X359000D02*
D03*
X322000Y872500D02*
D03*
X317500D02*
D03*
X291000Y882500D02*
D03*
X287500Y887500D02*
D03*
X314500Y907000D02*
D03*
X310000D02*
D03*
X302500Y892000D02*
D03*
X298500Y895500D02*
D03*
D75*
X464500Y950500D02*
D03*
Y946000D02*
D03*
Y941500D02*
D03*
Y937000D02*
D03*
X486500D02*
D03*
Y941500D02*
D03*
Y946000D02*
D03*
Y950500D02*
D03*
X479167D02*
D03*
Y946000D02*
D03*
Y941500D02*
D03*
Y937000D02*
D03*
X471833D02*
D03*
Y941500D02*
D03*
Y946000D02*
D03*
Y950500D02*
D03*
X485100Y790812D02*
D03*
X467700Y796000D02*
D03*
X473500Y790812D02*
D03*
Y796000D02*
D03*
Y801188D02*
D03*
X479300D02*
D03*
X485100D02*
D03*
X479300Y796000D02*
D03*
Y790812D02*
D03*
X485100Y796000D02*
D03*
X467700Y790812D02*
D03*
Y801188D02*
D03*
D76*
X399500Y819500D02*
D03*
Y826500D02*
D03*
X397480Y955762D02*
D03*
X397500Y963000D02*
D03*
X289000Y955500D02*
D03*
X289500Y819500D02*
D03*
X289488Y826681D02*
D03*
X289000Y962500D02*
D03*
X232000Y906500D02*
D03*
X248500Y878500D02*
D03*
X266459Y905781D02*
D03*
X264000Y854500D02*
D03*
X250000Y843000D02*
D03*
X241000Y864000D02*
D03*
X284000Y766500D02*
D03*
D77*
X522000Y955500D02*
D03*
X530000D02*
D03*
X538000D02*
D03*
X546500D02*
D03*
Y951000D02*
D03*
X538000D02*
D03*
X522000D02*
D03*
X546500Y946500D02*
D03*
X538000D02*
D03*
X522000D02*
D03*
X546500Y942000D02*
D03*
X530000Y951000D02*
D03*
Y946500D02*
D03*
Y942000D02*
D03*
X538000D02*
D03*
X522000D02*
D03*
X493500Y821437D02*
D03*
Y831812D02*
D03*
Y826625D02*
D03*
X487700D02*
D03*
X481900D02*
D03*
X487700Y837000D02*
D03*
Y831812D02*
D03*
Y821437D02*
D03*
X493500Y837000D02*
D03*
X481900Y821437D02*
D03*
X477333Y898500D02*
D03*
X488500Y884500D02*
D03*
Y889167D02*
D03*
X477333D02*
D03*
Y884500D02*
D03*
X499667Y898500D02*
D03*
Y893833D02*
D03*
X488500D02*
D03*
X499667Y889167D02*
D03*
Y884500D02*
D03*
X488500Y898500D02*
D03*
X466167Y889167D02*
D03*
X477333Y893833D02*
D03*
X466167D02*
D03*
Y898500D02*
D03*
Y884500D02*
D03*
X476900Y751000D02*
D03*
X461300D02*
D03*
X501500Y759500D02*
D03*
X508500Y766500D02*
D03*
X505000Y763000D02*
D03*
X469100Y751000D02*
D03*
X492500D02*
D03*
X484700D02*
D03*
X470300Y821437D02*
D03*
Y826625D02*
D03*
X464500D02*
D03*
X476100D02*
D03*
Y821437D02*
D03*
X464500D02*
D03*
X476100Y831812D02*
D03*
X464500Y837000D02*
D03*
X476100D02*
D03*
X481900D02*
D03*
Y831812D02*
D03*
X470300Y837000D02*
D03*
Y831812D02*
D03*
X464500D02*
D03*
X455000Y898500D02*
D03*
X453500Y751000D02*
D03*
X455000Y889167D02*
D03*
Y893833D02*
D03*
Y884500D02*
D03*
M02*
