G04*
G04 #@! TF.GenerationSoftware,Altium Limited,Altium Designer,23.2.1 (34)*
G04*
G04 Layer_Color=255*
%FSLAX25Y25*%
%MOIN*%
G70*
G04*
G04 #@! TF.SameCoordinates,7D5924AB-2F56-4A22-BAC2-9F5A3F461BF2*
G04*
G04*
G04 #@! TF.FilePolarity,Positive*
G04*
G01*
G75*
G04:AMPARAMS|DCode=17|XSize=50mil|YSize=24mil|CornerRadius=6mil|HoleSize=0mil|Usage=FLASHONLY|Rotation=180.000|XOffset=0mil|YOffset=0mil|HoleType=Round|Shape=RoundedRectangle|*
%AMROUNDEDRECTD17*
21,1,0.05000,0.01200,0,0,180.0*
21,1,0.03800,0.02400,0,0,180.0*
1,1,0.01200,-0.01900,0.00600*
1,1,0.01200,0.01900,0.00600*
1,1,0.01200,0.01900,-0.00600*
1,1,0.01200,-0.01900,-0.00600*
%
%ADD17ROUNDEDRECTD17*%
G04:AMPARAMS|DCode=18|XSize=55mil|YSize=65mil|CornerRadius=13.75mil|HoleSize=0mil|Usage=FLASHONLY|Rotation=90.000|XOffset=0mil|YOffset=0mil|HoleType=Round|Shape=RoundedRectangle|*
%AMROUNDEDRECTD18*
21,1,0.05500,0.03750,0,0,90.0*
21,1,0.02750,0.06500,0,0,90.0*
1,1,0.02750,0.01875,0.01375*
1,1,0.02750,0.01875,-0.01375*
1,1,0.02750,-0.01875,-0.01375*
1,1,0.02750,-0.01875,0.01375*
%
%ADD18ROUNDEDRECTD18*%
%ADD19R,0.26772X0.05906*%
%ADD20R,0.04724X0.09449*%
%ADD21R,0.02362X0.05906*%
%ADD22R,0.08504X0.07028*%
%ADD23R,0.07028X0.08504*%
%ADD24R,0.03937X0.09055*%
%ADD25R,0.07087X0.02559*%
G04:AMPARAMS|DCode=26|XSize=30mil|YSize=22mil|CornerRadius=5.5mil|HoleSize=0mil|Usage=FLASHONLY|Rotation=90.000|XOffset=0mil|YOffset=0mil|HoleType=Round|Shape=RoundedRectangle|*
%AMROUNDEDRECTD26*
21,1,0.03000,0.01100,0,0,90.0*
21,1,0.01900,0.02200,0,0,90.0*
1,1,0.01100,0.00550,0.00950*
1,1,0.01100,0.00550,-0.00950*
1,1,0.01100,-0.00550,-0.00950*
1,1,0.01100,-0.00550,0.00950*
%
%ADD26ROUNDEDRECTD26*%
G04:AMPARAMS|DCode=27|XSize=50mil|YSize=24mil|CornerRadius=6mil|HoleSize=0mil|Usage=FLASHONLY|Rotation=90.000|XOffset=0mil|YOffset=0mil|HoleType=Round|Shape=RoundedRectangle|*
%AMROUNDEDRECTD27*
21,1,0.05000,0.01200,0,0,90.0*
21,1,0.03800,0.02400,0,0,90.0*
1,1,0.01200,0.00600,0.01900*
1,1,0.01200,0.00600,-0.01900*
1,1,0.01200,-0.00600,-0.01900*
1,1,0.01200,-0.00600,0.01900*
%
%ADD27ROUNDEDRECTD27*%
G04:AMPARAMS|DCode=28|XSize=55mil|YSize=65mil|CornerRadius=13.75mil|HoleSize=0mil|Usage=FLASHONLY|Rotation=180.000|XOffset=0mil|YOffset=0mil|HoleType=Round|Shape=RoundedRectangle|*
%AMROUNDEDRECTD28*
21,1,0.05500,0.03750,0,0,180.0*
21,1,0.02750,0.06500,0,0,180.0*
1,1,0.02750,-0.01375,0.01875*
1,1,0.02750,0.01375,0.01875*
1,1,0.02750,0.01375,-0.01875*
1,1,0.02750,-0.01375,-0.01875*
%
%ADD28ROUNDEDRECTD28*%
%ADD29R,0.04134X0.02362*%
G04:AMPARAMS|DCode=30|XSize=36mil|YSize=80mil|CornerRadius=7.2mil|HoleSize=0mil|Usage=FLASHONLY|Rotation=180.000|XOffset=0mil|YOffset=0mil|HoleType=Round|Shape=RoundedRectangle|*
%AMROUNDEDRECTD30*
21,1,0.03600,0.06560,0,0,180.0*
21,1,0.02160,0.08000,0,0,180.0*
1,1,0.01440,-0.01080,0.03280*
1,1,0.01440,0.01080,0.03280*
1,1,0.01440,0.01080,-0.03280*
1,1,0.01440,-0.01080,-0.03280*
%
%ADD30ROUNDEDRECTD30*%
G04:AMPARAMS|DCode=31|XSize=160mil|YSize=60mil|CornerRadius=9mil|HoleSize=0mil|Usage=FLASHONLY|Rotation=180.000|XOffset=0mil|YOffset=0mil|HoleType=Round|Shape=RoundedRectangle|*
%AMROUNDEDRECTD31*
21,1,0.16000,0.04200,0,0,180.0*
21,1,0.14200,0.06000,0,0,180.0*
1,1,0.01800,-0.07100,0.02100*
1,1,0.01800,0.07100,0.02100*
1,1,0.01800,0.07100,-0.02100*
1,1,0.01800,-0.07100,-0.02100*
%
%ADD31ROUNDEDRECTD31*%
%ADD65O,0.08000X0.07000*%
%ADD66R,0.08000X0.07000*%
%ADD67R,0.07874X0.07874*%
%ADD68C,0.07874*%
%ADD69C,0.06673*%
%ADD70R,0.06673X0.06673*%
%ADD71C,0.55118*%
%ADD72C,0.11811*%
%ADD73O,0.07874X0.11811*%
%ADD74C,0.03150*%
D17*
X390500Y955900D02*
D03*
Y963100D02*
D03*
X380500Y955900D02*
D03*
Y963100D02*
D03*
X390500Y819400D02*
D03*
Y826600D02*
D03*
X380500Y819400D02*
D03*
Y826600D02*
D03*
X430500Y754400D02*
D03*
Y761600D02*
D03*
X419000Y783100D02*
D03*
Y775900D02*
D03*
X373500Y735400D02*
D03*
Y742600D02*
D03*
X381000D02*
D03*
Y735400D02*
D03*
X292000Y766600D02*
D03*
Y759400D02*
D03*
X291500Y901600D02*
D03*
Y894400D02*
D03*
X310500Y741900D02*
D03*
Y749100D02*
D03*
Y759400D02*
D03*
Y766600D02*
D03*
X422500Y919100D02*
D03*
Y911900D02*
D03*
X429500Y891400D02*
D03*
Y898600D02*
D03*
X380000Y878100D02*
D03*
Y870900D02*
D03*
X373000D02*
D03*
Y878100D02*
D03*
X310500Y877400D02*
D03*
Y884600D02*
D03*
Y894400D02*
D03*
Y901600D02*
D03*
X297000Y826600D02*
D03*
Y819400D02*
D03*
Y962600D02*
D03*
Y955400D02*
D03*
X255500Y864600D02*
D03*
Y857400D02*
D03*
X259500Y915100D02*
D03*
Y907900D02*
D03*
D18*
X432000Y947000D02*
D03*
Y931000D02*
D03*
X419000Y947000D02*
D03*
Y931000D02*
D03*
X432000Y810000D02*
D03*
Y794000D02*
D03*
X419000Y810000D02*
D03*
Y794000D02*
D03*
X508500D02*
D03*
Y778000D02*
D03*
X516000Y935500D02*
D03*
Y919500D02*
D03*
X420500Y750500D02*
D03*
Y766500D02*
D03*
X420000Y886500D02*
D03*
Y902500D02*
D03*
D19*
X476224Y957417D02*
D03*
Y808425D02*
D03*
D20*
X487248Y908992D02*
D03*
X471500D02*
D03*
X456146D02*
D03*
Y760000D02*
D03*
X471500D02*
D03*
X487248D02*
D03*
D21*
X459295Y957417D02*
D03*
X454571D02*
D03*
Y808425D02*
D03*
X459295D02*
D03*
D22*
X522000Y792976D02*
D03*
Y776500D02*
D03*
D23*
X516524Y966000D02*
D03*
X533000D02*
D03*
D24*
X318630Y981000D02*
D03*
X323551D02*
D03*
X358000D02*
D03*
X362921D02*
D03*
Y937693D02*
D03*
X358000D02*
D03*
X323551D02*
D03*
X318630D02*
D03*
Y802847D02*
D03*
X323551D02*
D03*
X358000D02*
D03*
X362921D02*
D03*
Y846154D02*
D03*
X358000D02*
D03*
X323551D02*
D03*
X318630D02*
D03*
D25*
X361000Y877000D02*
D03*
Y882000D02*
D03*
Y887000D02*
D03*
Y892000D02*
D03*
Y897000D02*
D03*
Y902000D02*
D03*
Y907000D02*
D03*
Y912000D02*
D03*
X321630Y877000D02*
D03*
Y882000D02*
D03*
Y887000D02*
D03*
Y892000D02*
D03*
Y897000D02*
D03*
Y902000D02*
D03*
Y907000D02*
D03*
Y912000D02*
D03*
Y776500D02*
D03*
Y771500D02*
D03*
Y766500D02*
D03*
Y761500D02*
D03*
Y756500D02*
D03*
Y751500D02*
D03*
Y746500D02*
D03*
Y741500D02*
D03*
X361000Y776500D02*
D03*
Y771500D02*
D03*
Y766500D02*
D03*
Y761500D02*
D03*
Y756500D02*
D03*
Y751500D02*
D03*
Y746500D02*
D03*
Y741500D02*
D03*
D26*
X222500Y856000D02*
D03*
X228500D02*
D03*
Y864500D02*
D03*
X222500D02*
D03*
D27*
X220400Y948000D02*
D03*
X227600D02*
D03*
X394400Y767500D02*
D03*
X401600D02*
D03*
X406600Y747500D02*
D03*
X399400D02*
D03*
X387900D02*
D03*
X395100D02*
D03*
X408000Y885000D02*
D03*
X400800D02*
D03*
X379600Y751500D02*
D03*
X372400D02*
D03*
X370600Y783000D02*
D03*
X363400D02*
D03*
X297900Y749000D02*
D03*
X305100D02*
D03*
X297900Y767500D02*
D03*
X305100D02*
D03*
X394400Y912500D02*
D03*
X401600D02*
D03*
X380100Y887000D02*
D03*
X372900D02*
D03*
X388400Y885000D02*
D03*
X395600D02*
D03*
X371100Y918500D02*
D03*
X363900D02*
D03*
X296400Y884500D02*
D03*
X303600D02*
D03*
X304600Y901500D02*
D03*
X297400D02*
D03*
X237900Y849500D02*
D03*
X245100D02*
D03*
Y871000D02*
D03*
X237900D02*
D03*
D28*
X388500Y737500D02*
D03*
X404500D02*
D03*
X388000Y875500D02*
D03*
X404000D02*
D03*
D29*
X246815Y860500D02*
D03*
X236185Y864240D02*
D03*
Y860500D02*
D03*
Y856760D02*
D03*
X246815D02*
D03*
Y864240D02*
D03*
D30*
X231984Y915000D02*
D03*
X241000D02*
D03*
X250016D02*
D03*
D31*
X241000Y939000D02*
D03*
D65*
X165354Y878268D02*
D03*
Y868268D02*
D03*
Y858268D02*
D03*
Y848268D02*
D03*
D66*
Y838268D02*
D03*
D67*
X181409Y967500D02*
D03*
D68*
X222590D02*
D03*
X396500Y781500D02*
D03*
X418500Y865500D02*
D03*
X396500Y925500D02*
D03*
X418500Y732500D02*
D03*
X170000Y937500D02*
D03*
Y911000D02*
D03*
Y774500D02*
D03*
Y799500D02*
D03*
D69*
X461000Y984000D02*
D03*
Y732500D02*
D03*
D70*
X481000Y984000D02*
D03*
Y732500D02*
D03*
D71*
X587000Y905512D02*
D03*
Y812992D02*
D03*
D72*
X614173Y984252D02*
D03*
Y734252D02*
D03*
X168500D02*
D03*
Y984252D02*
D03*
D73*
X536000Y985000D02*
D03*
X516000D02*
D03*
D74*
X368500Y756000D02*
D03*
X364500Y737000D02*
D03*
X359000D02*
D03*
X383500Y760500D02*
D03*
X375000Y761500D02*
D03*
X375500Y768500D02*
D03*
X358000Y781500D02*
D03*
X324000Y737000D02*
D03*
X319000D02*
D03*
X293000Y747000D02*
D03*
X290500Y751500D02*
D03*
X304500Y758000D02*
D03*
X300000Y760000D02*
D03*
X310500Y771500D02*
D03*
X314500D02*
D03*
X359000Y917500D02*
D03*
X385000Y897000D02*
D03*
X380000Y900500D02*
D03*
Y906500D02*
D03*
X368000Y892000D02*
D03*
X363000Y872000D02*
D03*
X359000D02*
D03*
X322000Y872500D02*
D03*
X317500D02*
D03*
X291000Y882500D02*
D03*
X287500Y887500D02*
D03*
X314500Y907000D02*
D03*
X310000D02*
D03*
X302500Y892000D02*
D03*
X298500Y895500D02*
D03*
M02*
