M48
;Layer_Color=9474304
;FILE_FORMAT=2:5
INCH,LZ
;TYPE=PLATED
T1F00S00C0.00787
T2F00S00C0.01000
T3F00S00C0.01200
T4F00S00C0.01575
T5F00S00C0.03937
T6F00S00C0.04449
T7F00S00C0.04724
T8F00S00C0.05906
T9F00S00C0.11811
T10F00S00C0.27559
%
T01
X04735Y0790812
Y0796
Y0801188
X04793
Y0796
Y0790812
X04851
Y0796
Y0801188
X04865Y0937
X0479167
X0471833
X04645
X04677Y0801188
Y0796
Y0790812
X04645Y09415
Y0946
Y09505
X0471833
Y0946
Y09415
X0479167
Y0946
Y09505
X04865
Y0946
Y09415
T02
X04535Y0751
X04613
X04691
X04769
X04847
X04925
X05015Y07595
X0505Y0763
X05085Y07665
X04935Y0821437
Y0826625
Y0831812
Y0837
X04877
Y0831812
Y0826625
Y0821437
X04819
Y0826625
Y0831812
Y0837
X04761
Y0831812
Y0826625
Y0821437
X04703
Y0826625
Y0831812
Y0837
X0477333Y08845
Y0889167
Y0893833
Y08985
X04885
Y0893833
Y0889167
Y08845
X0499667
Y0889167
Y0893833
Y08985
X0466167
Y0893833
Y0889167
Y08845
X0455
Y0889167
Y0893833
Y08985
X04645Y0837
Y0831812
Y0826625
Y0821437
X0522Y0942
Y09465
Y0951
Y09555
X053
Y0951
Y09465
Y0942
X0538
Y09465
Y0951
Y09555
X05465
Y0951
Y09465
Y0942
T03
X0284Y07665
X03995Y08195
Y08265
X0289488Y0826681
X02895Y08195
X0264Y08545
X025Y0843
X0241Y0864
X02485Y08785
X0232Y09065
X0266459Y0905781
X0289Y09555
Y09625
X03975Y0963
X039748Y0955762
T04
X0293Y0747
X02905Y07515
X03Y076
X03045Y0758
X03105Y07715
X03145
X0319Y0737
X0324
X0359
X03645
X03685Y0756
X0375Y07615
X03755Y07685
X03835Y07605
X0358Y07815
X0359Y0872
X0363
X0368Y0892
X038Y09005
Y09065
X0385Y0897
X0359Y09175
X03145Y0907
X03175Y08725
X0322
X03025Y0892
X02985Y08955
X02875Y08875
X0291Y08825
X031Y0907
T05
X017Y07745
X04185Y07325
X03965Y07815
X04185Y08655
X03965Y09255
X017Y0911
X0165354Y0878268
Y0868268
Y0858268
Y0848268
Y0838268
X017Y07995
Y09375
T06
X0461Y07325
X0481
X0461Y0984
X0481
T07
X0181409Y09675
X022259
T08
X0516Y0985
X0536
T09
X01685Y0734252
X0614173
X01685Y0984252
X0614173
T10
X0587Y0812992
Y0905512
M30
