M48
;Layer_Color=9474304
;FILE_FORMAT=2:5
INCH,LZ
;TYPE=PLATED
T1F00S00C0.01575
T2F00S00C0.03543
T3F00S00C0.27559
%
T01
X05195Y01355
X05255Y0132
X05325Y01315
X0541601Y0131506
X055Y0132
X05565
X05625
X0569Y01335
X05745Y01385
X054Y0155
X05345
X05285Y0157
X05235Y0161
X05195Y0165
X05425
X0543Y01595
X05525Y0157
X0539Y017
X0538Y0177
X053744Y0183581
X0534Y01895
X0528Y0195
X0523Y02005
X05195Y02045
X05275Y0222
X0524Y02255
X052Y02305
X05325Y02175
X0538Y0212
X0543Y0207
X05435Y0272
X05485Y02675
X05525Y0264
X0575Y02675
X0571Y0272
X05665Y02765
X0562Y02815
X05585Y0285
X05545Y0289
X05505Y0293
X05465Y02965
X05425Y03
X05365Y03015
X05305
X0525
X05195
Y028
X05285
X05375Y02785
T02
X05115Y01245
Y01345
Y01445
Y01545
Y01645
Y019
Y02
Y021
Y022
Y023
Y02555
Y02655
Y02755
Y02855
Y02955
X0551181Y0255
X0561181
Y0245
X0551181
Y0235
X0561181
Y0225
X0551181
Y0215
X0561181
Y0205
X0551181
Y0195
X0561181
Y0185
X0551181
Y0175
X0561181
Y0165
X0551181
T03
X04285Y015052
Y026863
M30
