G04*
G04 #@! TF.GenerationSoftware,Altium Limited,Altium Designer,23.2.1 (34)*
G04*
G04 Layer_Physical_Order=2*
G04 Layer_Color=16711680*
%FSLAX25Y25*%
%MOIN*%
G70*
G04*
G04 #@! TF.SameCoordinates,8498BAA7-9676-4981-84BE-4D8C7AE1AD3F*
G04*
G04*
G04 #@! TF.FilePolarity,Positive*
G04*
G01*
G75*
%ADD16C,0.05000*%
%ADD17C,0.03150*%
%ADD18C,0.05906*%
%ADD19R,0.05906X0.05906*%
%ADD20C,0.55118*%
G36*
X578500Y110500D02*
X380500D01*
Y308500D01*
X578500D01*
Y110500D01*
D02*
G37*
%LPC*%
G36*
X512020Y299453D02*
X510980D01*
X509974Y299183D01*
X509073Y298663D01*
X508337Y297927D01*
X507817Y297026D01*
X507547Y296020D01*
Y294980D01*
X507817Y293974D01*
X508337Y293073D01*
X509073Y292337D01*
X509974Y291817D01*
X510980Y291547D01*
X512020D01*
X513026Y291817D01*
X513927Y292337D01*
X514663Y293073D01*
X515183Y293974D01*
X515453Y294980D01*
Y296020D01*
X515183Y297026D01*
X514663Y297927D01*
X513927Y298663D01*
X513026Y299183D01*
X512020Y299453D01*
D02*
G37*
G36*
Y289453D02*
X510980D01*
X509974Y289183D01*
X509073Y288663D01*
X508337Y287927D01*
X507817Y287026D01*
X507547Y286020D01*
Y284980D01*
X507817Y283974D01*
X508337Y283073D01*
X509073Y282337D01*
X509974Y281817D01*
X510980Y281547D01*
X512020D01*
X513026Y281817D01*
X513927Y282337D01*
X514663Y283073D01*
X515183Y283974D01*
X515453Y284980D01*
Y286020D01*
X515183Y287026D01*
X514663Y287927D01*
X513927Y288663D01*
X513026Y289183D01*
X512020Y289453D01*
D02*
G37*
G36*
X515453Y259453D02*
X507547D01*
Y251547D01*
X515453D01*
Y259453D01*
D02*
G37*
G36*
X555134Y258953D02*
X547228D01*
Y251047D01*
X555134D01*
Y258953D01*
D02*
G37*
G36*
X551701Y248953D02*
X550661D01*
X549655Y248683D01*
X548754Y248163D01*
X548018Y247427D01*
X547498Y246526D01*
X547228Y245520D01*
Y244480D01*
X547498Y243474D01*
X548018Y242573D01*
X548754Y241837D01*
X549655Y241317D01*
X550661Y241047D01*
X551701D01*
X552707Y241317D01*
X553608Y241837D01*
X554344Y242573D01*
X554865Y243474D01*
X555134Y244480D01*
Y245520D01*
X554865Y246526D01*
X554344Y247427D01*
X553608Y248163D01*
X552707Y248683D01*
X551701Y248953D01*
D02*
G37*
G36*
X430104Y297189D02*
X426896D01*
X423709Y296830D01*
X420581Y296116D01*
X417554Y295057D01*
X414664Y293665D01*
X411948Y291958D01*
X409440Y289958D01*
X407172Y287690D01*
X405172Y285182D01*
X403465Y282466D01*
X402073Y279576D01*
X401014Y276549D01*
X400300Y273421D01*
X399941Y270234D01*
Y267026D01*
X400300Y263839D01*
X401014Y260711D01*
X402073Y257684D01*
X403465Y254794D01*
X405172Y252078D01*
X407172Y249570D01*
X409440Y247302D01*
X411948Y245302D01*
X414664Y243595D01*
X417554Y242203D01*
X420581Y241144D01*
X423709Y240430D01*
X426896Y240071D01*
X430104D01*
X433291Y240430D01*
X436419Y241144D01*
X439446Y242203D01*
X442336Y243595D01*
X445052Y245302D01*
X447560Y247302D01*
X449828Y249570D01*
X451828Y252078D01*
X453535Y254794D01*
X454927Y257684D01*
X455986Y260711D01*
X456700Y263839D01*
X457059Y267026D01*
Y270234D01*
X456700Y273421D01*
X455986Y276549D01*
X454927Y279576D01*
X453535Y282466D01*
X451828Y285182D01*
X449828Y287690D01*
X447560Y289958D01*
X445052Y291958D01*
X442336Y293665D01*
X439446Y295057D01*
X436419Y296116D01*
X433291Y296830D01*
X430104Y297189D01*
D02*
G37*
G36*
X551701Y238953D02*
X550661D01*
X549655Y238683D01*
X548754Y238163D01*
X548018Y237427D01*
X547498Y236526D01*
X547228Y235520D01*
Y234480D01*
X547498Y233474D01*
X548018Y232573D01*
X548754Y231837D01*
X549655Y231317D01*
X550661Y231047D01*
X551701D01*
X552707Y231317D01*
X553608Y231837D01*
X554344Y232573D01*
X554865Y233474D01*
X555134Y234480D01*
Y235520D01*
X554865Y236526D01*
X554344Y237427D01*
X553608Y238163D01*
X552707Y238683D01*
X551701Y238953D01*
D02*
G37*
G36*
X561701Y228953D02*
X560661D01*
X559655Y228683D01*
X558754Y228163D01*
X558018Y227427D01*
X557498Y226526D01*
X557228Y225520D01*
Y224480D01*
X557498Y223474D01*
X558018Y222573D01*
X558754Y221837D01*
X559655Y221317D01*
X560661Y221047D01*
X561701D01*
X562707Y221317D01*
X563608Y221837D01*
X564344Y222573D01*
X564864Y223474D01*
X565134Y224480D01*
Y225520D01*
X564864Y226526D01*
X564344Y227427D01*
X563608Y228163D01*
X562707Y228683D01*
X561701Y228953D01*
D02*
G37*
G36*
X551701D02*
X550661D01*
X549655Y228683D01*
X548754Y228163D01*
X548018Y227427D01*
X547498Y226526D01*
X547228Y225520D01*
Y224480D01*
X547498Y223474D01*
X548018Y222573D01*
X548754Y221837D01*
X549655Y221317D01*
X550661Y221047D01*
X551701D01*
X552707Y221317D01*
X553608Y221837D01*
X554344Y222573D01*
X554865Y223474D01*
X555134Y224480D01*
Y225520D01*
X554865Y226526D01*
X554344Y227427D01*
X553608Y228163D01*
X552707Y228683D01*
X551701Y228953D01*
D02*
G37*
G36*
Y218953D02*
X550661D01*
X549655Y218683D01*
X548754Y218163D01*
X548018Y217427D01*
X547498Y216526D01*
X547228Y215520D01*
Y214480D01*
X547498Y213474D01*
X548018Y212573D01*
X548754Y211837D01*
X549655Y211317D01*
X550661Y211047D01*
X551701D01*
X552707Y211317D01*
X553608Y211837D01*
X554344Y212573D01*
X554865Y213474D01*
X555134Y214480D01*
Y215520D01*
X554865Y216526D01*
X554344Y217427D01*
X553608Y218163D01*
X552707Y218683D01*
X551701Y218953D01*
D02*
G37*
G36*
Y208953D02*
X550661D01*
X549655Y208683D01*
X548754Y208163D01*
X548018Y207427D01*
X547498Y206526D01*
X547228Y205520D01*
Y204480D01*
X547498Y203474D01*
X548018Y202573D01*
X548754Y201837D01*
X549655Y201317D01*
X550661Y201047D01*
X551701D01*
X552707Y201317D01*
X553608Y201837D01*
X554344Y202573D01*
X554865Y203474D01*
X555134Y204480D01*
Y205520D01*
X554865Y206526D01*
X554344Y207427D01*
X553608Y208163D01*
X552707Y208683D01*
X551701Y208953D01*
D02*
G37*
G36*
X561701Y198953D02*
X560661D01*
X559655Y198683D01*
X558754Y198163D01*
X558018Y197427D01*
X557498Y196526D01*
X557228Y195520D01*
Y194480D01*
X557498Y193474D01*
X558018Y192573D01*
X558754Y191837D01*
X559655Y191317D01*
X560661Y191047D01*
X561701D01*
X562707Y191317D01*
X563608Y191837D01*
X564344Y192573D01*
X564864Y193474D01*
X565134Y194480D01*
Y195520D01*
X564864Y196526D01*
X564344Y197427D01*
X563608Y198163D01*
X562707Y198683D01*
X561701Y198953D01*
D02*
G37*
G36*
X512020Y233953D02*
X510980D01*
X509974Y233683D01*
X509073Y233163D01*
X508337Y232427D01*
X507817Y231526D01*
X507547Y230520D01*
Y229480D01*
X507817Y228474D01*
X508337Y227573D01*
X509073Y226837D01*
X509974Y226317D01*
X510270Y226237D01*
X512079Y224428D01*
X511848Y223953D01*
X510980D01*
X509974Y223683D01*
X509073Y223163D01*
X508337Y222427D01*
X507817Y221526D01*
X507547Y220520D01*
Y219480D01*
X507817Y218474D01*
X508337Y217573D01*
X509073Y216837D01*
X509974Y216317D01*
X510980Y216047D01*
X512020D01*
X513026Y216317D01*
X513927Y216837D01*
X514663Y217573D01*
X515183Y218474D01*
X515453Y219480D01*
Y220348D01*
X515928Y220579D01*
X541198Y195309D01*
Y172327D01*
X541318Y171414D01*
X541671Y170562D01*
X542232Y169831D01*
X547228Y164835D01*
Y164480D01*
X547498Y163474D01*
X548018Y162573D01*
X548754Y161837D01*
X549655Y161317D01*
X550661Y161047D01*
X551701D01*
X552707Y161317D01*
X553608Y161837D01*
X554344Y162573D01*
X554865Y163474D01*
X555134Y164480D01*
Y165520D01*
X554865Y166526D01*
X554344Y167427D01*
X554141Y167631D01*
X554065Y167813D01*
X553504Y168544D01*
X551463Y170585D01*
X551654Y171047D01*
X551701D01*
X552707Y171317D01*
X553608Y171837D01*
X554344Y172573D01*
X554865Y173474D01*
X555134Y174480D01*
Y175520D01*
X554865Y176526D01*
X554344Y177427D01*
X553608Y178163D01*
X552707Y178683D01*
X551701Y178953D01*
X550661D01*
X549655Y178683D01*
X548754Y178163D01*
X548721Y178129D01*
X548258Y178321D01*
Y181679D01*
X548721Y181871D01*
X548754Y181837D01*
X549655Y181317D01*
X550661Y181047D01*
X551701D01*
X552707Y181317D01*
X553608Y181837D01*
X554344Y182573D01*
X554865Y183474D01*
X555134Y184480D01*
Y185520D01*
X554865Y186526D01*
X554344Y187427D01*
X553608Y188163D01*
X552707Y188683D01*
X551701Y188953D01*
X550661D01*
X549655Y188683D01*
X548754Y188163D01*
X548721Y188129D01*
X548258Y188321D01*
Y191679D01*
X548721Y191871D01*
X548754Y191837D01*
X549655Y191317D01*
X550661Y191047D01*
X551701D01*
X552707Y191317D01*
X553608Y191837D01*
X554344Y192573D01*
X554865Y193474D01*
X555134Y194480D01*
Y195520D01*
X554865Y196526D01*
X554344Y197427D01*
X553608Y198163D01*
X552707Y198683D01*
X551701Y198953D01*
X550661D01*
X549655Y198683D01*
X548754Y198163D01*
X548561Y197970D01*
X547972Y198088D01*
X547786Y198537D01*
X547225Y199268D01*
X515263Y231230D01*
X515183Y231526D01*
X514663Y232427D01*
X513927Y233163D01*
X513026Y233683D01*
X512020Y233953D01*
D02*
G37*
G36*
X515453Y193953D02*
X507547D01*
Y186047D01*
X515453D01*
Y193953D01*
D02*
G37*
G36*
X561701Y218953D02*
X560661D01*
X559655Y218683D01*
X558754Y218163D01*
X558018Y217427D01*
X557498Y216526D01*
X557228Y215520D01*
Y214480D01*
X557498Y213474D01*
X558018Y212573D01*
X558754Y211837D01*
X559655Y211317D01*
X559951Y211237D01*
X561760Y209428D01*
X561529Y208953D01*
X560661D01*
X559655Y208683D01*
X558754Y208163D01*
X558018Y207427D01*
X557498Y206526D01*
X557228Y205520D01*
Y204480D01*
X557498Y203474D01*
X558018Y202573D01*
X558754Y201837D01*
X559655Y201317D01*
X560661Y201047D01*
X561701D01*
X562707Y201317D01*
X563608Y201837D01*
X564344Y202573D01*
X564864Y203474D01*
X565134Y204480D01*
Y205348D01*
X565610Y205579D01*
X570104Y201085D01*
Y181478D01*
X569642Y181287D01*
X565033Y185895D01*
X564864Y186526D01*
X564344Y187427D01*
X563608Y188163D01*
X562707Y188683D01*
X561701Y188953D01*
X560661D01*
X559655Y188683D01*
X558754Y188163D01*
X558018Y187427D01*
X557498Y186526D01*
X557228Y185520D01*
Y184480D01*
X557498Y183474D01*
X558018Y182573D01*
X558754Y181837D01*
X559588Y181355D01*
X561491Y179453D01*
X561284Y178953D01*
X560661D01*
X559655Y178683D01*
X558754Y178163D01*
X558018Y177427D01*
X557498Y176526D01*
X557228Y175520D01*
Y174480D01*
X557498Y173474D01*
X558018Y172573D01*
X558754Y171837D01*
X559655Y171317D01*
X560661Y171047D01*
X561701D01*
X562707Y171317D01*
X563608Y171837D01*
X563642Y171871D01*
X564104Y171679D01*
Y168321D01*
X563642Y168129D01*
X563608Y168163D01*
X562707Y168683D01*
X561701Y168953D01*
X560661D01*
X559655Y168683D01*
X558754Y168163D01*
X558018Y167427D01*
X557498Y166526D01*
X557228Y165520D01*
Y164480D01*
X557498Y163474D01*
X558018Y162573D01*
X558754Y161837D01*
X559655Y161317D01*
X560661Y161047D01*
X561701D01*
X562707Y161317D01*
X563608Y161837D01*
X563642Y161871D01*
X564104Y161679D01*
Y158596D01*
X558038Y152530D01*
X528462D01*
X515263Y165730D01*
X515183Y166026D01*
X514663Y166927D01*
X513927Y167663D01*
X513026Y168183D01*
X512020Y168453D01*
X510980D01*
X509974Y168183D01*
X509073Y167663D01*
X508337Y166927D01*
X507817Y166026D01*
X507547Y165020D01*
Y163980D01*
X507817Y162974D01*
X508337Y162073D01*
X509073Y161337D01*
X509974Y160817D01*
X510270Y160737D01*
X512079Y158928D01*
X511848Y158453D01*
X510980D01*
X509974Y158183D01*
X509073Y157663D01*
X508337Y156927D01*
X507817Y156026D01*
X507547Y155020D01*
Y153980D01*
X507817Y152974D01*
X508337Y152073D01*
X509073Y151337D01*
X509974Y150817D01*
X510270Y150737D01*
X524504Y136504D01*
X525235Y135943D01*
X526086Y135590D01*
X527000Y135470D01*
X566500D01*
X567414Y135590D01*
X568265Y135943D01*
X568996Y136504D01*
X576130Y143638D01*
X576691Y144369D01*
X577044Y145220D01*
X577164Y146134D01*
Y202547D01*
X577044Y203461D01*
X576691Y204312D01*
X576130Y205044D01*
X564944Y216230D01*
X564864Y216526D01*
X564344Y217427D01*
X563608Y218163D01*
X562707Y218683D01*
X561701Y218953D01*
D02*
G37*
G36*
X515453Y128453D02*
X507547D01*
Y120547D01*
X515453D01*
Y128453D01*
D02*
G37*
%LPD*%
G36*
X570104Y153958D02*
Y147596D01*
X565038Y142530D01*
X528462D01*
X525878Y145115D01*
X526074Y145554D01*
X526113Y145587D01*
X527000Y145470D01*
X559500D01*
X560414Y145590D01*
X561265Y145943D01*
X561996Y146504D01*
X569642Y154149D01*
X570104Y153958D01*
D02*
G37*
D16*
X511500Y230000D02*
X544728Y196772D01*
X551008Y165173D02*
Y166048D01*
Y165173D02*
X551181Y165000D01*
X544728Y172327D02*
X551008Y166048D01*
X544728Y172327D02*
Y196772D01*
X527000Y149000D02*
X559500D01*
X567634Y157134D01*
Y178302D01*
X511500Y164500D02*
X527000Y149000D01*
X573634Y146134D02*
Y202547D01*
X566500Y139000D02*
X573634Y146134D01*
X527000Y139000D02*
X566500D01*
X511500Y154500D02*
X527000Y139000D01*
X561181Y184755D02*
Y185000D01*
Y215000D02*
X573634Y202547D01*
X561181Y184755D02*
X567634Y178302D01*
D17*
X574500Y138500D02*
D03*
X569000Y133500D02*
D03*
X562500Y132000D02*
D03*
X556500D02*
D03*
X550000D02*
D03*
X541601Y131506D02*
D03*
X532500Y131500D02*
D03*
X525500Y132000D02*
D03*
X519500Y135500D02*
D03*
Y165000D02*
D03*
X523500Y161000D02*
D03*
X528500Y157000D02*
D03*
X534500Y155000D02*
D03*
X540000D02*
D03*
X552500Y157000D02*
D03*
X543000Y159500D02*
D03*
X542500Y165000D02*
D03*
X539000Y170000D02*
D03*
X538000Y177000D02*
D03*
X537440Y183581D02*
D03*
X534000Y189500D02*
D03*
X528000Y195000D02*
D03*
X523000Y200500D02*
D03*
X519500Y204500D02*
D03*
X543000Y207000D02*
D03*
X538000Y212000D02*
D03*
X532500Y217500D02*
D03*
X527500Y222000D02*
D03*
X524000Y225500D02*
D03*
X520000Y230500D02*
D03*
X552500Y264000D02*
D03*
X548500Y267500D02*
D03*
X543500Y272000D02*
D03*
X537500Y278500D02*
D03*
X528500Y280000D02*
D03*
X519500D02*
D03*
X575000Y267500D02*
D03*
X571000Y272000D02*
D03*
X566500Y276500D02*
D03*
X562000Y281500D02*
D03*
X558500Y285000D02*
D03*
X554500Y289000D02*
D03*
X550500Y293000D02*
D03*
X546500Y296500D02*
D03*
X542500Y300000D02*
D03*
X536500Y301500D02*
D03*
X530500D02*
D03*
X525000D02*
D03*
X519500D02*
D03*
D18*
X511500Y164500D02*
D03*
Y154500D02*
D03*
Y144500D02*
D03*
Y134500D02*
D03*
Y230000D02*
D03*
Y220000D02*
D03*
Y210000D02*
D03*
Y200000D02*
D03*
Y295500D02*
D03*
Y285500D02*
D03*
Y275500D02*
D03*
Y265500D02*
D03*
X561181Y255000D02*
D03*
X551181Y245000D02*
D03*
X561181D02*
D03*
X551181Y235000D02*
D03*
X561181D02*
D03*
X551181Y225000D02*
D03*
X561181D02*
D03*
X551181Y215000D02*
D03*
X561181D02*
D03*
X551181Y205000D02*
D03*
X561181D02*
D03*
X551181Y195000D02*
D03*
X561181D02*
D03*
X551181Y185000D02*
D03*
X561181D02*
D03*
X551181Y175000D02*
D03*
X561181D02*
D03*
X551181Y165000D02*
D03*
X561181D02*
D03*
D19*
X511500Y124500D02*
D03*
Y190000D02*
D03*
Y255500D02*
D03*
X551181Y255000D02*
D03*
D20*
X428500Y150520D02*
D03*
Y268630D02*
D03*
M02*
