G04*
G04 #@! TF.GenerationSoftware,Altium Limited,Altium Designer,23.2.1 (34)*
G04*
G04 Layer_Color=2752767*
%FSLAX25Y25*%
%MOIN*%
G70*
G04*
G04 #@! TF.SameCoordinates,EF721D9F-713C-407B-BCDA-EDE8CB0AA328*
G04*
G04*
G04 #@! TF.FilePolarity,Positive*
G04*
G01*
G75*
%ADD10C,0.01000*%
%ADD11C,0.00500*%
%ADD12C,0.00667*%
D10*
X381000Y119024D02*
G03*
X388874Y111150I7874J0D01*
G01*
X569976Y111150D02*
G03*
X577850Y119024I-75J7949D01*
G01*
X388874Y307999D02*
G03*
X381000Y300125I0J-7874D01*
G01*
X577850Y300126D02*
G03*
X569976Y308000I-7874J0D01*
G01*
X381000Y119000D02*
Y300500D01*
X388850Y111150D02*
X570150D01*
X577850Y118850D02*
Y300150D01*
X388500Y308000D02*
X570000D01*
D11*
X574500Y136500D02*
X572500Y140500D01*
X576500D01*
X574500Y136500D01*
X569000Y131500D02*
X567000Y135500D01*
X571000D01*
X569000Y131500D01*
X562500Y130000D02*
X560500Y134000D01*
X564500D01*
X562500Y130000D01*
X556500D02*
X554500Y134000D01*
X558500D01*
X556500Y130000D01*
X550000D02*
X548000Y134000D01*
X552000D01*
X550000Y130000D01*
X541601Y129506D02*
X539601Y133506D01*
X543601D01*
X541601Y129506D01*
X532500Y129500D02*
X530500Y133500D01*
X534500D01*
X532500Y129500D01*
X525500Y130000D02*
X523500Y134000D01*
X527500D01*
X525500Y130000D01*
X519500Y133500D02*
X517500Y137500D01*
X521500D01*
X519500Y133500D01*
Y163000D02*
X517500Y167000D01*
X521500D01*
X519500Y163000D01*
X523500Y159000D02*
X521500Y163000D01*
X525500D01*
X523500Y159000D01*
X528500Y155000D02*
X526500Y159000D01*
X530500D01*
X528500Y155000D01*
X534500Y153000D02*
X532500Y157000D01*
X536500D01*
X534500Y153000D01*
X540000D02*
X538000Y157000D01*
X542000D01*
X540000Y153000D01*
X552500Y155000D02*
X550500Y159000D01*
X554500D01*
X552500Y155000D01*
X543000Y157500D02*
X541000Y161500D01*
X545000D01*
X543000Y157500D01*
X542500Y163000D02*
X540500Y167000D01*
X544500D01*
X542500Y163000D01*
X539000Y168000D02*
X537000Y172000D01*
X541000D01*
X539000Y168000D01*
X538000Y175000D02*
X536000Y179000D01*
X540000D01*
X538000Y175000D01*
X537440Y181581D02*
X535440Y185581D01*
X539440D01*
X537440Y181581D01*
X534000Y187500D02*
X532000Y191500D01*
X536000D01*
X534000Y187500D01*
X528000Y193000D02*
X526000Y197000D01*
X530000D01*
X528000Y193000D01*
X523000Y198500D02*
X521000Y202500D01*
X525000D01*
X523000Y198500D01*
X519500Y202500D02*
X517500Y206500D01*
X521500D01*
X519500Y202500D01*
X543000Y205000D02*
X541000Y209000D01*
X545000D01*
X543000Y205000D01*
X538000Y210000D02*
X536000Y214000D01*
X540000D01*
X538000Y210000D01*
X532500Y215500D02*
X530500Y219500D01*
X534500D01*
X532500Y215500D01*
X527500Y220000D02*
X525500Y224000D01*
X529500D01*
X527500Y220000D01*
X524000Y223500D02*
X522000Y227500D01*
X526000D01*
X524000Y223500D01*
X520000Y228500D02*
X518000Y232500D01*
X522000D01*
X520000Y228500D01*
X552500Y262000D02*
X550500Y266000D01*
X554500D01*
X552500Y262000D01*
X548500Y265500D02*
X546500Y269500D01*
X550500D01*
X548500Y265500D01*
X543500Y270000D02*
X541500Y274000D01*
X545500D01*
X543500Y270000D01*
X537500Y276500D02*
X535500Y280500D01*
X539500D01*
X537500Y276500D01*
X528500Y278000D02*
X526500Y282000D01*
X530500D01*
X528500Y278000D01*
X519500D02*
X517500Y282000D01*
X521500D01*
X519500Y278000D01*
X575000Y265500D02*
X573000Y269500D01*
X577000D01*
X575000Y265500D01*
X571000Y270000D02*
X569000Y274000D01*
X573000D01*
X571000Y270000D01*
X566500Y274500D02*
X564500Y278500D01*
X568500D01*
X566500Y274500D01*
X562000Y279500D02*
X560000Y283500D01*
X564000D01*
X562000Y279500D01*
X558500Y283000D02*
X556500Y287000D01*
X560500D01*
X558500Y283000D01*
X554500Y287000D02*
X552500Y291000D01*
X556500D01*
X554500Y287000D01*
X550500Y291000D02*
X548500Y295000D01*
X552500D01*
X550500Y291000D01*
X546500Y294500D02*
X544500Y298500D01*
X548500D01*
X546500Y294500D01*
X542500Y298000D02*
X540500Y302000D01*
X544500D01*
X542500Y298000D01*
X536500Y299500D02*
X534500Y303500D01*
X538500D01*
X536500Y299500D01*
X530500D02*
X528500Y303500D01*
X532500D01*
X530500Y299500D01*
X525000D02*
X523000Y303500D01*
X527000D01*
X525000Y299500D01*
X519500D02*
X517500Y303500D01*
X521500D01*
X519500Y299500D01*
X509500Y162500D02*
Y166500D01*
X513500D01*
Y162500D01*
X509500D01*
Y152500D02*
Y156500D01*
X513500D01*
Y152500D01*
X509500D01*
Y142500D02*
Y146500D01*
X513500D01*
Y142500D01*
X509500D01*
Y132500D02*
Y136500D01*
X513500D01*
Y132500D01*
X509500D01*
Y122500D02*
Y126500D01*
X513500D01*
Y122500D01*
X509500D01*
Y228000D02*
Y232000D01*
X513500D01*
Y228000D01*
X509500D01*
Y218000D02*
Y222000D01*
X513500D01*
Y218000D01*
X509500D01*
Y208000D02*
Y212000D01*
X513500D01*
Y208000D01*
X509500D01*
Y198000D02*
Y202000D01*
X513500D01*
Y198000D01*
X509500D01*
Y188000D02*
Y192000D01*
X513500D01*
Y188000D01*
X509500D01*
Y293500D02*
Y297500D01*
X513500D01*
Y293500D01*
X509500D01*
Y283500D02*
Y287500D01*
X513500D01*
Y283500D01*
X509500D01*
Y273500D02*
Y277500D01*
X513500D01*
Y273500D01*
X509500D01*
Y263500D02*
Y267500D01*
X513500D01*
Y263500D01*
X509500D01*
Y253500D02*
Y257500D01*
X513500D01*
Y253500D01*
X509500D01*
X549181Y253000D02*
Y257000D01*
X553181D01*
Y253000D01*
X549181D01*
X559181D02*
Y257000D01*
X563181D01*
Y253000D01*
X559181D01*
X549181Y243000D02*
Y247000D01*
X553181D01*
Y243000D01*
X549181D01*
X559181D02*
Y247000D01*
X563181D01*
Y243000D01*
X559181D01*
X549181Y233000D02*
Y237000D01*
X553181D01*
Y233000D01*
X549181D01*
X559181D02*
Y237000D01*
X563181D01*
Y233000D01*
X559181D01*
X549181Y223000D02*
Y227000D01*
X553181D01*
Y223000D01*
X549181D01*
X559181D02*
Y227000D01*
X563181D01*
Y223000D01*
X559181D01*
X549181Y213000D02*
Y217000D01*
X553181D01*
Y213000D01*
X549181D01*
X559181D02*
Y217000D01*
X563181D01*
Y213000D01*
X559181D01*
X549181Y203000D02*
Y207000D01*
X553181D01*
Y203000D01*
X549181D01*
X559181D02*
Y207000D01*
X563181D01*
Y203000D01*
X559181D01*
X549181Y193000D02*
Y197000D01*
X553181D01*
Y193000D01*
X549181D01*
X559181D02*
Y197000D01*
X563181D01*
Y193000D01*
X559181D01*
X549181Y183000D02*
Y187000D01*
X553181D01*
Y183000D01*
X549181D01*
X559181D02*
Y187000D01*
X563181D01*
Y183000D01*
X559181D01*
X549181Y173000D02*
Y177000D01*
X553181D01*
Y173000D01*
X549181D01*
X559181D02*
Y177000D01*
X563181D01*
Y173000D01*
X559181D01*
X549181Y163000D02*
Y167000D01*
X553181D01*
Y163000D01*
X549181D01*
X559181D02*
Y167000D01*
X563181D01*
Y163000D01*
X559181D01*
D12*
X430500Y150520D02*
G03*
X430500Y150520I-2000J0D01*
G01*
Y268630D02*
G03*
X430500Y268630I-2000J0D01*
G01*
M02*
