G04*
G04 #@! TF.GenerationSoftware,Altium Limited,Altium Designer,23.2.1 (34)*
G04*
G04 Layer_Color=128*
%FSLAX25Y25*%
%MOIN*%
G70*
G04*
G04 #@! TF.SameCoordinates,EF721D9F-713C-407B-BCDA-EDE8CB0AA328*
G04*
G04*
G04 #@! TF.FilePolarity,Positive*
G04*
G01*
G75*
%ADD10C,0.01000*%
%ADD11C,0.00500*%
D10*
X381000Y119024D02*
G03*
X388874Y111150I7874J0D01*
G01*
X569976Y111150D02*
G03*
X577850Y119024I-75J7949D01*
G01*
X388874Y307999D02*
G03*
X381000Y300125I0J-7874D01*
G01*
X577850Y300126D02*
G03*
X569976Y308000I-7874J0D01*
G01*
X381000Y119000D02*
Y300500D01*
X388850Y111150D02*
X570150D01*
X577850Y118850D02*
Y300150D01*
X388500Y308000D02*
X570000D01*
D11*
X573713Y138500D02*
X575287D01*
X574500Y137713D02*
Y139287D01*
X568213Y133500D02*
X569787D01*
X569000Y132713D02*
Y134287D01*
X561713Y132000D02*
X563287D01*
X562500Y131213D02*
Y132787D01*
X555713Y132000D02*
X557287D01*
X556500Y131213D02*
Y132787D01*
X549213Y132000D02*
X550787D01*
X550000Y131213D02*
Y132787D01*
X540813Y131506D02*
X542388D01*
X541601Y130719D02*
Y132294D01*
X531713Y131500D02*
X533287D01*
X532500Y130713D02*
Y132287D01*
X524713Y132000D02*
X526287D01*
X525500Y131213D02*
Y132787D01*
X518713Y135500D02*
X520287D01*
X519500Y134713D02*
Y136287D01*
X518713Y165000D02*
X520287D01*
X519500Y164213D02*
Y165787D01*
X522713Y161000D02*
X524287D01*
X523500Y160213D02*
Y161787D01*
X527713Y157000D02*
X529287D01*
X528500Y156213D02*
Y157787D01*
X533713Y155000D02*
X535287D01*
X534500Y154213D02*
Y155787D01*
X539213Y155000D02*
X540787D01*
X540000Y154213D02*
Y155787D01*
X551713Y157000D02*
X553287D01*
X552500Y156213D02*
Y157787D01*
X542213Y159500D02*
X543787D01*
X543000Y158713D02*
Y160287D01*
X541713Y165000D02*
X543287D01*
X542500Y164213D02*
Y165787D01*
X538213Y170000D02*
X539787D01*
X539000Y169213D02*
Y170787D01*
X537213Y177000D02*
X538787D01*
X538000Y176213D02*
Y177787D01*
X536652Y183581D02*
X538227D01*
X537440Y182794D02*
Y184368D01*
X533213Y189500D02*
X534787D01*
X534000Y188713D02*
Y190287D01*
X527213Y195000D02*
X528787D01*
X528000Y194213D02*
Y195787D01*
X522213Y200500D02*
X523787D01*
X523000Y199713D02*
Y201287D01*
X518713Y204500D02*
X520287D01*
X519500Y203713D02*
Y205287D01*
X542213Y207000D02*
X543787D01*
X543000Y206213D02*
Y207787D01*
X537213Y212000D02*
X538787D01*
X538000Y211213D02*
Y212787D01*
X531713Y217500D02*
X533287D01*
X532500Y216713D02*
Y218287D01*
X526713Y222000D02*
X528287D01*
X527500Y221213D02*
Y222787D01*
X523213Y225500D02*
X524787D01*
X524000Y224713D02*
Y226287D01*
X519213Y230500D02*
X520787D01*
X520000Y229713D02*
Y231287D01*
X551713Y264000D02*
X553287D01*
X552500Y263213D02*
Y264787D01*
X547713Y267500D02*
X549287D01*
X548500Y266713D02*
Y268287D01*
X542713Y272000D02*
X544287D01*
X543500Y271213D02*
Y272787D01*
X536713Y278500D02*
X538287D01*
X537500Y277713D02*
Y279287D01*
X527713Y280000D02*
X529287D01*
X528500Y279213D02*
Y280787D01*
X518713Y280000D02*
X520287D01*
X519500Y279213D02*
Y280787D01*
X574213Y267500D02*
X575787D01*
X575000Y266713D02*
Y268287D01*
X570213Y272000D02*
X571787D01*
X571000Y271213D02*
Y272787D01*
X565713Y276500D02*
X567287D01*
X566500Y275713D02*
Y277287D01*
X561213Y281500D02*
X562787D01*
X562000Y280713D02*
Y282287D01*
X557713Y285000D02*
X559287D01*
X558500Y284213D02*
Y285787D01*
X553713Y289000D02*
X555287D01*
X554500Y288213D02*
Y289787D01*
X549713Y293000D02*
X551287D01*
X550500Y292213D02*
Y293787D01*
X545713Y296500D02*
X547287D01*
X546500Y295713D02*
Y297287D01*
X541713Y300000D02*
X543287D01*
X542500Y299213D02*
Y300787D01*
X535713Y301500D02*
X537287D01*
X536500Y300713D02*
Y302287D01*
X529713Y301500D02*
X531287D01*
X530500Y300713D02*
Y302287D01*
X524213Y301500D02*
X525787D01*
X525000Y300713D02*
Y302287D01*
X518713Y301500D02*
X520287D01*
X519500Y300713D02*
Y302287D01*
X509728Y164500D02*
X513272D01*
X511500Y162728D02*
Y166272D01*
X509728Y154500D02*
X513272D01*
X511500Y152728D02*
Y156272D01*
X509728Y144500D02*
X513272D01*
X511500Y142728D02*
Y146272D01*
X509728Y134500D02*
X513272D01*
X511500Y132728D02*
Y136272D01*
X509728Y124500D02*
X513272D01*
X511500Y122728D02*
Y126272D01*
X509728Y230000D02*
X513272D01*
X511500Y228228D02*
Y231772D01*
X509728Y220000D02*
X513272D01*
X511500Y218228D02*
Y221772D01*
X509728Y210000D02*
X513272D01*
X511500Y208228D02*
Y211772D01*
X509728Y200000D02*
X513272D01*
X511500Y198228D02*
Y201772D01*
X509728Y190000D02*
X513272D01*
X511500Y188228D02*
Y191772D01*
X509728Y295500D02*
X513272D01*
X511500Y293728D02*
Y297272D01*
X509728Y285500D02*
X513272D01*
X511500Y283728D02*
Y287272D01*
X509728Y275500D02*
X513272D01*
X511500Y273728D02*
Y277272D01*
X509728Y265500D02*
X513272D01*
X511500Y263728D02*
Y267272D01*
X509728Y255500D02*
X513272D01*
X511500Y253728D02*
Y257272D01*
X414720Y150520D02*
X442279D01*
X428500Y136740D02*
Y164299D01*
X549409Y255000D02*
X552953D01*
X551181Y253228D02*
Y256772D01*
X559410Y255000D02*
X562953D01*
X561181Y253228D02*
Y256772D01*
X549409Y245000D02*
X552953D01*
X551181Y243228D02*
Y246772D01*
X559410Y245000D02*
X562953D01*
X561181Y243228D02*
Y246772D01*
X549409Y235000D02*
X552953D01*
X551181Y233228D02*
Y236772D01*
X559410Y235000D02*
X562953D01*
X561181Y233228D02*
Y236772D01*
X549409Y225000D02*
X552953D01*
X551181Y223228D02*
Y226772D01*
X559410Y225000D02*
X562953D01*
X561181Y223228D02*
Y226772D01*
X549409Y215000D02*
X552953D01*
X551181Y213228D02*
Y216772D01*
X559410Y215000D02*
X562953D01*
X561181Y213228D02*
Y216772D01*
X549409Y205000D02*
X552953D01*
X551181Y203228D02*
Y206772D01*
X559410Y205000D02*
X562953D01*
X561181Y203228D02*
Y206772D01*
X549409Y195000D02*
X552953D01*
X551181Y193228D02*
Y196772D01*
X559410Y195000D02*
X562953D01*
X561181Y193228D02*
Y196772D01*
X549409Y185000D02*
X552953D01*
X551181Y183228D02*
Y186772D01*
X559410Y185000D02*
X562953D01*
X561181Y183228D02*
Y186772D01*
X549409Y175000D02*
X552953D01*
X551181Y173228D02*
Y176772D01*
X559410Y175000D02*
X562953D01*
X561181Y173228D02*
Y176772D01*
X549409Y165000D02*
X552953D01*
X551181Y163228D02*
Y166772D01*
X559410Y165000D02*
X562953D01*
X561181Y163228D02*
Y166772D01*
X414720Y268630D02*
X442279D01*
X428500Y254850D02*
Y282410D01*
M02*
