G04*
G04 #@! TF.GenerationSoftware,Altium Limited,Altium Designer,23.2.1 (34)*
G04*
G04 Layer_Color=8388736*
%FSLAX25Y25*%
%MOIN*%
G70*
G04*
G04 #@! TF.SameCoordinates,8498BAA7-9676-4981-84BE-4D8C7AE1AD3F*
G04*
G04*
G04 #@! TF.FilePolarity,Negative*
G04*
G01*
G75*
%ADD12C,0.03950*%
%ADD13C,0.06706*%
%ADD14R,0.06706X0.06706*%
%ADD15C,0.55918*%
D12*
X574500Y138500D02*
D03*
X569000Y133500D02*
D03*
X562500Y132000D02*
D03*
X556500D02*
D03*
X550000D02*
D03*
X541601Y131506D02*
D03*
X532500Y131500D02*
D03*
X525500Y132000D02*
D03*
X519500Y135500D02*
D03*
Y165000D02*
D03*
X523500Y161000D02*
D03*
X528500Y157000D02*
D03*
X534500Y155000D02*
D03*
X540000D02*
D03*
X552500Y157000D02*
D03*
X543000Y159500D02*
D03*
X542500Y165000D02*
D03*
X539000Y170000D02*
D03*
X538000Y177000D02*
D03*
X537440Y183581D02*
D03*
X534000Y189500D02*
D03*
X528000Y195000D02*
D03*
X523000Y200500D02*
D03*
X519500Y204500D02*
D03*
X543000Y207000D02*
D03*
X538000Y212000D02*
D03*
X532500Y217500D02*
D03*
X527500Y222000D02*
D03*
X524000Y225500D02*
D03*
X520000Y230500D02*
D03*
X552500Y264000D02*
D03*
X548500Y267500D02*
D03*
X543500Y272000D02*
D03*
X537500Y278500D02*
D03*
X528500Y280000D02*
D03*
X519500D02*
D03*
X575000Y267500D02*
D03*
X571000Y272000D02*
D03*
X566500Y276500D02*
D03*
X562000Y281500D02*
D03*
X558500Y285000D02*
D03*
X554500Y289000D02*
D03*
X550500Y293000D02*
D03*
X546500Y296500D02*
D03*
X542500Y300000D02*
D03*
X536500Y301500D02*
D03*
X530500D02*
D03*
X525000D02*
D03*
X519500D02*
D03*
D13*
X511500Y164500D02*
D03*
Y154500D02*
D03*
Y144500D02*
D03*
Y134500D02*
D03*
Y230000D02*
D03*
Y220000D02*
D03*
Y210000D02*
D03*
Y200000D02*
D03*
Y295500D02*
D03*
Y285500D02*
D03*
Y275500D02*
D03*
Y265500D02*
D03*
X561181Y255000D02*
D03*
X551181Y245000D02*
D03*
X561181D02*
D03*
X551181Y235000D02*
D03*
X561181D02*
D03*
X551181Y225000D02*
D03*
X561181D02*
D03*
X551181Y215000D02*
D03*
X561181D02*
D03*
X551181Y205000D02*
D03*
X561181D02*
D03*
X551181Y195000D02*
D03*
X561181D02*
D03*
X551181Y185000D02*
D03*
X561181D02*
D03*
X551181Y175000D02*
D03*
X561181D02*
D03*
X551181Y165000D02*
D03*
X561181D02*
D03*
D14*
X511500Y124500D02*
D03*
Y190000D02*
D03*
Y255500D02*
D03*
X551181Y255000D02*
D03*
D15*
X428500Y150520D02*
D03*
Y268630D02*
D03*
M02*
